<?xml version="1.0" encoding="UTF-8"?>

<!DOCTYPE svg PUBLIC '-//W3C//DTD SVG 1.0//EN' 'http://www.w3.org/TR/2001/REC-SVG-20010904/DTD/svg10.dtd'>
<svg style="fill-opacity:1; color-rendering:auto; color-interpolation:auto; text-rendering:auto; stroke:black; stroke-linecap:square; stroke-miterlimit:10; shape-rendering:auto; stroke-opacity:1; fill:black; stroke-dasharray:none; font-weight:normal; stroke-width:1; font-family:&apos;Dialog&apos;; font-style:normal; stroke-linejoin:miter; font-size:12; stroke-dashoffset:0; image-rendering:auto;" xmlns="http://www.w3.org/2000/svg" width="1096" xmlns:xlink="http://www.w3.org/1999/xlink" height="655">
  <!--Generated by the Batik Graphics2D SVG Generator-->
  <defs id="genericDefs" />
  <g>
    <defs id="defs1">
      <clipPath clipPathUnits="userSpaceOnUse" id="clipPath1">
        <path d="M-3 -3 L97 -3 L97 47 L-3 47 L-3 -3 Z" />
      </clipPath>
      <clipPath clipPathUnits="userSpaceOnUse" id="clipPath2">
        <path d="M-3 -3 L107 -3 L107 47 L-3 47 L-3 -3 Z" />
      </clipPath>
      <clipPath clipPathUnits="userSpaceOnUse" id="clipPath3">
        <path d="M-3 -3 L147 -3 L147 47 L-3 47 L-3 -3 Z" />
      </clipPath>
      <clipPath clipPathUnits="userSpaceOnUse" id="clipPath4">
        <path d="M-3 -3 L127 -3 L127 47 L-3 47 L-3 -3 Z" />
      </clipPath>
      <clipPath clipPathUnits="userSpaceOnUse" id="clipPath5">
        <path d="M-3 -3 L157 -3 L157 77 L-3 77 L-3 -3 Z" />
      </clipPath>
      <clipPath clipPathUnits="userSpaceOnUse" id="clipPath6">
        <path d="M-3 -3 L277 -3 L277 97 L-3 97 L-3 -3 Z" />
      </clipPath>
      <clipPath clipPathUnits="userSpaceOnUse" id="clipPath7">
        <path d="M0 0 L0 90 L270 90 L270 0 Z" />
      </clipPath>
      <clipPath clipPathUnits="userSpaceOnUse" id="clipPath8">
        <path d="M-3 -3 L187 -3 L187 67 L-3 67 L-3 -3 Z" />
      </clipPath>
      <clipPath clipPathUnits="userSpaceOnUse" id="clipPath9">
        <path d="M0 0 L0 60 L180 60 L180 0 Z" />
      </clipPath>
      <clipPath clipPathUnits="userSpaceOnUse" id="clipPath10">
        <path d="M-3 -3 L177 -3 L177 107 L-3 107 L-3 -3 Z" />
      </clipPath>
      <clipPath clipPathUnits="userSpaceOnUse" id="clipPath11">
        <path d="M-3 -3 L117 -3 L117 47 L-3 47 L-3 -3 Z" />
      </clipPath>
      <clipPath clipPathUnits="userSpaceOnUse" id="clipPath12">
        <path d="M0 0 L114 0 L114 16 L0 16 L0 0 Z" />
      </clipPath>
      <clipPath clipPathUnits="userSpaceOnUse" id="clipPath13">
        <path d="M0 0 L104 0 L104 30 L0 30 L0 0 Z" />
      </clipPath>
      <clipPath clipPathUnits="userSpaceOnUse" id="clipPath14">
        <path d="M0 0 L144 0 L144 30 L0 30 L0 0 Z" />
      </clipPath>
      <clipPath clipPathUnits="userSpaceOnUse" id="clipPath15">
        <path d="M0 0 L124 0 L124 30 L0 30 L0 0 Z" />
      </clipPath>
      <clipPath clipPathUnits="userSpaceOnUse" id="clipPath16">
        <path d="M0 0 L94 0 L94 30 L0 30 L0 0 Z" />
      </clipPath>
      <clipPath clipPathUnits="userSpaceOnUse" id="clipPath17">
        <path d="M0 0 L154 0 L154 60 L0 60 L0 0 Z" />
      </clipPath>
      <clipPath clipPathUnits="userSpaceOnUse" id="clipPath18">
        <path d="M0 0 L174 0 L174 76 L0 76 L0 0 Z" />
      </clipPath>
      <clipPath clipPathUnits="userSpaceOnUse" id="clipPath19">
        <path d="M0 0 L94 0 L94 18 L0 18 L0 0 Z" />
      </clipPath>
      <clipPath clipPathUnits="userSpaceOnUse" id="clipPath20">
        <path d="M0 0 L104 0 L104 18 L0 18 L0 0 Z" />
      </clipPath>
      <clipPath clipPathUnits="userSpaceOnUse" id="clipPath21">
        <path d="M0 0 L144 0 L144 18 L0 18 L0 0 Z" />
      </clipPath>
      <clipPath clipPathUnits="userSpaceOnUse" id="clipPath22">
        <path d="M0 0 L124 0 L124 18 L0 18 L0 0 Z" />
      </clipPath>
      <clipPath clipPathUnits="userSpaceOnUse" id="clipPath23">
        <path d="M0 0 L154 0 L154 18 L0 18 L0 0 Z" />
      </clipPath>
      <clipPath clipPathUnits="userSpaceOnUse" id="clipPath24">
        <path d="M0 0 L73 0 L73 18 L0 18 L0 0 Z" />
      </clipPath>
      <clipPath clipPathUnits="userSpaceOnUse" id="clipPath25">
        <path d="M0 0 L61 0 L61 18 L0 18 L0 0 Z" />
      </clipPath>
      <clipPath clipPathUnits="userSpaceOnUse" id="clipPath26">
        <path d="M0 0 L97 0 L97 18 L0 18 L0 0 Z" />
      </clipPath>
      <clipPath clipPathUnits="userSpaceOnUse" id="clipPath27">
        <path d="M0 0 L84 0 L84 18 L0 18 L0 0 Z" />
      </clipPath>
      <clipPath clipPathUnits="userSpaceOnUse" id="clipPath28">
        <path d="M0 0 L49 0 L49 18 L0 18 L0 0 Z" />
      </clipPath>
      <clipPath clipPathUnits="userSpaceOnUse" id="clipPath29">
        <path d="M0 0 L114 0 L114 32 L0 32 L0 0 Z" />
      </clipPath>
      <clipPath clipPathUnits="userSpaceOnUse" id="clipPath30">
        <path d="M0 0 L111 0 L111 18 L0 18 L0 0 Z" />
      </clipPath>
      <clipPath clipPathUnits="userSpaceOnUse" id="clipPath31">
        <path d="M0 0 L174 0 L174 32 L0 32 L0 0 Z" />
      </clipPath>
      <clipPath clipPathUnits="userSpaceOnUse" id="clipPath32">
        <path d="M0 0 L104 0 L104 183 L0 183 L0 0 Z" />
      </clipPath>
      <clipPath clipPathUnits="userSpaceOnUse" id="clipPath33">
        <path d="M0 0 L104 0 L104 193 L0 193 L0 0 Z" />
      </clipPath>
      <clipPath clipPathUnits="userSpaceOnUse" id="clipPath34">
        <path d="M0 0 L203 0 L203 104 L0 104 L0 0 Z" />
      </clipPath>
      <clipPath clipPathUnits="userSpaceOnUse" id="clipPath35">
        <path d="M0 0 L104 0 L104 323 L0 323 L0 0 Z" />
      </clipPath>
      <clipPath clipPathUnits="userSpaceOnUse" id="clipPath36">
        <path d="M0 0 L184 0 L184 314 L0 314 L0 0 Z" />
      </clipPath>
      <clipPath clipPathUnits="userSpaceOnUse" id="clipPath37">
        <path d="M0 0 L323 0 L323 104 L0 104 L0 0 Z" />
      </clipPath>
      <clipPath clipPathUnits="userSpaceOnUse" id="clipPath38">
        <path d="M0 0 L193 0 L193 104 L0 104 L0 0 Z" />
      </clipPath>
      <clipPath clipPathUnits="userSpaceOnUse" id="clipPath39">
        <path d="M0 0 L104 0 L104 133 L0 133 L0 0 Z" />
      </clipPath>
      <clipPath clipPathUnits="userSpaceOnUse" id="clipPath40">
        <path d="M0 0 L173 0 L173 104 L0 104 L0 0 Z" />
      </clipPath>
      <clipPath clipPathUnits="userSpaceOnUse" id="clipPath41">
        <path d="M0 0 L174 0 L174 174 L0 174 L0 0 Z" />
      </clipPath>
      <clipPath clipPathUnits="userSpaceOnUse" id="clipPath42">
        <path d="M0 0 L104 0 L104 173 L0 173 L0 0 Z" />
      </clipPath>
    </defs>
    <g style="fill:white; text-rendering:optimizeLegibility; stroke:white;">
      <rect x="0" y="0" width="1096" style="stroke:none;" height="655" />
    </g>
    <g transform="translate(402,382)" style="font-size:11; fill:white; text-rendering:optimizeLegibility; font-family:sans-serif; stroke:white; font-weight:bold;">
      <rect x="0" y="0" width="90" style="clip-path:url(#clipPath1); stroke:none;" height="40" />
    </g>
    <g transform="translate(402,382)" style="stroke-linecap:butt; font-size:11; text-rendering:optimizeLegibility; stroke-linejoin:bevel; font-family:sans-serif; font-weight:bold; stroke-miterlimit:0;">
      <rect x="0" y="0" width="90" style="clip-path:url(#clipPath1); fill:none;" height="40" />
      <line x1="0" x2="90" y1="14" style="clip-path:url(#clipPath1); fill:none;" y2="14" />
    </g>
    <g transform="translate(602,122)" style="font-size:11; fill:white; text-rendering:optimizeLegibility; font-family:sans-serif; stroke:white; font-weight:bold;">
      <rect x="0" y="0" width="100" style="clip-path:url(#clipPath2); stroke:none;" height="40" />
    </g>
    <g transform="translate(602,122)" style="stroke-linecap:butt; font-size:11; text-rendering:optimizeLegibility; stroke-linejoin:bevel; font-family:sans-serif; font-weight:bold; stroke-miterlimit:0;">
      <rect x="0" y="0" width="100" style="clip-path:url(#clipPath2); fill:none;" height="40" />
      <line x1="0" x2="100" y1="14" style="clip-path:url(#clipPath2); fill:none;" y2="14" />
    </g>
    <g transform="translate(372,492)" style="font-size:11; fill:white; text-rendering:optimizeLegibility; font-family:sans-serif; stroke:white; font-weight:bold;">
      <rect x="0" y="0" width="140" style="clip-path:url(#clipPath3); stroke:none;" height="40" />
    </g>
    <g transform="translate(372,492)" style="stroke-linecap:butt; font-size:11; text-rendering:optimizeLegibility; stroke-linejoin:bevel; font-family:sans-serif; font-weight:bold; stroke-miterlimit:0;">
      <rect x="0" y="0" width="140" style="clip-path:url(#clipPath3); fill:none;" height="40" />
      <line x1="0" x2="140" y1="14" style="clip-path:url(#clipPath3); fill:none;" y2="14" />
    </g>
    <g transform="translate(382,602)" style="font-size:11; fill:white; text-rendering:optimizeLegibility; font-family:sans-serif; stroke:white; font-weight:bold;">
      <rect x="0" y="0" width="120" style="clip-path:url(#clipPath4); stroke:none;" height="40" />
    </g>
    <g transform="translate(382,602)" style="stroke-linecap:butt; font-size:11; text-rendering:optimizeLegibility; stroke-linejoin:bevel; font-family:sans-serif; font-weight:bold; stroke-miterlimit:0;">
      <rect x="0" y="0" width="120" style="clip-path:url(#clipPath4); fill:none;" height="40" />
      <line x1="0" x2="120" y1="14" style="clip-path:url(#clipPath4); fill:none;" y2="14" />
    </g>
    <g transform="translate(242,492)" style="font-size:11; fill:white; text-rendering:optimizeLegibility; font-family:sans-serif; stroke:white; font-weight:bold;">
      <rect x="0" y="0" width="90" style="clip-path:url(#clipPath1); stroke:none;" height="40" />
    </g>
    <g transform="translate(242,492)" style="stroke-linecap:butt; font-size:11; text-rendering:optimizeLegibility; stroke-linejoin:bevel; font-family:sans-serif; font-weight:bold; stroke-miterlimit:0;">
      <rect x="0" y="0" width="90" style="clip-path:url(#clipPath1); fill:none;" height="40" />
      <line x1="0" x2="90" y1="14" style="clip-path:url(#clipPath1); fill:none;" y2="14" />
    </g>
    <g transform="translate(362,102)" style="font-size:11; fill:white; text-rendering:optimizeLegibility; font-family:sans-serif; stroke:white; font-weight:bold;">
      <rect x="0" y="0" width="150" style="clip-path:url(#clipPath5); stroke:none;" height="70" />
    </g>
    <g transform="translate(362,102)" style="stroke-linecap:butt; font-size:11; text-rendering:optimizeLegibility; stroke-linejoin:bevel; font-family:sans-serif; font-weight:bold; stroke-miterlimit:0;">
      <rect x="0" y="0" width="150" style="clip-path:url(#clipPath5); fill:none;" height="70" />
      <line x1="0" x2="150" y1="14" style="clip-path:url(#clipPath5); fill:none;" y2="14" />
    </g>
    <g transform="translate(792,122)" style="font-size:11; fill:white; text-rendering:optimizeLegibility; font-family:sans-serif; stroke:white; font-weight:bold;">
      <rect x="0" y="0" width="140" style="clip-path:url(#clipPath3); stroke:none;" height="40" />
    </g>
    <g transform="translate(792,122)" style="stroke-linecap:butt; font-size:11; text-rendering:optimizeLegibility; stroke-linejoin:bevel; font-family:sans-serif; font-weight:bold; stroke-miterlimit:0;">
      <rect x="0" y="0" width="140" style="clip-path:url(#clipPath3); fill:none;" height="40" />
      <line x1="0" x2="140" y1="14" style="clip-path:url(#clipPath3); fill:none;" y2="14" />
    </g>
    <g transform="translate(1002,122)" style="font-size:11; fill:white; text-rendering:optimizeLegibility; font-family:sans-serif; stroke:white; font-weight:bold;">
      <rect x="0" y="0" width="90" style="clip-path:url(#clipPath1); stroke:none;" height="40" />
    </g>
    <g transform="translate(1002,122)" style="stroke-linecap:butt; font-size:11; text-rendering:optimizeLegibility; stroke-linejoin:bevel; font-family:sans-serif; font-weight:bold; stroke-miterlimit:0;">
      <rect x="0" y="0" width="90" style="clip-path:url(#clipPath1); fill:none;" height="40" />
      <line x1="0" x2="90" y1="14" style="clip-path:url(#clipPath1); fill:none;" y2="14" />
    </g>
    <g transform="translate(742,2)" style="font-size:11; fill:white; text-rendering:optimizeLegibility; font-family:sans-serif; stroke:white;">
      <polygon style="clip-path:url(#clipPath6); stroke:none;" points=" 0 0 254 0 269 15 254 15 254 0 269 15 269 89 0 89" />
    </g>
    <g transform="translate(742,2)" style="stroke-linecap:butt; font-size:11; text-rendering:optimizeLegibility; font-family:sans-serif; stroke-linejoin:bevel; stroke-miterlimit:0;">
      <polygon style="fill:none; clip-path:url(#clipPath6);" points=" 0 0 254 0 269 15 254 15 254 0 269 15 269 89 0 89" />
    </g>
    <g style="text-rendering:optimizeLegibility; font-family:sans-serif;" transform="translate(742,2)">
      <text x="3" y="15" style="clip-path:url(#clipPath7); stroke:none;" xml:space="preserve">Jeden sesame rdf container jest widokiem</text>
      <text x="3" y="30" style="clip-path:url(#clipPath7); stroke:none;" xml:space="preserve">na wszystkie trójki w repozytorium które</text>
      <text x="3" y="45" style="clip-path:url(#clipPath7); stroke:none;" xml:space="preserve">mają pierwszy element wspólny.</text>
      <text x="3" y="60" style="clip-path:url(#clipPath7); stroke:none;" xml:space="preserve">Z jego pomocą można też wstawiać</text>
      <text x="3" y="75" style="clip-path:url(#clipPath7); stroke:none;" xml:space="preserve">do repozytorium dowolne trójki</text>
    </g>
    <g transform="translate(2,342)" style="font-size:11; fill:white; text-rendering:optimizeLegibility; font-family:sans-serif; stroke:white;">
      <polygon style="clip-path:url(#clipPath8); stroke:none;" points=" 0 0 164 0 179 15 164 15 164 0 179 15 179 59 0 59" />
    </g>
    <g transform="translate(2,342)" style="stroke-linecap:butt; font-size:11; text-rendering:optimizeLegibility; font-family:sans-serif; stroke-linejoin:bevel; stroke-miterlimit:0;">
      <polygon style="fill:none; clip-path:url(#clipPath8);" points=" 0 0 164 0 179 15 164 15 164 0 179 15 179 59 0 59" />
    </g>
    <g style="text-rendering:optimizeLegibility; font-family:sans-serif;" transform="translate(2,342)">
      <text x="3" y="15" style="clip-path:url(#clipPath9); stroke:none;" xml:space="preserve">a crawler can generate the</text>
      <text x="3" y="30" style="clip-path:url(#clipPath9); stroke:none;" xml:space="preserve">data objects by itself</text>
      <text x="3" y="45" style="clip-path:url(#clipPath9); stroke:none;" xml:space="preserve">OR use an accessor</text>
    </g>
    <g transform="translate(592,382)" style="font-size:11; fill:white; text-rendering:optimizeLegibility; font-family:sans-serif; stroke:white; font-weight:bold;">
      <rect x="0" y="0" width="170" style="clip-path:url(#clipPath10); stroke:none;" height="100" />
    </g>
    <g transform="translate(592,382)" style="stroke-linecap:butt; font-size:11; text-rendering:optimizeLegibility; stroke-linejoin:bevel; font-family:sans-serif; font-weight:bold; stroke-miterlimit:0;">
      <rect x="0" y="0" width="170" style="clip-path:url(#clipPath10); fill:none;" height="100" />
      <line x1="0" x2="170" y1="28" style="clip-path:url(#clipPath10); fill:none;" y2="28" />
    </g>
    <g transform="translate(362,262)" style="font-size:11; fill:white; text-rendering:optimizeLegibility; font-family:sans-serif; stroke:white; font-weight:bold;">
      <rect x="0" y="0" width="110" style="clip-path:url(#clipPath11); stroke:none;" height="40" />
    </g>
    <g transform="translate(362,262)" style="stroke-linecap:butt; font-size:11; text-rendering:optimizeLegibility; stroke-linejoin:bevel; font-family:sans-serif; font-weight:bold; stroke-miterlimit:0;">
      <rect x="0" y="0" width="110" style="clip-path:url(#clipPath11); fill:none;" height="40" />
      <line x1="0" x2="110" y1="28" style="clip-path:url(#clipPath11); fill:none;" y2="28" />
    </g>
    <g style="text-rendering:optimizeLegibility; font-size:11; font-family:sans-serif;" transform="translate(362,116)">
      <text x="2" y="13" style="clip-path:url(#clipPath17); stroke:none;" xml:space="preserve">-id : URI</text>
      <text x="2" y="27" style="clip-path:url(#clipPath17); stroke:none;" xml:space="preserve">-dataSource : DataSource</text>
      <text x="2" y="41" style="clip-path:url(#clipPath17); stroke:none;" xml:space="preserve">-metadata : RDFContainer</text>
    </g>
    <g transform="translate(402,382)" style="text-rendering:optimizeLegibility; font-size:11; font-weight:bold; font-family:sans-serif;">
      <text x="11" y="11" style="clip-path:url(#clipPath19); stroke:none;" xml:space="preserve">CrawlerBase</text>
    </g>
    <g transform="translate(602,122)" style="text-rendering:optimizeLegibility; font-size:11; font-weight:bold; font-family:sans-serif;">
      <text x="11" y="11" style="clip-path:url(#clipPath20); stroke:none;" xml:space="preserve">RDFContainer</text>
    </g>
    <g transform="translate(372,492)" style="text-rendering:optimizeLegibility; font-size:11; font-weight:bold; font-family:sans-serif;">
      <text x="12" y="11" style="clip-path:url(#clipPath21); stroke:none;" xml:space="preserve">DataAccessorFactory</text>
    </g>
    <g transform="translate(382,602)" style="text-rendering:optimizeLegibility; font-size:11; font-weight:bold; font-family:sans-serif;">
      <text x="11" y="11" style="clip-path:url(#clipPath22); stroke:none;" xml:space="preserve">AccessorRegistry</text>
    </g>
    <g transform="translate(242,492)" style="text-rendering:optimizeLegibility; font-size:11; font-weight:bold; font-family:sans-serif;">
      <text x="13" y="11" style="clip-path:url(#clipPath19); stroke:none;" xml:space="preserve">IcalCrawler</text>
    </g>
    <g transform="translate(362,102)" style="text-rendering:optimizeLegibility; font-size:11; font-weight:bold; font-family:sans-serif;">
      <text x="32" y="11" style="clip-path:url(#clipPath23); stroke:none;" xml:space="preserve">DataObjectBase</text>
    </g>
    <g transform="translate(792,122)" style="text-rendering:optimizeLegibility; font-size:11; font-weight:bold; font-family:sans-serif;">
      <text x="11" y="11" style="clip-path:url(#clipPath21); stroke:none;" xml:space="preserve">SesameRDFContainer</text>
    </g>
    <g transform="translate(1002,122)" style="text-rendering:optimizeLegibility; font-size:11; font-weight:bold; font-family:sans-serif;">
      <text x="15" y="11" style="clip-path:url(#clipPath19); stroke:none;" xml:space="preserve">Repository</text>
    </g>
    <g style="text-rendering:optimizeLegibility; font-size:11; font-family:sans-serif;" transform="translate(531,142)">
      <text x="10" y="11" style="clip-path:url(#clipPath24); stroke:none;" xml:space="preserve">metadata</text>
    </g>
    <g style="text-rendering:optimizeLegibility; font-size:11; font-family:sans-serif;" transform="translate(515,402)">
      <text x="9" y="11" style="clip-path:url(#clipPath25); stroke:none;" xml:space="preserve">source</text>
    </g>
    <g style="text-rendering:optimizeLegibility; font-size:11; font-family:sans-serif;" transform="translate(611,251)">
      <text x="10" y="11" style="clip-path:url(#clipPath26); stroke:none;" xml:space="preserve">configuration</text>
    </g>
    <g style="text-rendering:optimizeLegibility; font-size:11; font-family:sans-serif;" transform="translate(521,292)">
      <text x="10" y="11" style="clip-path:url(#clipPath27); stroke:none;" xml:space="preserve">dataSource</text>
    </g>
    <g style="text-rendering:optimizeLegibility; font-size:11; font-family:sans-serif;" transform="translate(945,142)">
      <text x="10" y="11" style="clip-path:url(#clipPath28); stroke:none;" xml:space="preserve">uses</text>
    </g>
    <g style="text-rendering:optimizeLegibility; font-size:11; font-family:sans-serif;" transform="translate(362,262)">
      <text x="13" y="11" style="clip-path:url(#clipPath29); stroke:none;" xml:space="preserve">&lt;&lt;interface&gt;&gt;</text>
      <text x="24" y="25" style="clip-path:url(#clipPath29); stroke:none; font-weight:bold;" xml:space="preserve">DataObject</text>
    </g>
    <g style="text-rendering:optimizeLegibility; font-size:11; font-family:sans-serif;" transform="translate(441,550)">
      <text x="10" y="11" style="clip-path:url(#clipPath30); stroke:none;" xml:space="preserve">isRetrievedFrom</text>
    </g>
    <g style="text-rendering:optimizeLegibility; font-size:11; font-family:sans-serif;" transform="translate(592,382)">
      <text x="43" y="11" style="clip-path:url(#clipPath31); stroke:none;" xml:space="preserve">&lt;&lt;interface&gt;&gt;</text>
      <text x="54" y="25" style="clip-path:url(#clipPath31); stroke:none; font-weight:bold;" xml:space="preserve">DataSource</text>
    </g>
    <g transform="translate(367,252)" style="stroke-linecap:butt; font-size:11; fill-opacity:0.9961; fill:rgb(0,0,0); text-rendering:optimizeLegibility; stroke-linejoin:round; font-family:sans-serif; stroke:rgb(0,0,0); stroke-opacity:0.9961;">
      <line x1="50" x2="50" y1="129" style="clip-path:url(#clipPath32); fill:none;" y2="50" />
    </g>
    <g transform="translate(352,122)" style="stroke-linecap:butt; font-size:11; fill-opacity:0.9961; fill:rgb(0,0,0); text-rendering:optimizeLegibility; stroke-linejoin:round; font-family:sans-serif; stroke:rgb(0,0,0); stroke-opacity:0.9961;">
      <line x1="50" x2="50" y1="139" style="clip-path:url(#clipPath33); fill:none;" y2="50" />
    </g>
    <g transform="translate(352,122)" style="stroke-linecap:butt; font-size:11; fill:white; text-rendering:optimizeLegibility; font-family:sans-serif; stroke-linejoin:round; stroke:white;">
      <polygon style="clip-path:url(#clipPath33); stroke:none;" points=" 50 139 56 127 44 127" />
    </g>
    <g transform="translate(352,122)" style="stroke-linecap:butt; font-size:11; fill-opacity:0.9961; fill:rgb(0,0,0); text-rendering:optimizeLegibility; stroke-linejoin:round; font-family:sans-serif; stroke:rgb(0,0,0); stroke-opacity:0.9961;">
      <polygon style="fill:none; clip-path:url(#clipPath33);" points=" 50 139 56 127 44 127" />
    </g>
    <g transform="translate(442,352)" style="stroke-linecap:butt; font-size:11; fill-opacity:0.9961; fill:rgb(0,0,0); text-rendering:optimizeLegibility; stroke-linejoin:round; font-family:sans-serif; stroke:rgb(0,0,0); stroke-opacity:0.9961;">
      <line x1="74" x2="149" y1="50" style="clip-path:url(#clipPath34); fill:none;" y2="50" />
      <polygon style="clip-path:url(#clipPath34); stroke:none;" points=" 50 50 62 56 74 50 62 44" />
      <polygon style="fill:none; clip-path:url(#clipPath34);" points=" 50 50 62 56 74 50 62 44" />
    </g>
    <g transform="translate(602,112)" style="stroke-linecap:butt; font-size:11; fill-opacity:0.9961; fill:rgb(0,0,0); text-rendering:optimizeLegibility; stroke-linejoin:round; font-family:sans-serif; stroke:rgb(0,0,0); stroke-opacity:0.9961;">
      <line x1="50" x2="50" y1="245" style="clip-path:url(#clipPath35); fill:none;" y2="50" />
      <polygon style="clip-path:url(#clipPath35); stroke:none;" points=" 50 269 56 257 50 245 44 257" />
      <polygon style="fill:none; clip-path:url(#clipPath35);" points=" 50 269 56 257 50 245 44 257" />
    </g>
    <g transform="translate(462,122)" style="stroke-linecap:butt; font-size:11; fill-opacity:0.9961; fill:rgb(0,0,0); text-rendering:optimizeLegibility; stroke-linejoin:round; font-family:sans-serif; stroke:rgb(0,0,0); stroke-opacity:0.9961;">
      <line x1="58" x2="130" y1="72" style="clip-path:url(#clipPath36); fill:none;" y2="260" />
      <polygon style="clip-path:url(#clipPath36); stroke:none;" points=" 50 50 48 63 58 72 59 59" />
      <polygon style="fill:none; clip-path:url(#clipPath36);" points=" 50 50 48 63 58 72 59 59" />
    </g>
    <g style="stroke-linecap:butt; font-size:11; fill-opacity:0.9961; fill:rgb(0,0,0); text-rendering:optimizeLegibility; stroke-linejoin:round; font-family:sans-serif; stroke-dasharray:4; stroke:rgb(0,0,0); stroke-opacity:0.9961;" transform="translate(132,342)">
      <line x1="269" x2="50" y1="50" style="clip-path:url(#clipPath37); fill:none;" y2="50" />
    </g>
    <g transform="translate(462,92)" style="stroke-linecap:butt; font-size:11; fill-opacity:0.9961; fill:rgb(0,0,0); text-rendering:optimizeLegibility; stroke-linejoin:round; font-family:sans-serif; stroke:rgb(0,0,0); stroke-opacity:0.9961;">
      <line x1="74" x2="139" y1="50" style="clip-path:url(#clipPath38); fill:none;" y2="50" />
      <polygon style="clip-path:url(#clipPath38); stroke:none;" points=" 50 50 62 56 74 50 62 44" />
      <polygon style="fill:none; clip-path:url(#clipPath38);" points=" 50 50 62 56 74 50 62 44" />
    </g>
    <g style="stroke-linecap:butt; font-size:11; fill-opacity:0.9961; fill:rgb(0,0,0); text-rendering:optimizeLegibility; stroke-linejoin:round; font-family:sans-serif; stroke-dasharray:4; stroke:rgb(0,0,0); stroke-opacity:0.9961;" transform="translate(842,42)">
      <line x1="50" x2="50" y1="79" style="clip-path:url(#clipPath39); fill:none;" y2="50" />
    </g>
    <g transform="translate(882,92)" style="stroke-linecap:butt; font-size:11; fill-opacity:0.9961; fill:rgb(0,0,0); text-rendering:optimizeLegibility; stroke-linejoin:round; font-family:sans-serif; stroke:rgb(0,0,0); stroke-opacity:0.9961;">
      <line x1="50" x2="119" y1="50" style="clip-path:url(#clipPath40); fill:none;" y2="50" />
    </g>
    <g transform="translate(652,92)" style="stroke-linecap:butt; font-size:11; fill-opacity:0.9961; fill:rgb(0,0,0); text-rendering:optimizeLegibility; stroke-linejoin:round; font-family:sans-serif; stroke:rgb(0,0,0); stroke-opacity:0.9961;">
      <line x1="50" x2="139" y1="50" style="clip-path:url(#clipPath38); fill:none;" y2="50" />
    </g>
    <g transform="translate(652,92)" style="stroke-linecap:butt; font-size:11; fill:white; text-rendering:optimizeLegibility; font-family:sans-serif; stroke-linejoin:round; stroke:white;">
      <polygon style="clip-path:url(#clipPath38); stroke:none;" points=" 50 50 62 56 62 44" />
    </g>
    <g transform="translate(652,92)" style="stroke-linecap:butt; font-size:11; fill-opacity:0.9961; fill:rgb(0,0,0); text-rendering:optimizeLegibility; stroke-linejoin:round; font-family:sans-serif; stroke:rgb(0,0,0); stroke-opacity:0.9961;">
      <polygon style="fill:none; clip-path:url(#clipPath38);" points=" 50 50 62 56 62 44" />
    </g>
    <g transform="translate(282,372)" style="stroke-linecap:butt; font-size:11; fill-opacity:0.9961; fill:rgb(0,0,0); text-rendering:optimizeLegibility; stroke-linejoin:round; font-family:sans-serif; stroke:rgb(0,0,0); stroke-opacity:0.9961;">
      <line x1="120" x2="50" y1="50" style="clip-path:url(#clipPath41); fill:none;" y2="120" />
    </g>
    <g transform="translate(282,372)" style="stroke-linecap:butt; font-size:11; fill:white; text-rendering:optimizeLegibility; font-family:sans-serif; stroke-linejoin:round; stroke:white;">
      <polygon style="clip-path:url(#clipPath41); stroke:none;" points=" 120 50 107 53 116 62" />
    </g>
    <g transform="translate(282,372)" style="stroke-linecap:butt; font-size:11; fill-opacity:0.9961; fill:rgb(0,0,0); text-rendering:optimizeLegibility; stroke-linejoin:round; font-family:sans-serif; stroke:rgb(0,0,0); stroke-opacity:0.9961;">
      <polygon style="fill:none; clip-path:url(#clipPath41);" points=" 120 50 107 53 116 62" />
    </g>
    <g transform="translate(392,482)" style="stroke-linecap:butt; font-size:11; fill-opacity:0.9961; fill:rgb(0,0,0); text-rendering:optimizeLegibility; stroke-linejoin:round; font-family:sans-serif; stroke:rgb(0,0,0); stroke-opacity:0.9961;">
      <line x1="50" x2="50" y1="50" style="clip-path:url(#clipPath42); fill:none;" y2="119" />
    </g>
    <g transform="translate(392,372)" style="stroke-linecap:butt; font-size:11; fill-opacity:0.9961; fill:rgb(0,0,0); text-rendering:optimizeLegibility; stroke-linejoin:round; font-family:sans-serif; stroke:rgb(0,0,0); stroke-opacity:0.9961;">
      <line x1="50" x2="50" y1="74" style="clip-path:url(#clipPath42); fill:none;" y2="119" />
      <polygon style="clip-path:url(#clipPath42); stroke:none;" points=" 50 50 44 62 50 74 56 62" />
      <polygon style="fill:none; clip-path:url(#clipPath42);" points=" 50 50 44 62 50 74 56 62" />
    </g>
    <g style="fill:rgb(120,120,120); text-rendering:optimizeLegibility; font-size:8; stroke:rgb(120,120,120);">
      <text xml:space="preserve" x="0" y="10" style="stroke:none;"></text>
      <text xml:space="preserve" x="0" y="10" style="stroke:none;"></text>
    </g>
  </g>
</svg>
