<?xml version="1.0" encoding="UTF-8"?>

<!DOCTYPE svg PUBLIC '-//W3C//DTD SVG 1.0//EN' 'http://www.w3.org/TR/2001/REC-SVG-20010904/DTD/svg10.dtd'>
<svg style="fill-opacity:1; color-rendering:auto; color-interpolation:auto; text-rendering:auto; stroke:black; stroke-linecap:square; stroke-miterlimit:10; shape-rendering:auto; stroke-opacity:1; fill:black; stroke-dasharray:none; font-weight:normal; stroke-width:1; font-family:&apos;Dialog&apos;; font-style:normal; stroke-linejoin:miter; font-size:12; stroke-dashoffset:0; image-rendering:auto;" xmlns="http://www.w3.org/2000/svg" width="1006" xmlns:xlink="http://www.w3.org/1999/xlink" height="406">
  <!--Generated by the Batik Graphics2D SVG Generator-->
  <defs id="genericDefs" />
  <g>
    <defs id="defs1">
      <clipPath clipPathUnits="userSpaceOnUse" id="clipPath1">
        <path d="M-3 -3 L97 -3 L97 47 L-3 47 L-3 -3 Z" />
      </clipPath>
      <clipPath clipPathUnits="userSpaceOnUse" id="clipPath2">
        <path d="M-3 -3 L107 -3 L107 47 L-3 47 L-3 -3 Z" />
      </clipPath>
      <clipPath clipPathUnits="userSpaceOnUse" id="clipPath3">
        <path d="M-3 -3 L127 -3 L127 47 L-3 47 L-3 -3 Z" />
      </clipPath>
      <clipPath clipPathUnits="userSpaceOnUse" id="clipPath4">
        <path d="M-3 -3 L157 -3 L157 77 L-3 77 L-3 -3 Z" />
      </clipPath>
      <clipPath clipPathUnits="userSpaceOnUse" id="clipPath5">
        <path d="M-3 -3 L147 -3 L147 47 L-3 47 L-3 -3 Z" />
      </clipPath>
      <clipPath clipPathUnits="userSpaceOnUse" id="clipPath6">
        <path d="M-3 -3 L277 -3 L277 97 L-3 97 L-3 -3 Z" />
      </clipPath>
      <clipPath clipPathUnits="userSpaceOnUse" id="clipPath7">
        <path d="M0 0 L0 90 L270 90 L270 0 Z" />
      </clipPath>
      <clipPath clipPathUnits="userSpaceOnUse" id="clipPath8">
        <path d="M-3 -3 L187 -3 L187 67 L-3 67 L-3 -3 Z" />
      </clipPath>
      <clipPath clipPathUnits="userSpaceOnUse" id="clipPath9">
        <path d="M0 0 L0 60 L180 60 L180 0 Z" />
      </clipPath>
      <clipPath clipPathUnits="userSpaceOnUse" id="clipPath10">
        <path d="M-3 -3 L117 -3 L117 47 L-3 47 L-3 -3 Z" />
      </clipPath>
      <clipPath clipPathUnits="userSpaceOnUse" id="clipPath11">
        <path d="M-3 -3 L177 -3 L177 77 L-3 77 L-3 -3 Z" />
      </clipPath>
      <clipPath clipPathUnits="userSpaceOnUse" id="clipPath12">
        <path d="M0 0 L94 0 L94 30 L0 30 L0 0 Z" />
      </clipPath>
      <clipPath clipPathUnits="userSpaceOnUse" id="clipPath13">
        <path d="M0 0 L174 0 L174 46 L0 46 L0 0 Z" />
      </clipPath>
      <clipPath clipPathUnits="userSpaceOnUse" id="clipPath14">
        <path d="M0 0 L154 0 L154 60 L0 60 L0 0 Z" />
      </clipPath>
      <clipPath clipPathUnits="userSpaceOnUse" id="clipPath15">
        <path d="M0 0 L104 0 L104 30 L0 30 L0 0 Z" />
      </clipPath>
      <clipPath clipPathUnits="userSpaceOnUse" id="clipPath16">
        <path d="M0 0 L114 0 L114 16 L0 16 L0 0 Z" />
      </clipPath>
      <clipPath clipPathUnits="userSpaceOnUse" id="clipPath17">
        <path d="M0 0 L144 0 L144 30 L0 30 L0 0 Z" />
      </clipPath>
      <clipPath clipPathUnits="userSpaceOnUse" id="clipPath18">
        <path d="M0 0 L124 0 L124 30 L0 30 L0 0 Z" />
      </clipPath>
      <clipPath clipPathUnits="userSpaceOnUse" id="clipPath19">
        <path d="M0 0 L94 0 L94 18 L0 18 L0 0 Z" />
      </clipPath>
      <clipPath clipPathUnits="userSpaceOnUse" id="clipPath20">
        <path d="M0 0 L104 0 L104 18 L0 18 L0 0 Z" />
      </clipPath>
      <clipPath clipPathUnits="userSpaceOnUse" id="clipPath21">
        <path d="M0 0 L124 0 L124 18 L0 18 L0 0 Z" />
      </clipPath>
      <clipPath clipPathUnits="userSpaceOnUse" id="clipPath22">
        <path d="M0 0 L154 0 L154 18 L0 18 L0 0 Z" />
      </clipPath>
      <clipPath clipPathUnits="userSpaceOnUse" id="clipPath23">
        <path d="M0 0 L144 0 L144 18 L0 18 L0 0 Z" />
      </clipPath>
      <clipPath clipPathUnits="userSpaceOnUse" id="clipPath24">
        <path d="M0 0 L97 0 L97 18 L0 18 L0 0 Z" />
      </clipPath>
      <clipPath clipPathUnits="userSpaceOnUse" id="clipPath25">
        <path d="M0 0 L61 0 L61 18 L0 18 L0 0 Z" />
      </clipPath>
      <clipPath clipPathUnits="userSpaceOnUse" id="clipPath26">
        <path d="M0 0 L114 0 L114 32 L0 32 L0 0 Z" />
      </clipPath>
      <clipPath clipPathUnits="userSpaceOnUse" id="clipPath27">
        <path d="M0 0 L84 0 L84 18 L0 18 L0 0 Z" />
      </clipPath>
      <clipPath clipPathUnits="userSpaceOnUse" id="clipPath28">
        <path d="M0 0 L73 0 L73 18 L0 18 L0 0 Z" />
      </clipPath>
      <clipPath clipPathUnits="userSpaceOnUse" id="clipPath29">
        <path d="M0 0 L174 0 L174 32 L0 32 L0 0 Z" />
      </clipPath>
      <clipPath clipPathUnits="userSpaceOnUse" id="clipPath30">
        <path d="M0 0 L49 0 L49 18 L0 18 L0 0 Z" />
      </clipPath>
      <clipPath clipPathUnits="userSpaceOnUse" id="clipPath31">
        <path d="M0 0 L104 0 L104 133 L0 133 L0 0 Z" />
      </clipPath>
      <clipPath clipPathUnits="userSpaceOnUse" id="clipPath32">
        <path d="M0 0 L213 0 L213 104 L0 104 L0 0 Z" />
      </clipPath>
      <clipPath clipPathUnits="userSpaceOnUse" id="clipPath33">
        <path d="M0 0 L104 0 L104 223 L0 223 L0 0 Z" />
      </clipPath>
      <clipPath clipPathUnits="userSpaceOnUse" id="clipPath34">
        <path d="M0 0 L184 0 L184 204 L0 204 L0 0 Z" />
      </clipPath>
      <clipPath clipPathUnits="userSpaceOnUse" id="clipPath35">
        <path d="M0 0 L284 0 L284 104 L0 104 L0 0 Z" />
      </clipPath>
      <clipPath clipPathUnits="userSpaceOnUse" id="clipPath36">
        <path d="M0 0 L183 0 L183 104 L0 104 L0 0 Z" />
      </clipPath>
      <clipPath clipPathUnits="userSpaceOnUse" id="clipPath37">
        <path d="M0 0 L104 0 L104 123 L0 123 L0 0 Z" />
      </clipPath>
      <clipPath clipPathUnits="userSpaceOnUse" id="clipPath38">
        <path d="M0 0 L153 0 L153 104 L0 104 L0 0 Z" />
      </clipPath>
      <clipPath clipPathUnits="userSpaceOnUse" id="clipPath39">
        <path d="M0 0 L163 0 L163 104 L0 104 L0 0 Z" />
      </clipPath>
      <clipPath clipPathUnits="userSpaceOnUse" id="clipPath40">
        <path d="M0 0 L104 0 L104 143 L0 143 L0 0 Z" />
      </clipPath>
    </defs>
    <g style="fill:white; text-rendering:optimizeLegibility; stroke:white;">
      <rect x="0" y="0" width="1006" style="stroke:none;" height="406" />
    </g>
    <g transform="translate(362,192)" style="font-size:11; fill:white; text-rendering:optimizeLegibility; font-family:sans-serif; stroke:white; font-weight:bold;">
      <rect x="0" y="0" width="90" style="clip-path:url(#clipPath1); stroke:none;" height="40" />
    </g>
    <g transform="translate(362,192)" style="stroke-linecap:butt; font-size:11; text-rendering:optimizeLegibility; stroke-linejoin:bevel; font-family:sans-serif; font-weight:bold; stroke-miterlimit:0;">
      <rect x="0" y="0" width="90" style="clip-path:url(#clipPath1); fill:none;" height="40" />
      <line x1="0" x2="90" y1="14" style="clip-path:url(#clipPath1); fill:none;" y2="14" />
    </g>
    <g transform="translate(562,32)" style="font-size:11; fill:white; text-rendering:optimizeLegibility; font-family:sans-serif; stroke:white; font-weight:bold;">
      <rect x="0" y="0" width="100" style="clip-path:url(#clipPath2); stroke:none;" height="40" />
    </g>
    <g transform="translate(562,32)" style="stroke-linecap:butt; font-size:11; text-rendering:optimizeLegibility; stroke-linejoin:bevel; font-family:sans-serif; font-weight:bold; stroke-miterlimit:0;">
      <rect x="0" y="0" width="100" style="clip-path:url(#clipPath2); fill:none;" height="40" />
      <line x1="0" x2="100" y1="14" style="clip-path:url(#clipPath2); fill:none;" y2="14" />
    </g>
    <g transform="translate(332,332)" style="font-size:11; fill:white; text-rendering:optimizeLegibility; font-family:sans-serif; stroke:white; font-weight:bold;">
      <rect x="0" y="0" width="120" style="clip-path:url(#clipPath3); stroke:none;" height="40" />
    </g>
    <g transform="translate(332,332)" style="stroke-linecap:butt; font-size:11; text-rendering:optimizeLegibility; stroke-linejoin:bevel; font-family:sans-serif; font-weight:bold; stroke-miterlimit:0;">
      <rect x="0" y="0" width="120" style="clip-path:url(#clipPath3); fill:none;" height="40" />
      <line x1="0" x2="120" y1="14" style="clip-path:url(#clipPath3); fill:none;" y2="14" />
    </g>
    <g transform="translate(362,272)" style="font-size:11; fill:white; text-rendering:optimizeLegibility; font-family:sans-serif; stroke:white; font-weight:bold;">
      <rect x="0" y="0" width="90" style="clip-path:url(#clipPath1); stroke:none;" height="40" />
    </g>
    <g transform="translate(362,272)" style="stroke-linecap:butt; font-size:11; text-rendering:optimizeLegibility; stroke-linejoin:bevel; font-family:sans-serif; font-weight:bold; stroke-miterlimit:0;">
      <rect x="0" y="0" width="90" style="clip-path:url(#clipPath1); fill:none;" height="40" />
      <line x1="0" x2="90" y1="14" style="clip-path:url(#clipPath1); fill:none;" y2="14" />
    </g>
    <g transform="translate(332,22)" style="font-size:11; fill:white; text-rendering:optimizeLegibility; font-family:sans-serif; stroke:white; font-weight:bold;">
      <rect x="0" y="0" width="150" style="clip-path:url(#clipPath4); stroke:none;" height="70" />
    </g>
    <g transform="translate(332,22)" style="stroke-linecap:butt; font-size:11; text-rendering:optimizeLegibility; stroke-linejoin:bevel; font-family:sans-serif; font-weight:bold; stroke-miterlimit:0;">
      <rect x="0" y="0" width="150" style="clip-path:url(#clipPath4); fill:none;" height="70" />
      <line x1="0" x2="150" y1="14" style="clip-path:url(#clipPath4); fill:none;" y2="14" />
    </g>
    <g transform="translate(722,32)" style="font-size:11; fill:white; text-rendering:optimizeLegibility; font-family:sans-serif; stroke:white; font-weight:bold;">
      <rect x="0" y="0" width="140" style="clip-path:url(#clipPath5); stroke:none;" height="40" />
    </g>
    <g transform="translate(722,32)" style="stroke-linecap:butt; font-size:11; text-rendering:optimizeLegibility; stroke-linejoin:bevel; font-family:sans-serif; font-weight:bold; stroke-miterlimit:0;">
      <rect x="0" y="0" width="140" style="clip-path:url(#clipPath5); fill:none;" height="40" />
      <line x1="0" x2="140" y1="14" style="clip-path:url(#clipPath5); fill:none;" y2="14" />
    </g>
    <g transform="translate(912,32)" style="font-size:11; fill:white; text-rendering:optimizeLegibility; font-family:sans-serif; stroke:white; font-weight:bold;">
      <rect x="0" y="0" width="90" style="clip-path:url(#clipPath1); stroke:none;" height="40" />
    </g>
    <g transform="translate(912,32)" style="stroke-linecap:butt; font-size:11; text-rendering:optimizeLegibility; stroke-linejoin:bevel; font-family:sans-serif; font-weight:bold; stroke-miterlimit:0;">
      <rect x="0" y="0" width="90" style="clip-path:url(#clipPath1); fill:none;" height="40" />
      <line x1="0" x2="90" y1="14" style="clip-path:url(#clipPath1); fill:none;" y2="14" />
    </g>
    <g transform="translate(692,92)" style="font-size:11; fill:white; text-rendering:optimizeLegibility; font-family:sans-serif; stroke:white;">
      <polygon style="clip-path:url(#clipPath6); stroke:none;" points=" 0 0 254 0 269 15 254 15 254 0 269 15 269 89 0 89" />
    </g>
    <g transform="translate(692,92)" style="stroke-linecap:butt; font-size:11; text-rendering:optimizeLegibility; font-family:sans-serif; stroke-linejoin:bevel; stroke-miterlimit:0;">
      <polygon style="fill:none; clip-path:url(#clipPath6);" points=" 0 0 254 0 269 15 254 15 254 0 269 15 269 89 0 89" />
    </g>
    <g style="text-rendering:optimizeLegibility; font-family:sans-serif;" transform="translate(692,92)">
      <text x="3" y="15" style="clip-path:url(#clipPath7); stroke:none;" xml:space="preserve">Jeden sesame rdf container jest widokiem</text>
      <text x="3" y="30" style="clip-path:url(#clipPath7); stroke:none;" xml:space="preserve">na wszystkie trójki w repozytorium które</text>
      <text x="3" y="45" style="clip-path:url(#clipPath7); stroke:none;" xml:space="preserve">mają pierwszy element wspólny.</text>
      <text x="3" y="60" style="clip-path:url(#clipPath7); stroke:none;" xml:space="preserve">Z jego pomocą można też wstawiać</text>
      <text x="3" y="75" style="clip-path:url(#clipPath7); stroke:none;" xml:space="preserve">do repozytorium dowolne trójki</text>
    </g>
    <g transform="translate(2,202)" style="font-size:11; fill:white; text-rendering:optimizeLegibility; font-family:sans-serif; stroke:white;">
      <polygon style="clip-path:url(#clipPath8); stroke:none;" points=" 0 0 164 0 179 15 164 15 164 0 179 15 179 59 0 59" />
    </g>
    <g transform="translate(2,202)" style="stroke-linecap:butt; font-size:11; text-rendering:optimizeLegibility; font-family:sans-serif; stroke-linejoin:bevel; stroke-miterlimit:0;">
      <polygon style="fill:none; clip-path:url(#clipPath8);" points=" 0 0 164 0 179 15 164 15 164 0 179 15 179 59 0 59" />
    </g>
    <g style="text-rendering:optimizeLegibility; font-family:sans-serif;" transform="translate(2,202)">
      <text x="3" y="15" style="clip-path:url(#clipPath9); stroke:none;" xml:space="preserve">a crawler can generate the</text>
      <text x="3" y="30" style="clip-path:url(#clipPath9); stroke:none;" xml:space="preserve">data objects by itself</text>
      <text x="3" y="45" style="clip-path:url(#clipPath9); stroke:none;" xml:space="preserve">OR use an accessor</text>
    </g>
    <g transform="translate(562,192)" style="font-size:11; fill:white; text-rendering:optimizeLegibility; font-family:sans-serif; stroke:white; font-weight:bold;">
      <rect x="0" y="0" width="110" style="clip-path:url(#clipPath10); stroke:none;" height="40" />
    </g>
    <g transform="translate(562,192)" style="stroke-linecap:butt; font-size:11; text-rendering:optimizeLegibility; stroke-linejoin:bevel; font-family:sans-serif; font-weight:bold; stroke-miterlimit:0;">
      <rect x="0" y="0" width="110" style="clip-path:url(#clipPath10); fill:none;" height="40" />
      <line x1="0" x2="110" y1="28" style="clip-path:url(#clipPath10); fill:none;" y2="28" />
    </g>
    <g transform="translate(352,122)" style="font-size:11; fill:white; text-rendering:optimizeLegibility; font-family:sans-serif; stroke:white; font-weight:bold;">
      <rect x="0" y="0" width="110" style="clip-path:url(#clipPath10); stroke:none;" height="40" />
    </g>
    <g transform="translate(352,122)" style="stroke-linecap:butt; font-size:11; text-rendering:optimizeLegibility; stroke-linejoin:bevel; font-family:sans-serif; font-weight:bold; stroke-miterlimit:0;">
      <rect x="0" y="0" width="110" style="clip-path:url(#clipPath10); fill:none;" height="40" />
      <line x1="0" x2="110" y1="28" style="clip-path:url(#clipPath10); fill:none;" y2="28" />
    </g>
    <g transform="translate(492,332)" style="font-size:11; fill:white; text-rendering:optimizeLegibility; font-family:sans-serif; stroke:white; font-weight:bold;">
      <rect x="0" y="0" width="170" style="clip-path:url(#clipPath11); stroke:none;" height="70" />
    </g>
    <g transform="translate(492,332)" style="stroke-linecap:butt; font-size:11; text-rendering:optimizeLegibility; stroke-linejoin:bevel; font-family:sans-serif; font-weight:bold; stroke-miterlimit:0;">
      <rect x="0" y="0" width="170" style="clip-path:url(#clipPath11); fill:none;" height="70" />
      <line x1="0" x2="170" y1="28" style="clip-path:url(#clipPath11); fill:none;" y2="28" />
    </g>
    <g transform="translate(362,206)" style="font-style:italic; text-rendering:optimizeLegibility; font-size:11; font-family:sans-serif;">
      <text x="2" y="13" style="clip-path:url(#clipPath12); stroke:none;" xml:space="preserve">#crawlObjects()</text>
    </g>
    <g style="text-rendering:optimizeLegibility; font-size:11; font-family:sans-serif;" transform="translate(492,360)">
      <text x="2" y="13" style="clip-path:url(#clipPath13); stroke:none;" xml:space="preserve">+getSupportedSchemes() : Set</text>
      <text x="2" y="27" style="clip-path:url(#clipPath13); stroke:none;" xml:space="preserve">+get() : DataAccessor</text>
    </g>
    <g style="text-rendering:optimizeLegibility; font-size:11; font-family:sans-serif;" transform="translate(332,36)">
      <text x="2" y="13" style="clip-path:url(#clipPath14); stroke:none;" xml:space="preserve">-id : URI</text>
      <text x="2" y="27" style="clip-path:url(#clipPath14); stroke:none;" xml:space="preserve">-dataSource : DataSource</text>
      <text x="2" y="41" style="clip-path:url(#clipPath14); stroke:none;" xml:space="preserve">-metadata : RDFContainer</text>
    </g>
    <g transform="translate(362,192)" style="text-rendering:optimizeLegibility; font-size:11; font-weight:bold; font-family:sans-serif;">
      <text x="11" y="11" style="clip-path:url(#clipPath19); stroke:none;" xml:space="preserve">CrawlerBase</text>
    </g>
    <g transform="translate(562,32)" style="text-rendering:optimizeLegibility; font-size:11; font-weight:bold; font-family:sans-serif;">
      <text x="11" y="11" style="clip-path:url(#clipPath20); stroke:none;" xml:space="preserve">RDFContainer</text>
    </g>
    <g transform="translate(332,332)" style="text-rendering:optimizeLegibility; font-size:11; font-weight:bold; font-family:sans-serif;">
      <text x="11" y="11" style="clip-path:url(#clipPath21); stroke:none;" xml:space="preserve">AccessorRegistry</text>
    </g>
    <g transform="translate(362,272)" style="text-rendering:optimizeLegibility; font-size:11; font-weight:bold; font-family:sans-serif;">
      <text x="13" y="11" style="clip-path:url(#clipPath19); stroke:none;" xml:space="preserve">IcalCrawler</text>
    </g>
    <g transform="translate(332,22)" style="text-rendering:optimizeLegibility; font-size:11; font-weight:bold; font-family:sans-serif;">
      <text x="32" y="11" style="clip-path:url(#clipPath22); stroke:none;" xml:space="preserve">DataObjectBase</text>
    </g>
    <g transform="translate(722,32)" style="text-rendering:optimizeLegibility; font-size:11; font-weight:bold; font-family:sans-serif;">
      <text x="11" y="11" style="clip-path:url(#clipPath23); stroke:none;" xml:space="preserve">SesameRDFContainer</text>
    </g>
    <g transform="translate(912,32)" style="text-rendering:optimizeLegibility; font-size:11; font-weight:bold; font-family:sans-serif;">
      <text x="15" y="11" style="clip-path:url(#clipPath19); stroke:none;" xml:space="preserve">Repository</text>
    </g>
    <g style="text-rendering:optimizeLegibility; font-size:11; font-family:sans-serif;" transform="translate(571,108)">
      <text x="10" y="11" style="clip-path:url(#clipPath24); stroke:none;" xml:space="preserve">configuration</text>
    </g>
    <g style="text-rendering:optimizeLegibility; font-size:11; font-family:sans-serif;" transform="translate(477,212)">
      <text x="9" y="11" style="clip-path:url(#clipPath25); stroke:none;" xml:space="preserve">source</text>
    </g>
    <g style="text-rendering:optimizeLegibility; font-size:11; font-family:sans-serif;" transform="translate(562,192)">
      <text x="13" y="11" style="clip-path:url(#clipPath26); stroke:none;" xml:space="preserve">&lt;&lt;interface&gt;&gt;</text>
      <text x="24" y="25" style="clip-path:url(#clipPath26); stroke:none; font-weight:bold;" xml:space="preserve">DataSource</text>
    </g>
    <g style="text-rendering:optimizeLegibility; font-size:11; font-family:sans-serif;" transform="translate(491,157)">
      <text x="10" y="11" style="clip-path:url(#clipPath27); stroke:none;" xml:space="preserve">dataSource</text>
    </g>
    <g style="text-rendering:optimizeLegibility; font-size:11; font-family:sans-serif;" transform="translate(352,122)">
      <text x="13" y="11" style="clip-path:url(#clipPath26); stroke:none;" xml:space="preserve">&lt;&lt;interface&gt;&gt;</text>
      <text x="24" y="25" style="clip-path:url(#clipPath26); stroke:none; font-weight:bold;" xml:space="preserve">DataObject</text>
    </g>
    <g style="text-rendering:optimizeLegibility; font-size:11; font-family:sans-serif;" transform="translate(493,52)">
      <text x="10" y="11" style="clip-path:url(#clipPath28); stroke:none;" xml:space="preserve">metadata</text>
    </g>
    <g style="text-rendering:optimizeLegibility; font-size:11; font-family:sans-serif;" transform="translate(492,332)">
      <text x="43" y="11" style="clip-path:url(#clipPath29); stroke:none;" xml:space="preserve">&lt;&lt;interface&gt;&gt;</text>
      <text x="27" y="25" style="clip-path:url(#clipPath29); stroke:none; font-weight:bold;" xml:space="preserve">DataAccessorFactory</text>
    </g>
    <g style="text-rendering:optimizeLegibility; font-size:11; font-family:sans-serif;" transform="translate(862,52)">
      <text x="10" y="11" style="clip-path:url(#clipPath30); stroke:none;" xml:space="preserve">uses</text>
    </g>
    <g transform="translate(362,112)" style="stroke-linecap:butt; font-size:11; fill-opacity:0.9961; fill:rgb(0,0,0); text-rendering:optimizeLegibility; stroke-linejoin:round; font-family:sans-serif; stroke:rgb(0,0,0); stroke-opacity:0.9961;">
      <line x1="50" x2="50" y1="79" style="clip-path:url(#clipPath31); fill:none;" y2="50" />
    </g>
    <g transform="translate(362,42)" style="stroke-linecap:butt; font-size:11; fill-opacity:0.9961; fill:rgb(0,0,0); text-rendering:optimizeLegibility; stroke-linejoin:round; font-family:sans-serif; stroke:rgb(0,0,0); stroke-opacity:0.9961;">
      <line x1="50" x2="50" y1="79" style="clip-path:url(#clipPath31); fill:none;" y2="50" />
    </g>
    <g transform="translate(362,42)" style="stroke-linecap:butt; font-size:11; fill:white; text-rendering:optimizeLegibility; font-family:sans-serif; stroke-linejoin:round; stroke:white;">
      <polygon style="clip-path:url(#clipPath31); stroke:none;" points=" 50 79 56 67 44 67" />
    </g>
    <g transform="translate(362,42)" style="stroke-linecap:butt; font-size:11; fill-opacity:0.9961; fill:rgb(0,0,0); text-rendering:optimizeLegibility; stroke-linejoin:round; font-family:sans-serif; stroke:rgb(0,0,0); stroke-opacity:0.9961;">
      <polygon style="fill:none; clip-path:url(#clipPath31);" points=" 50 79 56 67 44 67" />
    </g>
    <g transform="translate(402,162)" style="stroke-linecap:butt; font-size:11; fill-opacity:0.9961; fill:rgb(0,0,0); text-rendering:optimizeLegibility; stroke-linejoin:round; font-family:sans-serif; stroke:rgb(0,0,0); stroke-opacity:0.9961;">
      <line x1="74" x2="159" y1="50" style="clip-path:url(#clipPath32); fill:none;" y2="50" />
      <polygon style="clip-path:url(#clipPath32); stroke:none;" points=" 50 50 62 56 74 50 62 44" />
      <polygon style="fill:none; clip-path:url(#clipPath32);" points=" 50 50 62 56 74 50 62 44" />
    </g>
    <g transform="translate(562,22)" style="stroke-linecap:butt; font-size:11; fill-opacity:0.9961; fill:rgb(0,0,0); text-rendering:optimizeLegibility; stroke-linejoin:round; font-family:sans-serif; stroke:rgb(0,0,0); stroke-opacity:0.9961;">
      <line x1="50" x2="50" y1="145" style="clip-path:url(#clipPath33); fill:none;" y2="50" />
      <polygon style="clip-path:url(#clipPath33); stroke:none;" points=" 50 169 56 157 50 145 44 157" />
      <polygon style="fill:none; clip-path:url(#clipPath33);" points=" 50 169 56 157 50 145 44 157" />
    </g>
    <g transform="translate(432,42)" style="stroke-linecap:butt; font-size:11; fill-opacity:0.9961; fill:rgb(0,0,0); text-rendering:optimizeLegibility; stroke-linejoin:round; font-family:sans-serif; stroke:rgb(0,0,0); stroke-opacity:0.9961;">
      <line x1="65" x2="130" y1="68" style="clip-path:url(#clipPath34); fill:none;" y2="150" />
      <polygon style="clip-path:url(#clipPath34); stroke:none;" points=" 50 50 52 62 65 68 62 55" />
      <polygon style="fill:none; clip-path:url(#clipPath34);" points=" 50 50 52 62 65 68 62 55" />
    </g>
    <g style="stroke-linecap:butt; font-size:11; fill-opacity:0.9961; fill:rgb(0,0,0); text-rendering:optimizeLegibility; stroke-linejoin:round; font-family:sans-serif; stroke-dasharray:4; stroke:rgb(0,0,0); stroke-opacity:0.9961;" transform="translate(132,182)">
      <line x1="230" x2="50" y1="50" style="clip-path:url(#clipPath35); fill:none;" y2="50" />
    </g>
    <g transform="translate(432,2)" style="stroke-linecap:butt; font-size:11; fill-opacity:0.9961; fill:rgb(0,0,0); text-rendering:optimizeLegibility; stroke-linejoin:round; font-family:sans-serif; stroke:rgb(0,0,0); stroke-opacity:0.9961;">
      <line x1="74" x2="129" y1="50" style="clip-path:url(#clipPath36); fill:none;" y2="50" />
      <polygon style="clip-path:url(#clipPath36); stroke:none;" points=" 50 50 62 56 74 50 62 44" />
      <polygon style="fill:none; clip-path:url(#clipPath36);" points=" 50 50 62 56 74 50 62 44" />
    </g>
    <g style="stroke-linecap:butt; font-size:11; fill-opacity:0.9961; fill:rgb(0,0,0); text-rendering:optimizeLegibility; stroke-linejoin:round; font-family:sans-serif; stroke-dasharray:4; stroke:rgb(0,0,0); stroke-opacity:0.9961;" transform="translate(752,22)">
      <line x1="50" x2="50" y1="50" style="clip-path:url(#clipPath37); fill:none;" y2="69" />
    </g>
    <g transform="translate(812,2)" style="stroke-linecap:butt; font-size:11; fill-opacity:0.9961; fill:rgb(0,0,0); text-rendering:optimizeLegibility; stroke-linejoin:round; font-family:sans-serif; stroke:rgb(0,0,0); stroke-opacity:0.9961;">
      <line x1="50" x2="99" y1="50" style="clip-path:url(#clipPath38); fill:none;" y2="50" />
    </g>
    <g transform="translate(612,2)" style="stroke-linecap:butt; font-size:11; fill-opacity:0.9961; fill:rgb(0,0,0); text-rendering:optimizeLegibility; stroke-linejoin:round; font-family:sans-serif; stroke:rgb(0,0,0); stroke-opacity:0.9961;">
      <line x1="50" x2="109" y1="50" style="clip-path:url(#clipPath39); fill:none;" y2="50" />
    </g>
    <g transform="translate(612,2)" style="stroke-linecap:butt; font-size:11; fill:white; text-rendering:optimizeLegibility; font-family:sans-serif; stroke-linejoin:round; stroke:white;">
      <polygon style="clip-path:url(#clipPath39); stroke:none;" points=" 50 50 62 56 62 44" />
    </g>
    <g transform="translate(612,2)" style="stroke-linecap:butt; font-size:11; fill-opacity:0.9961; fill:rgb(0,0,0); text-rendering:optimizeLegibility; stroke-linejoin:round; font-family:sans-serif; stroke:rgb(0,0,0); stroke-opacity:0.9961;">
      <polygon style="fill:none; clip-path:url(#clipPath39);" points=" 50 50 62 56 62 44" />
    </g>
    <g transform="translate(352,182)" style="stroke-linecap:butt; font-size:11; fill-opacity:0.9961; fill:rgb(0,0,0); text-rendering:optimizeLegibility; stroke-linejoin:round; font-family:sans-serif; stroke:rgb(0,0,0); stroke-opacity:0.9961;">
      <line x1="50" x2="50" y1="50" style="clip-path:url(#clipPath40); fill:none;" y2="89" />
    </g>
    <g transform="translate(352,182)" style="stroke-linecap:butt; font-size:11; fill:white; text-rendering:optimizeLegibility; font-family:sans-serif; stroke-linejoin:round; stroke:white;">
      <polygon style="clip-path:url(#clipPath40); stroke:none;" points=" 50 50 44 62 56 62" />
    </g>
    <g transform="translate(352,182)" style="stroke-linecap:butt; font-size:11; fill-opacity:0.9961; fill:rgb(0,0,0); text-rendering:optimizeLegibility; stroke-linejoin:round; font-family:sans-serif; stroke:rgb(0,0,0); stroke-opacity:0.9961;">
      <polygon style="fill:none; clip-path:url(#clipPath40);" points=" 50 50 44 62 56 62" />
    </g>
    <g style="fill:rgb(120,120,120); text-rendering:optimizeLegibility; font-size:8; stroke:rgb(120,120,120);">
      <text xml:space="preserve" x="0" y="10" style="stroke:none;"></text>
      <text xml:space="preserve" x="0" y="10" style="stroke:none;"></text>
    </g>
  </g>
</svg>
