<?xml version="1.0" encoding="UTF-8"?>

<!DOCTYPE svg PUBLIC '-//W3C//DTD SVG 1.0//EN' 'http://www.w3.org/TR/2001/REC-SVG-20010904/DTD/svg10.dtd'>
<svg style="fill-opacity:1; color-rendering:auto; color-interpolation:auto; text-rendering:auto; stroke:black; stroke-linecap:square; stroke-miterlimit:10; shape-rendering:auto; stroke-opacity:1; fill:black; stroke-dasharray:none; font-weight:normal; stroke-width:1; font-family:&apos;Dialog&apos;; font-style:normal; stroke-linejoin:miter; font-size:12; stroke-dashoffset:0; image-rendering:auto;" xmlns="http://www.w3.org/2000/svg" width="536" xmlns:xlink="http://www.w3.org/1999/xlink" height="296">
  <!--Generated by the Batik Graphics2D SVG Generator-->
  <defs id="genericDefs" />
  <g>
    <defs id="defs1">
      <clipPath clipPathUnits="userSpaceOnUse" id="clipPath1">
        <path d="M-3 -3 L277 -3 L277 47 L-3 47 L-3 -3 Z" />
      </clipPath>
      <clipPath clipPathUnits="userSpaceOnUse" id="clipPath2">
        <path d="M-3 -3 L277 -3 L277 127 L-3 127 L-3 -3 Z" />
      </clipPath>
      <clipPath clipPathUnits="userSpaceOnUse" id="clipPath3">
        <path d="M-3 -3 L177 -3 L177 47 L-3 47 L-3 -3 Z" />
      </clipPath>
      <clipPath clipPathUnits="userSpaceOnUse" id="clipPath4">
        <path d="M-3 -3 L147 -3 L147 47 L-3 47 L-3 -3 Z" />
      </clipPath>
      <clipPath clipPathUnits="userSpaceOnUse" id="clipPath5">
        <path d="M-3 -3 L187 -3 L187 47 L-3 47 L-3 -3 Z" />
      </clipPath>
      <clipPath clipPathUnits="userSpaceOnUse" id="clipPath6">
        <path d="M-3 -3 L207 -3 L207 47 L-3 47 L-3 -3 Z" />
      </clipPath>
      <clipPath clipPathUnits="userSpaceOnUse" id="clipPath7">
        <path d="M0 0 L174 0 L174 30 L0 30 L0 0 Z" />
      </clipPath>
      <clipPath clipPathUnits="userSpaceOnUse" id="clipPath8">
        <path d="M0 0 L204 0 L204 30 L0 30 L0 0 Z" />
      </clipPath>
      <clipPath clipPathUnits="userSpaceOnUse" id="clipPath9">
        <path d="M0 0 L274 0 L274 30 L0 30 L0 0 Z" />
      </clipPath>
      <clipPath clipPathUnits="userSpaceOnUse" id="clipPath10">
        <path d="M0 0 L184 0 L184 30 L0 30 L0 0 Z" />
      </clipPath>
      <clipPath clipPathUnits="userSpaceOnUse" id="clipPath11">
        <path d="M0 0 L144 0 L144 30 L0 30 L0 0 Z" />
      </clipPath>
      <clipPath clipPathUnits="userSpaceOnUse" id="clipPath12">
        <path d="M0 0 L274 0 L274 96 L0 96 L0 0 Z" />
      </clipPath>
      <clipPath clipPathUnits="userSpaceOnUse" id="clipPath13">
        <path d="M0 0 L274 0 L274 18 L0 18 L0 0 Z" />
      </clipPath>
      <clipPath clipPathUnits="userSpaceOnUse" id="clipPath14">
        <path d="M0 0 L274 0 L274 32 L0 32 L0 0 Z" />
      </clipPath>
      <clipPath clipPathUnits="userSpaceOnUse" id="clipPath15">
        <path d="M0 0 L174 0 L174 18 L0 18 L0 0 Z" />
      </clipPath>
      <clipPath clipPathUnits="userSpaceOnUse" id="clipPath16">
        <path d="M0 0 L144 0 L144 18 L0 18 L0 0 Z" />
      </clipPath>
      <clipPath clipPathUnits="userSpaceOnUse" id="clipPath17">
        <path d="M0 0 L184 0 L184 18 L0 18 L0 0 Z" />
      </clipPath>
      <clipPath clipPathUnits="userSpaceOnUse" id="clipPath18">
        <path d="M0 0 L204 0 L204 18 L0 18 L0 0 Z" />
      </clipPath>
      <clipPath clipPathUnits="userSpaceOnUse" id="clipPath19">
        <path d="M0 0 L49 0 L49 18 L0 18 L0 0 Z" />
      </clipPath>
      <clipPath clipPathUnits="userSpaceOnUse" id="clipPath20">
        <path d="M0 0 L163 0 L163 104 L0 104 L0 0 Z" />
      </clipPath>
      <clipPath clipPathUnits="userSpaceOnUse" id="clipPath21">
        <path d="M0 0 L184 0 L184 164 L0 164 L0 0 Z" />
      </clipPath>
      <clipPath clipPathUnits="userSpaceOnUse" id="clipPath22">
        <path d="M0 0 L104 0 L104 133 L0 133 L0 0 Z" />
      </clipPath>
      <clipPath clipPathUnits="userSpaceOnUse" id="clipPath23">
        <path d="M0 0 L104 0 L104 143 L0 143 L0 0 Z" />
      </clipPath>
    </defs>
    <g style="fill:white; text-rendering:optimizeLegibility; stroke:white;">
      <rect x="0" y="0" width="536" style="stroke:none;" height="296" />
    </g>
    <g transform="translate(2,12)" style="font-size:11; fill:white; text-rendering:optimizeLegibility; font-family:sans-serif; stroke:white; font-weight:bold;">
      <rect x="0" y="0" width="270" style="clip-path:url(#clipPath1); stroke:none;" height="40" />
    </g>
    <g transform="translate(2,12)" style="stroke-linecap:butt; font-size:11; text-rendering:optimizeLegibility; stroke-linejoin:bevel; font-family:sans-serif; font-weight:bold; stroke-miterlimit:0;">
      <rect x="0" y="0" width="270" style="clip-path:url(#clipPath1); fill:none;" height="40" />
      <line x1="0" x2="270" y1="14" style="clip-path:url(#clipPath1); fill:none;" y2="14" />
    </g>
    <g transform="translate(2,92)" style="font-size:11; fill:white; text-rendering:optimizeLegibility; font-family:sans-serif; stroke:white; font-weight:bold;">
      <rect x="0" y="0" width="270" style="clip-path:url(#clipPath2); stroke:none;" height="120" />
    </g>
    <g transform="translate(2,92)" style="stroke-linecap:butt; font-size:11; text-rendering:optimizeLegibility; stroke-linejoin:bevel; font-family:sans-serif; font-weight:bold; stroke-miterlimit:0;">
      <rect x="0" y="0" width="270" style="clip-path:url(#clipPath2); fill:none;" height="120" />
      <line x1="0" x2="270" y1="28" style="clip-path:url(#clipPath2); fill:none;" y2="28" />
    </g>
    <g transform="translate(2,242)" style="font-size:11; fill:white; text-rendering:optimizeLegibility; font-family:sans-serif; stroke:white; font-weight:bold;">
      <rect x="0" y="0" width="170" style="clip-path:url(#clipPath3); stroke:none;" height="40" />
    </g>
    <g transform="translate(2,242)" style="stroke-linecap:butt; font-size:11; text-rendering:optimizeLegibility; stroke-linejoin:bevel; font-family:sans-serif; font-weight:bold; stroke-miterlimit:0;">
      <rect x="0" y="0" width="170" style="clip-path:url(#clipPath3); fill:none;" height="40" />
      <line x1="0" x2="170" y1="14" style="clip-path:url(#clipPath3); fill:none;" y2="14" />
    </g>
    <g transform="translate(192,242)" style="font-size:11; fill:white; text-rendering:optimizeLegibility; font-family:sans-serif; stroke:white; font-weight:bold;">
      <rect x="0" y="0" width="140" style="clip-path:url(#clipPath4); stroke:none;" height="40" />
    </g>
    <g transform="translate(192,242)" style="stroke-linecap:butt; font-size:11; text-rendering:optimizeLegibility; stroke-linejoin:bevel; font-family:sans-serif; font-weight:bold; stroke-miterlimit:0;">
      <rect x="0" y="0" width="140" style="clip-path:url(#clipPath4); fill:none;" height="40" />
      <line x1="0" x2="140" y1="14" style="clip-path:url(#clipPath4); fill:none;" y2="14" />
    </g>
    <g transform="translate(352,242)" style="font-size:11; fill:white; text-rendering:optimizeLegibility; font-family:sans-serif; stroke:white; font-weight:bold;">
      <rect x="0" y="0" width="180" style="clip-path:url(#clipPath5); stroke:none;" height="40" />
    </g>
    <g transform="translate(352,242)" style="stroke-linecap:butt; font-size:11; text-rendering:optimizeLegibility; stroke-linejoin:bevel; font-family:sans-serif; font-weight:bold; stroke-miterlimit:0;">
      <rect x="0" y="0" width="180" style="clip-path:url(#clipPath5); fill:none;" height="40" />
      <line x1="0" x2="180" y1="14" style="clip-path:url(#clipPath5); fill:none;" y2="14" />
    </g>
    <g transform="translate(332,92)" style="font-size:11; fill:white; text-rendering:optimizeLegibility; font-family:sans-serif; stroke:white; font-weight:bold;">
      <rect x="0" y="0" width="200" style="clip-path:url(#clipPath6); stroke:none;" height="40" />
    </g>
    <g transform="translate(332,92)" style="stroke-linecap:butt; font-size:11; text-rendering:optimizeLegibility; stroke-linejoin:bevel; font-family:sans-serif; font-weight:bold; stroke-miterlimit:0;">
      <rect x="0" y="0" width="200" style="clip-path:url(#clipPath6); fill:none;" height="40" />
      <line x1="0" x2="200" y1="14" style="clip-path:url(#clipPath6); fill:none;" y2="14" />
    </g>
    <g style="text-rendering:optimizeLegibility; font-size:11; font-family:sans-serif;" transform="translate(2,120)">
      <text x="2" y="13" style="clip-path:url(#clipPath12); stroke:none;" xml:space="preserve">+load()</text>
      <text x="2" y="27" style="clip-path:url(#clipPath12); stroke:none;" xml:space="preserve">+save()</text>
      <text x="2" y="41" style="clip-path:url(#clipPath12); stroke:none;" xml:space="preserve">+add(certificate : Certificate)</text>
      <text x="2" y="55" style="clip-path:url(#clipPath12); stroke:none;" xml:space="preserve">+remove(certificate : Certificate)</text>
      <text x="2" y="69" style="clip-path:url(#clipPath12); stroke:none;" xml:space="preserve">+contains(certificate : Certificate) : boolean</text>
      <text x="2" y="83" style="clip-path:url(#clipPath12); stroke:none;" xml:space="preserve">+iterator() : Iterator</text>
    </g>
    <g transform="translate(2,12)" style="text-rendering:optimizeLegibility; font-size:11; font-weight:bold; font-family:sans-serif;">
      <text x="72" y="11" style="clip-path:url(#clipPath13); stroke:none;" xml:space="preserve">StandardTrustManager</text>
    </g>
    <g style="text-rendering:optimizeLegibility; font-size:11; font-family:sans-serif;" transform="translate(2,92)">
      <text x="93" y="11" style="clip-path:url(#clipPath14); stroke:none;" xml:space="preserve">&lt;&lt;interface&gt;&gt;</text>
      <text x="92" y="25" style="clip-path:url(#clipPath14); stroke:none; font-weight:bold;" xml:space="preserve">CertificateStore</text>
    </g>
    <g transform="translate(2,242)" style="text-rendering:optimizeLegibility; font-size:11; font-weight:bold; font-family:sans-serif;">
      <text x="14" y="11" style="clip-path:url(#clipPath15); stroke:none;" xml:space="preserve">PersistentCertificateStore</text>
    </g>
    <g transform="translate(192,242)" style="text-rendering:optimizeLegibility; font-size:11; font-weight:bold; font-family:sans-serif;">
      <text x="14" y="11" style="clip-path:url(#clipPath16); stroke:none;" xml:space="preserve">RootCertificateStore</text>
    </g>
    <g transform="translate(352,242)" style="text-rendering:optimizeLegibility; font-size:11; font-weight:bold; font-family:sans-serif;">
      <text x="26" y="11" style="clip-path:url(#clipPath17); stroke:none;" xml:space="preserve">SessionCertificateStore</text>
    </g>
    <g transform="translate(332,92)" style="text-rendering:optimizeLegibility; font-size:11; font-weight:bold; font-family:sans-serif;">
      <text x="22" y="11" style="clip-path:url(#clipPath18); stroke:none;" xml:space="preserve">java.security.cert.Certificate</text>
    </g>
    <g style="text-rendering:optimizeLegibility; font-size:11; font-family:sans-serif;" transform="translate(116,65)">
      <text x="10" y="11" style="clip-path:url(#clipPath19); stroke:none;" xml:space="preserve">uses</text>
    </g>
    <g transform="translate(222,62)" style="stroke-linecap:butt; font-size:11; fill-opacity:0.9961; fill:rgb(0,0,0); text-rendering:optimizeLegibility; stroke-linejoin:round; font-family:sans-serif; stroke:rgb(0,0,0); stroke-opacity:0.9961;">
      <line x1="74" x2="109" y1="50" style="clip-path:url(#clipPath20); fill:none;" y2="50" />
      <polygon style="fill:none; clip-path:url(#clipPath20);" points=" 50 50 62 56 74 50 62 44" />
    </g>
    <g transform="translate(222,132)" style="stroke-linecap:butt; font-size:11; fill-opacity:0.9961; fill:rgb(0,0,0); text-rendering:optimizeLegibility; stroke-linejoin:round; font-family:sans-serif; stroke:rgb(0,0,0); stroke-opacity:0.9961;">
      <line x1="50" x2="90" y1="50" style="clip-path:url(#clipPath21); fill:none;" y2="50" />
      <line x1="90" x2="130" y1="50" style="clip-path:url(#clipPath21); fill:none;" y2="110" />
    </g>
    <g transform="translate(222,132)" style="stroke-linecap:butt; font-size:11; fill:white; text-rendering:optimizeLegibility; font-family:sans-serif; stroke-linejoin:round; stroke:white;">
      <polygon style="clip-path:url(#clipPath21); stroke:none;" points=" 50 50 62 56 62 44" />
    </g>
    <g transform="translate(222,132)" style="stroke-linecap:butt; font-size:11; fill-opacity:0.9961; fill:rgb(0,0,0); text-rendering:optimizeLegibility; stroke-linejoin:round; font-family:sans-serif; stroke:rgb(0,0,0); stroke-opacity:0.9961;">
      <polygon style="fill:none; clip-path:url(#clipPath21);" points=" 50 50 62 56 62 44" />
    </g>
    <g transform="translate(172,162)" style="stroke-linecap:butt; font-size:11; fill-opacity:0.9961; fill:rgb(0,0,0); text-rendering:optimizeLegibility; stroke-linejoin:round; font-family:sans-serif; stroke:rgb(0,0,0); stroke-opacity:0.9961;">
      <line x1="50" x2="50" y1="50" style="clip-path:url(#clipPath22); fill:none;" y2="79" />
    </g>
    <g transform="translate(172,162)" style="stroke-linecap:butt; font-size:11; fill:white; text-rendering:optimizeLegibility; font-family:sans-serif; stroke-linejoin:round; stroke:white;">
      <polygon style="clip-path:url(#clipPath22); stroke:none;" points=" 50 50 44 62 56 62" />
    </g>
    <g transform="translate(172,162)" style="stroke-linecap:butt; font-size:11; fill-opacity:0.9961; fill:rgb(0,0,0); text-rendering:optimizeLegibility; stroke-linejoin:round; font-family:sans-serif; stroke:rgb(0,0,0); stroke-opacity:0.9961;">
      <polygon style="fill:none; clip-path:url(#clipPath22);" points=" 50 50 44 62 56 62" />
    </g>
    <g transform="translate(32,162)" style="stroke-linecap:butt; font-size:11; fill-opacity:0.9961; fill:rgb(0,0,0); text-rendering:optimizeLegibility; stroke-linejoin:round; font-family:sans-serif; stroke:rgb(0,0,0); stroke-opacity:0.9961;">
      <line x1="50" x2="50" y1="50" style="clip-path:url(#clipPath22); fill:none;" y2="79" />
    </g>
    <g transform="translate(32,162)" style="stroke-linecap:butt; font-size:11; fill:white; text-rendering:optimizeLegibility; font-family:sans-serif; stroke-linejoin:round; stroke:white;">
      <polygon style="clip-path:url(#clipPath22); stroke:none;" points=" 50 50 44 62 56 62" />
    </g>
    <g transform="translate(32,162)" style="stroke-linecap:butt; font-size:11; fill-opacity:0.9961; fill:rgb(0,0,0); text-rendering:optimizeLegibility; stroke-linejoin:round; font-family:sans-serif; stroke:rgb(0,0,0); stroke-opacity:0.9961;">
      <polygon style="fill:none; clip-path:url(#clipPath22);" points=" 50 50 44 62 56 62" />
    </g>
    <g transform="translate(72,2)" style="stroke-linecap:butt; font-size:11; fill-opacity:0.9961; fill:rgb(0,0,0); text-rendering:optimizeLegibility; stroke-linejoin:round; font-family:sans-serif; stroke:rgb(0,0,0); stroke-opacity:0.9961;">
      <line x1="50" x2="50" y1="50" style="clip-path:url(#clipPath23); fill:none;" y2="89" />
    </g>
    <g style="fill:rgb(120,120,120); text-rendering:optimizeLegibility; font-size:8; stroke:rgb(120,120,120);">
      <text xml:space="preserve" x="0" y="10" style="stroke:none;"></text>
      <text xml:space="preserve" x="0" y="10" style="stroke:none;"></text>
    </g>
  </g>
</svg>
