<?xml version="1.0" encoding="UTF-8"?>

<!DOCTYPE svg PUBLIC '-//W3C//DTD SVG 1.0//EN' 'http://www.w3.org/TR/2001/REC-SVG-20010904/DTD/svg10.dtd'>
<svg style="fill-opacity:1; color-rendering:auto; color-interpolation:auto; text-rendering:auto; stroke:black; stroke-linecap:square; stroke-miterlimit:10; shape-rendering:auto; stroke-opacity:1; fill:black; stroke-dasharray:none; font-weight:normal; stroke-width:1; font-family:&apos;Dialog&apos;; font-style:normal; stroke-linejoin:miter; font-size:12; stroke-dashoffset:0; image-rendering:auto;" xmlns="http://www.w3.org/2000/svg" width="726" xmlns:xlink="http://www.w3.org/1999/xlink" height="456">
  <!--Generated by the Batik Graphics2D SVG Generator-->
  <defs id="genericDefs" />
  <g>
    <defs id="defs1">
      <clipPath clipPathUnits="userSpaceOnUse" id="clipPath1">
        <path d="M-3 -3 L117 -3 L117 47 L-3 47 L-3 -3 Z" />
      </clipPath>
      <clipPath clipPathUnits="userSpaceOnUse" id="clipPath2">
        <path d="M-3 -3 L147 -3 L147 47 L-3 47 L-3 -3 Z" />
      </clipPath>
      <clipPath clipPathUnits="userSpaceOnUse" id="clipPath3">
        <path d="M0 0 L144 0 L144 16 L0 16 L0 0 Z" />
      </clipPath>
      <clipPath clipPathUnits="userSpaceOnUse" id="clipPath4">
        <path d="M0 0 L114 0 L114 16 L0 16 L0 0 Z" />
      </clipPath>
      <clipPath clipPathUnits="userSpaceOnUse" id="clipPath5">
        <path d="M0 0 L114 0 L114 32 L0 32 L0 0 Z" />
      </clipPath>
      <clipPath clipPathUnits="userSpaceOnUse" id="clipPath6">
        <path d="M0 0 L144 0 L144 32 L0 32 L0 0 Z" />
      </clipPath>
      <clipPath clipPathUnits="userSpaceOnUse" id="clipPath7">
        <path d="M0 0 L48 0 L48 18 L0 18 L0 0 Z" />
      </clipPath>
      <clipPath clipPathUnits="userSpaceOnUse" id="clipPath8">
        <path d="M0 0 L57 0 L57 18 L0 18 L0 0 Z" />
      </clipPath>
      <clipPath clipPathUnits="userSpaceOnUse" id="clipPath9">
        <path d="M0 0 L60 0 L60 18 L0 18 L0 0 Z" />
      </clipPath>
      <clipPath clipPathUnits="userSpaceOnUse" id="clipPath10">
        <path d="M0 0 L104 0 L104 153 L0 153 L0 0 Z" />
      </clipPath>
      <clipPath clipPathUnits="userSpaceOnUse" id="clipPath11">
        <path d="M0 0 L173 0 L173 104 L0 104 L0 0 Z" />
      </clipPath>
      <clipPath clipPathUnits="userSpaceOnUse" id="clipPath12">
        <path d="M0 0 L104 0 L104 174 L0 174 L0 0 Z" />
      </clipPath>
      <clipPath clipPathUnits="userSpaceOnUse" id="clipPath13">
        <path d="M0 0 L203 0 L203 104 L0 104 L0 0 Z" />
      </clipPath>
    </defs>
    <g style="fill:white; text-rendering:optimizeLegibility; stroke:white;">
      <rect x="0" y="0" width="726" style="stroke:none;" height="456" />
    </g>
    <g transform="translate(2,202)" style="font-size:11; fill:white; text-rendering:optimizeLegibility; font-family:sans-serif; stroke:white; font-weight:bold;">
      <rect x="0" y="0" width="110" style="clip-path:url(#clipPath1); stroke:none;" height="40" />
    </g>
    <g transform="translate(2,202)" style="stroke-linecap:butt; font-size:11; text-rendering:optimizeLegibility; stroke-linejoin:bevel; font-family:sans-serif; font-weight:bold; stroke-miterlimit:0;">
      <rect x="0" y="0" width="110" style="clip-path:url(#clipPath1); fill:none;" height="40" />
      <line x1="0" x2="110" y1="28" style="clip-path:url(#clipPath1); fill:none;" y2="28" />
    </g>
    <g transform="translate(182,202)" style="font-size:11; fill:white; text-rendering:optimizeLegibility; font-family:sans-serif; stroke:white; font-weight:bold;">
      <rect x="0" y="0" width="110" style="clip-path:url(#clipPath1); stroke:none;" height="40" />
    </g>
    <g transform="translate(182,202)" style="stroke-linecap:butt; font-size:11; text-rendering:optimizeLegibility; stroke-linejoin:bevel; font-family:sans-serif; font-weight:bold; stroke-miterlimit:0;">
      <rect x="0" y="0" width="110" style="clip-path:url(#clipPath1); fill:none;" height="40" />
      <line x1="0" x2="110" y1="28" style="clip-path:url(#clipPath1); fill:none;" y2="28" />
    </g>
    <g transform="translate(582,292)" style="font-size:11; fill:white; text-rendering:optimizeLegibility; font-family:sans-serif; stroke:white; font-weight:bold;">
      <rect x="0" y="0" width="110" style="clip-path:url(#clipPath1); stroke:none;" height="40" />
    </g>
    <g transform="translate(582,292)" style="stroke-linecap:butt; font-size:11; text-rendering:optimizeLegibility; stroke-linejoin:bevel; font-family:sans-serif; font-weight:bold; stroke-miterlimit:0;">
      <rect x="0" y="0" width="110" style="clip-path:url(#clipPath1); fill:none;" height="40" />
      <line x1="0" x2="110" y1="28" style="clip-path:url(#clipPath1); fill:none;" y2="28" />
    </g>
    <g transform="translate(582,112)" style="font-size:11; fill:white; text-rendering:optimizeLegibility; font-family:sans-serif; stroke:white; font-weight:bold;">
      <rect x="0" y="0" width="110" style="clip-path:url(#clipPath1); stroke:none;" height="40" />
    </g>
    <g transform="translate(582,112)" style="stroke-linecap:butt; font-size:11; text-rendering:optimizeLegibility; stroke-linejoin:bevel; font-family:sans-serif; font-weight:bold; stroke-miterlimit:0;">
      <rect x="0" y="0" width="110" style="clip-path:url(#clipPath1); fill:none;" height="40" />
      <line x1="0" x2="110" y1="28" style="clip-path:url(#clipPath1); fill:none;" y2="28" />
    </g>
    <g transform="translate(292,112)" style="font-size:11; fill:white; text-rendering:optimizeLegibility; font-family:sans-serif; stroke:white; font-weight:bold;">
      <rect x="0" y="0" width="110" style="clip-path:url(#clipPath1); stroke:none;" height="40" />
    </g>
    <g transform="translate(292,112)" style="stroke-linecap:butt; font-size:11; text-rendering:optimizeLegibility; stroke-linejoin:bevel; font-family:sans-serif; font-weight:bold; stroke-miterlimit:0;">
      <rect x="0" y="0" width="110" style="clip-path:url(#clipPath1); fill:none;" height="40" />
      <line x1="0" x2="110" y1="28" style="clip-path:url(#clipPath1); fill:none;" y2="28" />
    </g>
    <g transform="translate(182,292)" style="font-size:11; fill:white; text-rendering:optimizeLegibility; font-family:sans-serif; stroke:white; font-weight:bold;">
      <rect x="0" y="0" width="110" style="clip-path:url(#clipPath1); stroke:none;" height="40" />
    </g>
    <g transform="translate(182,292)" style="stroke-linecap:butt; font-size:11; text-rendering:optimizeLegibility; stroke-linejoin:bevel; font-family:sans-serif; font-weight:bold; stroke-miterlimit:0;">
      <rect x="0" y="0" width="110" style="clip-path:url(#clipPath1); fill:none;" height="40" />
      <line x1="0" x2="110" y1="28" style="clip-path:url(#clipPath1); fill:none;" y2="28" />
    </g>
    <g transform="translate(232,2)" style="font-size:11; fill:white; text-rendering:optimizeLegibility; font-family:sans-serif; stroke:white; font-weight:bold;">
      <rect x="0" y="0" width="110" style="clip-path:url(#clipPath1); stroke:none;" height="40" />
    </g>
    <g transform="translate(232,2)" style="stroke-linecap:butt; font-size:11; text-rendering:optimizeLegibility; stroke-linejoin:bevel; font-family:sans-serif; font-weight:bold; stroke-miterlimit:0;">
      <rect x="0" y="0" width="110" style="clip-path:url(#clipPath1); fill:none;" height="40" />
      <line x1="0" x2="110" y1="28" style="clip-path:url(#clipPath1); fill:none;" y2="28" />
    </g>
    <g transform="translate(392,202)" style="font-size:11; fill:white; text-rendering:optimizeLegibility; font-family:sans-serif; stroke:white; font-weight:bold;">
      <rect x="0" y="0" width="110" style="clip-path:url(#clipPath1); stroke:none;" height="40" />
    </g>
    <g transform="translate(392,202)" style="stroke-linecap:butt; font-size:11; text-rendering:optimizeLegibility; stroke-linejoin:bevel; font-family:sans-serif; font-weight:bold; stroke-miterlimit:0;">
      <rect x="0" y="0" width="110" style="clip-path:url(#clipPath1); fill:none;" height="40" />
      <line x1="0" x2="110" y1="28" style="clip-path:url(#clipPath1); fill:none;" y2="28" />
    </g>
    <g transform="translate(582,412)" style="font-size:11; fill:white; text-rendering:optimizeLegibility; font-family:sans-serif; stroke:white; font-weight:bold;">
      <rect x="0" y="0" width="140" style="clip-path:url(#clipPath2); stroke:none;" height="40" />
    </g>
    <g transform="translate(582,412)" style="stroke-linecap:butt; font-size:11; text-rendering:optimizeLegibility; stroke-linejoin:bevel; font-family:sans-serif; font-weight:bold; stroke-miterlimit:0;">
      <rect x="0" y="0" width="140" style="clip-path:url(#clipPath2); fill:none;" height="40" />
      <line x1="0" x2="140" y1="28" style="clip-path:url(#clipPath2); fill:none;" y2="28" />
    </g>
    <g style="text-rendering:optimizeLegibility; font-size:11; font-family:sans-serif;" transform="translate(182,202)">
      <text x="13" y="11" style="clip-path:url(#clipPath5); stroke:none;" xml:space="preserve">&lt;&lt;interface&gt;&gt;</text>
      <text x="33" y="25" style="clip-path:url(#clipPath5); stroke:none; font-weight:bold;" xml:space="preserve">Crawler</text>
    </g>
    <g style="text-rendering:optimizeLegibility; font-size:11; font-family:sans-serif;" transform="translate(2,202)">
      <text x="13" y="11" style="clip-path:url(#clipPath5); stroke:none;" xml:space="preserve">&lt;&lt;interface&gt;&gt;</text>
      <text x="24" y="25" style="clip-path:url(#clipPath5); stroke:none; font-weight:bold;" xml:space="preserve">DataSource</text>
    </g>
    <g style="text-rendering:optimizeLegibility; font-size:11; font-family:sans-serif;" transform="translate(582,292)">
      <text x="13" y="11" style="clip-path:url(#clipPath5); stroke:none;" xml:space="preserve">&lt;&lt;interface&gt;&gt;</text>
      <text x="29" y="25" style="clip-path:url(#clipPath5); stroke:none; font-weight:bold;" xml:space="preserve">Extractor</text>
    </g>
    <g style="text-rendering:optimizeLegibility; font-size:11; font-family:sans-serif;" transform="translate(582,112)">
      <text x="13" y="11" style="clip-path:url(#clipPath5); stroke:none;" xml:space="preserve">&lt;&lt;interface&gt;&gt;</text>
      <text x="17" y="25" style="clip-path:url(#clipPath5); stroke:none; font-weight:bold;" xml:space="preserve">DataAccessor</text>
    </g>
    <g style="text-rendering:optimizeLegibility; font-size:11; font-family:sans-serif;" transform="translate(232,2)">
      <text x="13" y="11" style="clip-path:url(#clipPath5); stroke:none;" xml:space="preserve">&lt;&lt;interface&gt;&gt;</text>
      <text x="16" y="25" style="clip-path:url(#clipPath5); stroke:none; font-weight:bold;" xml:space="preserve">RDFContainer</text>
    </g>
    <g style="text-rendering:optimizeLegibility; font-size:11; font-family:sans-serif;" transform="translate(292,112)">
      <text x="13" y="11" style="clip-path:url(#clipPath5); stroke:none;" xml:space="preserve">&lt;&lt;interface&gt;&gt;</text>
      <text x="24" y="25" style="clip-path:url(#clipPath5); stroke:none; font-weight:bold;" xml:space="preserve">DataObject</text>
    </g>
    <g style="text-rendering:optimizeLegibility; font-size:11; font-family:sans-serif;" transform="translate(182,292)">
      <text x="13" y="11" style="clip-path:url(#clipPath5); stroke:none;" xml:space="preserve">&lt;&lt;interface&gt;&gt;</text>
      <text x="23" y="25" style="clip-path:url(#clipPath5); stroke:none; font-weight:bold;" xml:space="preserve">AccessData</text>
    </g>
    <g style="text-rendering:optimizeLegibility; font-size:11; font-family:sans-serif;" transform="translate(582,412)">
      <text x="28" y="11" style="clip-path:url(#clipPath6); stroke:none;" xml:space="preserve">&lt;&lt;interface&gt;&gt;</text>
      <text x="15" y="25" style="clip-path:url(#clipPath6); stroke:none; font-weight:bold;" xml:space="preserve">MimeTypeIdentifier</text>
    </g>
    <g style="text-rendering:optimizeLegibility; font-size:11; font-family:sans-serif;" transform="translate(392,202)">
      <text x="13" y="11" style="clip-path:url(#clipPath5); stroke:none;" xml:space="preserve">&lt;&lt;interface&gt;&gt;</text>
      <text x="11" y="25" style="clip-path:url(#clipPath5); stroke:none; font-weight:bold;" xml:space="preserve">CrawlerHandler</text>
    </g>
    <g style="text-rendering:optimizeLegibility; font-size:11; font-family:sans-serif;" transform="translate(212,251)">
      <text x="9" y="11" style="clip-path:url(#clipPath7); stroke:none;" xml:space="preserve">uses</text>
    </g>
    <g style="text-rendering:optimizeLegibility; font-size:11; font-family:sans-serif;" transform="translate(116,222)">
      <text x="9" y="11" style="clip-path:url(#clipPath8); stroke:none;" xml:space="preserve">crawls</text>
    </g>
    <g style="text-rendering:optimizeLegibility; font-size:11; font-family:sans-serif;" transform="translate(311,222)">
      <text x="9" y="11" style="clip-path:url(#clipPath9); stroke:none;" xml:space="preserve">passes</text>
    </g>
    <g transform="translate(192,192)" style="stroke-linecap:butt; font-size:11; fill-opacity:0.9961; fill:rgb(0,0,0); text-rendering:optimizeLegibility; stroke-linejoin:round; font-family:sans-serif; stroke:rgb(0,0,0); stroke-opacity:0.9961;">
      <line x1="50" x2="50" y1="99" style="clip-path:url(#clipPath10); fill:none;" y2="50" />
    </g>
    <g transform="translate(62,172)" style="stroke-linecap:butt; font-size:11; fill-opacity:0.9961; fill:rgb(0,0,0); text-rendering:optimizeLegibility; stroke-linejoin:round; font-family:sans-serif; stroke:rgb(0,0,0); stroke-opacity:0.9961;">
      <line x1="119" x2="50" y1="50" style="clip-path:url(#clipPath11); fill:none;" y2="50" />
    </g>
    <g style="fill-opacity:0.9961; text-rendering:optimizeLegibility; stroke:rgb(0,0,0); stroke-linecap:butt; stroke-opacity:0.9961; fill:rgb(0,0,0); stroke-dasharray:5; font-family:sans-serif; stroke-linejoin:round; font-size:11; stroke-dashoffset:1;" transform="translate(291,102)">
      <line x1="50" x2="50" y1="120" style="clip-path:url(#clipPath12); fill:none;" y2="50" />
    </g>
    <g transform="translate(242,172)" style="stroke-linecap:butt; font-size:11; fill-opacity:0.9961; fill:rgb(0,0,0); text-rendering:optimizeLegibility; stroke-linejoin:round; font-family:sans-serif; stroke:rgb(0,0,0); stroke-opacity:0.9961;">
      <line x1="50" x2="149" y1="50" style="clip-path:url(#clipPath13); fill:none;" y2="50" />
    </g>
    <g style="fill:rgb(120,120,120); text-rendering:optimizeLegibility; font-size:8; stroke:rgb(120,120,120);">
      <text xml:space="preserve" x="0" y="10" style="stroke:none;"></text>
      <text xml:space="preserve" x="0" y="10" style="stroke:none;"></text>
    </g>
  </g>
</svg>
