<?xml version="1.0" encoding="UTF-8"?>

<!DOCTYPE svg PUBLIC '-//W3C//DTD SVG 1.0//EN' 'http://www.w3.org/TR/2001/REC-SVG-20010904/DTD/svg10.dtd'>
<svg style="fill-opacity:1; color-rendering:auto; color-interpolation:auto; text-rendering:auto; stroke:black; stroke-linecap:square; stroke-miterlimit:10; shape-rendering:auto; stroke-opacity:1; fill:black; stroke-dasharray:none; font-weight:normal; stroke-width:1; font-family:&apos;Dialog&apos;; font-style:normal; stroke-linejoin:miter; font-size:12; stroke-dashoffset:0; image-rendering:auto;" xmlns="http://www.w3.org/2000/svg" width="1156" xmlns:xlink="http://www.w3.org/1999/xlink" height="456">
  <!--Generated by the Batik Graphics2D SVG Generator-->
  <defs id="genericDefs" />
  <g>
    <defs id="defs1">
      <clipPath clipPathUnits="userSpaceOnUse" id="clipPath1">
        <path d="M-3 -3 L117 -3 L117 47 L-3 47 L-3 -3 Z" />
      </clipPath>
      <clipPath clipPathUnits="userSpaceOnUse" id="clipPath2">
        <path d="M-3 -3 L337 -3 L337 217 L-3 217 L-3 -3 Z" />
      </clipPath>
      <clipPath clipPathUnits="userSpaceOnUse" id="clipPath3">
        <path d="M-3 -3 L117 -3 L117 57 L-3 57 L-3 -3 Z" />
      </clipPath>
      <clipPath clipPathUnits="userSpaceOnUse" id="clipPath4">
        <path d="M-3 -3 L577 -3 L577 77 L-3 77 L-3 -3 Z" />
      </clipPath>
      <clipPath clipPathUnits="userSpaceOnUse" id="clipPath5">
        <path d="M-3 -3 L147 -3 L147 47 L-3 47 L-3 -3 Z" />
      </clipPath>
      <clipPath clipPathUnits="userSpaceOnUse" id="clipPath6">
        <path d="M0 0 L574 0 L574 46 L0 46 L0 0 Z" />
      </clipPath>
      <clipPath clipPathUnits="userSpaceOnUse" id="clipPath7">
        <path d="M0 0 L144 0 L144 16 L0 16 L0 0 Z" />
      </clipPath>
      <clipPath clipPathUnits="userSpaceOnUse" id="clipPath8">
        <path d="M0 0 L114 0 L114 16 L0 16 L0 0 Z" />
      </clipPath>
      <clipPath clipPathUnits="userSpaceOnUse" id="clipPath9">
        <path d="M0 0 L114 0 L114 30 L0 30 L0 0 Z" />
      </clipPath>
      <clipPath clipPathUnits="userSpaceOnUse" id="clipPath10">
        <path d="M0 0 L334 0 L334 186 L0 186 L0 0 Z" />
      </clipPath>
      <clipPath clipPathUnits="userSpaceOnUse" id="clipPath11">
        <path d="M0 0 L114 0 L114 32 L0 32 L0 0 Z" />
      </clipPath>
      <clipPath clipPathUnits="userSpaceOnUse" id="clipPath12">
        <path d="M0 0 L334 0 L334 32 L0 32 L0 0 Z" />
      </clipPath>
      <clipPath clipPathUnits="userSpaceOnUse" id="clipPath13">
        <path d="M0 0 L114 0 L114 26 L0 26 L0 0 Z" />
      </clipPath>
      <clipPath clipPathUnits="userSpaceOnUse" id="clipPath14">
        <path d="M0 0 L574 0 L574 32 L0 32 L0 0 Z" />
      </clipPath>
      <clipPath clipPathUnits="userSpaceOnUse" id="clipPath15">
        <path d="M0 0 L114 0 L114 18 L0 18 L0 0 Z" />
      </clipPath>
      <clipPath clipPathUnits="userSpaceOnUse" id="clipPath16">
        <path d="M0 0 L144 0 L144 32 L0 32 L0 0 Z" />
      </clipPath>
      <clipPath clipPathUnits="userSpaceOnUse" id="clipPath17">
        <path d="M0 0 L49 0 L49 18 L0 18 L0 0 Z" />
      </clipPath>
      <clipPath clipPathUnits="userSpaceOnUse" id="clipPath18">
        <path d="M0 0 L61 0 L61 18 L0 18 L0 0 Z" />
      </clipPath>
      <clipPath clipPathUnits="userSpaceOnUse" id="clipPath19">
        <path d="M0 0 L77 0 L77 18 L0 18 L0 0 Z" />
      </clipPath>
      <clipPath clipPathUnits="userSpaceOnUse" id="clipPath20">
        <path d="M0 0 L104 0 L104 104 L0 104 L0 0 Z" />
      </clipPath>
      <clipPath clipPathUnits="userSpaceOnUse" id="clipPath21">
        <path d="M0 0 L173 0 L173 104 L0 104 L0 0 Z" />
      </clipPath>
      <clipPath clipPathUnits="userSpaceOnUse" id="clipPath22">
        <path d="M0 0 L104 0 L104 174 L0 174 L0 0 Z" />
      </clipPath>
    </defs>
    <g style="fill:white; text-rendering:optimizeLegibility; stroke:white;">
      <rect x="0" y="0" width="1156" style="stroke:none;" height="456" />
    </g>
    <g transform="translate(2,202)" style="font-size:11; fill:white; text-rendering:optimizeLegibility; font-family:sans-serif; stroke:white; font-weight:bold;">
      <rect x="0" y="0" width="110" style="clip-path:url(#clipPath1); stroke:none;" height="40" />
    </g>
    <g transform="translate(2,202)" style="stroke-linecap:butt; font-size:11; text-rendering:optimizeLegibility; stroke-linejoin:bevel; font-family:sans-serif; font-weight:bold; stroke-miterlimit:0;">
      <rect x="0" y="0" width="110" style="clip-path:url(#clipPath1); fill:none;" height="40" />
      <line x1="0" x2="110" y1="28" style="clip-path:url(#clipPath1); fill:none;" y2="28" />
    </g>
    <g transform="translate(182,202)" style="font-size:11; fill:white; text-rendering:optimizeLegibility; font-family:sans-serif; stroke:white; font-weight:bold;">
      <rect x="0" y="0" width="330" style="clip-path:url(#clipPath2); stroke:none;" height="210" />
    </g>
    <g transform="translate(182,202)" style="stroke-linecap:butt; font-size:11; text-rendering:optimizeLegibility; stroke-linejoin:bevel; font-family:sans-serif; font-weight:bold; stroke-miterlimit:0;">
      <rect x="0" y="0" width="330" style="clip-path:url(#clipPath2); fill:none;" height="210" />
      <line x1="0" x2="330" y1="28" style="clip-path:url(#clipPath2); fill:none;" y2="28" />
    </g>
    <g transform="translate(582,292)" style="font-size:11; fill:white; text-rendering:optimizeLegibility; font-family:sans-serif; stroke:white; font-weight:bold;">
      <rect x="0" y="0" width="110" style="clip-path:url(#clipPath3); stroke:none;" height="50" />
    </g>
    <g transform="translate(582,292)" style="stroke-linecap:butt; font-size:11; text-rendering:optimizeLegibility; stroke-linejoin:bevel; font-family:sans-serif; font-weight:bold; stroke-miterlimit:0;">
      <rect x="0" y="0" width="110" style="clip-path:url(#clipPath3); fill:none;" height="50" />
      <line x1="0" x2="110" y1="28" style="clip-path:url(#clipPath3); fill:none;" y2="28" />
    </g>
    <g transform="translate(582,112)" style="font-size:11; fill:white; text-rendering:optimizeLegibility; font-family:sans-serif; stroke:white; font-weight:bold;">
      <rect x="0" y="0" width="570" style="clip-path:url(#clipPath4); stroke:none;" height="70" />
    </g>
    <g transform="translate(582,112)" style="stroke-linecap:butt; font-size:11; text-rendering:optimizeLegibility; stroke-linejoin:bevel; font-family:sans-serif; font-weight:bold; stroke-miterlimit:0;">
      <rect x="0" y="0" width="570" style="clip-path:url(#clipPath4); fill:none;" height="70" />
      <line x1="0" x2="570" y1="28" style="clip-path:url(#clipPath4); fill:none;" y2="28" />
    </g>
    <g transform="translate(292,112)" style="font-size:11; fill:white; text-rendering:optimizeLegibility; font-family:sans-serif; stroke:white; font-weight:bold;">
      <rect x="0" y="0" width="110" style="clip-path:url(#clipPath1); stroke:none;" height="40" />
    </g>
    <g transform="translate(292,112)" style="stroke-linecap:butt; font-size:11; text-rendering:optimizeLegibility; stroke-linejoin:bevel; font-family:sans-serif; font-weight:bold; stroke-miterlimit:0;">
      <rect x="0" y="0" width="110" style="clip-path:url(#clipPath1); fill:none;" height="40" />
      <line x1="0" x2="110" y1="28" style="clip-path:url(#clipPath1); fill:none;" y2="28" />
    </g>
    <g transform="translate(182,292)" style="font-size:11; fill:white; text-rendering:optimizeLegibility; font-family:sans-serif; stroke:white; font-weight:bold;">
      <rect x="0" y="0" width="110" style="clip-path:url(#clipPath1); stroke:none;" height="40" />
    </g>
    <g transform="translate(182,292)" style="stroke-linecap:butt; font-size:11; text-rendering:optimizeLegibility; stroke-linejoin:bevel; font-family:sans-serif; font-weight:bold; stroke-miterlimit:0;">
      <rect x="0" y="0" width="110" style="clip-path:url(#clipPath1); fill:none;" height="40" />
      <line x1="0" x2="110" y1="28" style="clip-path:url(#clipPath1); fill:none;" y2="28" />
    </g>
    <g transform="translate(232,2)" style="font-size:11; fill:white; text-rendering:optimizeLegibility; font-family:sans-serif; stroke:white; font-weight:bold;">
      <rect x="0" y="0" width="110" style="clip-path:url(#clipPath1); stroke:none;" height="40" />
    </g>
    <g transform="translate(232,2)" style="stroke-linecap:butt; font-size:11; text-rendering:optimizeLegibility; stroke-linejoin:bevel; font-family:sans-serif; font-weight:bold; stroke-miterlimit:0;">
      <rect x="0" y="0" width="110" style="clip-path:url(#clipPath1); fill:none;" height="40" />
      <line x1="0" x2="110" y1="14" style="clip-path:url(#clipPath1); fill:none;" y2="14" />
    </g>
    <g transform="translate(392,202)" style="font-size:11; fill:white; text-rendering:optimizeLegibility; font-family:sans-serif; stroke:white; font-weight:bold;">
      <rect x="0" y="0" width="110" style="clip-path:url(#clipPath1); stroke:none;" height="40" />
    </g>
    <g transform="translate(392,202)" style="stroke-linecap:butt; font-size:11; text-rendering:optimizeLegibility; stroke-linejoin:bevel; font-family:sans-serif; font-weight:bold; stroke-miterlimit:0;">
      <rect x="0" y="0" width="110" style="clip-path:url(#clipPath1); fill:none;" height="40" />
      <line x1="0" x2="110" y1="28" style="clip-path:url(#clipPath1); fill:none;" y2="28" />
    </g>
    <g transform="translate(582,412)" style="font-size:11; fill:white; text-rendering:optimizeLegibility; font-family:sans-serif; stroke:white; font-weight:bold;">
      <rect x="0" y="0" width="140" style="clip-path:url(#clipPath5); stroke:none;" height="40" />
    </g>
    <g transform="translate(582,412)" style="stroke-linecap:butt; font-size:11; text-rendering:optimizeLegibility; stroke-linejoin:bevel; font-family:sans-serif; font-weight:bold; stroke-miterlimit:0;">
      <rect x="0" y="0" width="140" style="clip-path:url(#clipPath5); fill:none;" height="40" />
      <line x1="0" x2="140" y1="28" style="clip-path:url(#clipPath5); fill:none;" y2="28" />
    </g>
    <g style="text-rendering:optimizeLegibility; font-size:11; font-family:sans-serif;" transform="translate(582,140)">
      <text x="2" y="13" style="clip-path:url(#clipPath6); stroke:none;" xml:space="preserve">+getDataObject(url : String, source : DataSource, params : Map, containerFactory : RDFContainerFactory)...</text>
      <text x="2" y="27" style="clip-path:url(#clipPath6); stroke:none;" xml:space="preserve">+getDataObject(url : String, source : DataSource, accessData : AccessData, params : Map, containerFacto...</text>
    </g>
    <g style="text-rendering:optimizeLegibility; font-size:11; font-family:sans-serif;" transform="translate(182,230)">
      <text x="2" y="13" style="clip-path:url(#clipPath10); stroke:none;" xml:space="preserve">-registry : DataAccessorRegistry</text>
      <text x="2" y="27" style="clip-path:url(#clipPath10); stroke:none;" xml:space="preserve">-accessData : AccessData</text>
      <text x="2" y="41" style="clip-path:url(#clipPath10); stroke:none;" xml:space="preserve">-handler : CrawlerHandler</text>
      <text x="2" y="55" style="clip-path:url(#clipPath10); stroke:none;" xml:space="preserve">-dataSource : DataSource</text>
      <line x1="0" x2="330" y1="60" style="stroke-linecap:butt; clip-path:url(#clipPath10); fill:none; stroke-linejoin:bevel; stroke-miterlimit:0;" y2="60" />
      <text x="2" y="73" style="clip-path:url(#clipPath10); stroke:none;" xml:space="preserve">+crawl()</text>
      <text x="2" y="87" style="clip-path:url(#clipPath10); stroke:none;" xml:space="preserve">+clear()</text>
      <text x="2" y="101" style="clip-path:url(#clipPath10); stroke:none;" xml:space="preserve">+stop()</text>
      <text x="2" y="115" style="clip-path:url(#clipPath10); stroke:none;" xml:space="preserve">+getCrawlReport() : CrawlReport</text>
    </g>
    <g style="text-rendering:optimizeLegibility; font-size:11; font-family:sans-serif;" transform="translate(2,202)">
      <text x="13" y="11" style="clip-path:url(#clipPath11); stroke:none;" xml:space="preserve">&lt;&lt;interface&gt;&gt;</text>
      <text x="24" y="25" style="clip-path:url(#clipPath11); stroke:none; font-weight:bold;" xml:space="preserve">DataSource</text>
    </g>
    <g style="text-rendering:optimizeLegibility; font-size:11; font-family:sans-serif;" transform="translate(182,202)">
      <text x="123" y="11" style="clip-path:url(#clipPath12); stroke:none;" xml:space="preserve">&lt;&lt;interface&gt;&gt;</text>
      <text x="143" y="25" style="clip-path:url(#clipPath12); stroke:none; font-weight:bold;" xml:space="preserve">Crawler</text>
    </g>
    <g style="text-rendering:optimizeLegibility; font-size:11; font-family:sans-serif;" transform="translate(582,292)">
      <text x="13" y="11" style="clip-path:url(#clipPath11); stroke:none;" xml:space="preserve">&lt;&lt;interface&gt;&gt;</text>
      <text x="29" y="25" style="clip-path:url(#clipPath11); stroke:none; font-weight:bold;" xml:space="preserve">Extractor</text>
    </g>
    <g style="text-rendering:optimizeLegibility; font-size:11; font-family:sans-serif;" transform="translate(582,320)">
      <text x="2" y="13" style="clip-path:url(#clipPath13); stroke:none;" xml:space="preserve">+extract(id : URI, ...</text>
    </g>
    <g style="text-rendering:optimizeLegibility; font-size:11; font-family:sans-serif;" transform="translate(582,112)">
      <text x="243" y="11" style="clip-path:url(#clipPath14); stroke:none;" xml:space="preserve">&lt;&lt;interface&gt;&gt;</text>
      <text x="247" y="25" style="clip-path:url(#clipPath14); stroke:none; font-weight:bold;" xml:space="preserve">DataAccessor</text>
    </g>
    <g style="text-rendering:optimizeLegibility; font-size:11; font-family:sans-serif;" transform="translate(292,112)">
      <text x="13" y="11" style="clip-path:url(#clipPath11); stroke:none;" xml:space="preserve">&lt;&lt;interface&gt;&gt;</text>
      <text x="24" y="25" style="clip-path:url(#clipPath11); stroke:none; font-weight:bold;" xml:space="preserve">DataObject</text>
    </g>
    <g style="text-rendering:optimizeLegibility; font-size:11; font-family:sans-serif;" transform="translate(182,292)">
      <text x="13" y="11" style="clip-path:url(#clipPath11); stroke:none;" xml:space="preserve">&lt;&lt;interface&gt;&gt;</text>
      <text x="23" y="25" style="clip-path:url(#clipPath11); stroke:none; font-weight:bold;" xml:space="preserve">AccessData</text>
    </g>
    <g transform="translate(232,2)" style="text-rendering:optimizeLegibility; font-size:11; font-weight:bold; font-family:sans-serif;">
      <text x="16" y="11" style="clip-path:url(#clipPath15); stroke:none;" xml:space="preserve">RDFContainer</text>
    </g>
    <g style="text-rendering:optimizeLegibility; font-size:11; font-family:sans-serif;" transform="translate(392,202)">
      <text x="13" y="11" style="clip-path:url(#clipPath11); stroke:none;" xml:space="preserve">&lt;&lt;interface&gt;&gt;</text>
      <text x="11" y="25" style="clip-path:url(#clipPath11); stroke:none; font-weight:bold;" xml:space="preserve">CrawlerHandler</text>
    </g>
    <g style="text-rendering:optimizeLegibility; font-size:11; font-family:sans-serif;" transform="translate(582,412)">
      <text x="28" y="11" style="clip-path:url(#clipPath16); stroke:none;" xml:space="preserve">&lt;&lt;interface&gt;&gt;</text>
      <text x="15" y="25" style="clip-path:url(#clipPath16); stroke:none; font-weight:bold;" xml:space="preserve">MimeTypeIdentifier</text>
    </g>
    <g style="text-rendering:optimizeLegibility; font-size:11; font-family:sans-serif;" transform="translate(211,274)">
      <text x="10" y="11" style="clip-path:url(#clipPath17); stroke:none;" xml:space="preserve">uses</text>
    </g>
    <g style="text-rendering:optimizeLegibility; font-size:11; font-family:sans-serif;" transform="translate(359,222)">
      <text x="10" y="11" style="clip-path:url(#clipPath18); stroke:none;" xml:space="preserve">passes</text>
    </g>
    <g style="text-rendering:optimizeLegibility; font-size:11; font-family:sans-serif;" transform="translate(104,222)">
      <text x="10" y="11" style="clip-path:url(#clipPath19); stroke:none;" xml:space="preserve">crawledBy</text>
    </g>
    <g transform="translate(62,172)" style="stroke-linecap:butt; font-size:11; fill-opacity:0.9961; fill:rgb(0,0,0); text-rendering:optimizeLegibility; stroke-linejoin:round; font-family:sans-serif; stroke:rgb(0,0,0); stroke-opacity:0.9961;">
      <line x1="119" x2="50" y1="50" style="clip-path:url(#clipPath21); fill:none;" y2="50" />
    </g>
    <g style="fill-opacity:0.9961; text-rendering:optimizeLegibility; stroke:rgb(0,0,0); stroke-linecap:butt; stroke-opacity:0.9961; fill:rgb(0,0,0); stroke-dasharray:5; font-family:sans-serif; stroke-linejoin:round; font-size:11; stroke-dashoffset:1;" transform="translate(341,102)">
      <line x1="50" x2="50" y1="120" style="clip-path:url(#clipPath22); fill:none;" y2="50" />
    </g>
    <g style="fill:rgb(120,120,120); text-rendering:optimizeLegibility; font-size:8; stroke:rgb(120,120,120);">
      <text xml:space="preserve" x="0" y="10" style="stroke:none;"></text>
      <text xml:space="preserve" x="0" y="10" style="stroke:none;"></text>
    </g>
  </g>
</svg>
