<?xml version="1.0" encoding="UTF-8"?>

<!DOCTYPE svg PUBLIC '-//W3C//DTD SVG 1.0//EN' 'http://www.w3.org/TR/2001/REC-SVG-20010904/DTD/svg10.dtd'>
<svg style="fill-opacity:1; color-rendering:auto; color-interpolation:auto; text-rendering:auto; stroke:black; stroke-linecap:square; stroke-miterlimit:10; shape-rendering:auto; stroke-opacity:1; fill:black; stroke-dasharray:none; font-weight:normal; stroke-width:1; font-family:&apos;Dialog&apos;; font-style:normal; stroke-linejoin:miter; font-size:12; stroke-dashoffset:0; image-rendering:auto;" xmlns="http://www.w3.org/2000/svg" width="526" xmlns:xlink="http://www.w3.org/1999/xlink" height="415">
  <!--Generated by the Batik Graphics2D SVG Generator-->
  <defs id="genericDefs" />
  <g>
    <defs id="defs1">
      <clipPath clipPathUnits="userSpaceOnUse" id="clipPath1">
        <path d="M-3 -3 L197 -3 L197 167 L-3 167 L-3 -3 Z" />
      </clipPath>
      <clipPath clipPathUnits="userSpaceOnUse" id="clipPath2">
        <path d="M-3 -3 L197 -3 L197 67 L-3 67 L-3 -3 Z" />
      </clipPath>
      <clipPath clipPathUnits="userSpaceOnUse" id="clipPath3">
        <path d="M-3 -3 L127 -3 L127 47 L-3 47 L-3 -3 Z" />
      </clipPath>
      <clipPath clipPathUnits="userSpaceOnUse" id="clipPath4">
        <path d="M-3 -3 L97 -3 L97 47 L-3 47 L-3 -3 Z" />
      </clipPath>
      <clipPath clipPathUnits="userSpaceOnUse" id="clipPath5">
        <path d="M-3 -3 L147 -3 L147 47 L-3 47 L-3 -3 Z" />
      </clipPath>
      <clipPath clipPathUnits="userSpaceOnUse" id="clipPath6">
        <path d="M-3 -3 L117 -3 L117 47 L-3 47 L-3 -3 Z" />
      </clipPath>
      <clipPath clipPathUnits="userSpaceOnUse" id="clipPath7">
        <path d="M-3 -3 L257 -3 L257 77 L-3 77 L-3 -3 Z" />
      </clipPath>
      <clipPath clipPathUnits="userSpaceOnUse" id="clipPath8">
        <path d="M-3 -3 L257 -3 L257 97 L-3 97 L-3 -3 Z" />
      </clipPath>
      <clipPath clipPathUnits="userSpaceOnUse" id="clipPath9">
        <path d="M-3 -3 L187 -3 L187 47 L-3 47 L-3 -3 Z" />
      </clipPath>
      <clipPath clipPathUnits="userSpaceOnUse" id="clipPath10">
        <path d="M-3 -3 L157 -3 L157 47 L-3 47 L-3 -3 Z" />
      </clipPath>
      <clipPath clipPathUnits="userSpaceOnUse" id="clipPath11">
        <path d="M0 0 L154 0 L154 30 L0 30 L0 0 Z" />
      </clipPath>
      <clipPath clipPathUnits="userSpaceOnUse" id="clipPath12">
        <path d="M0 0 L184 0 L184 30 L0 30 L0 0 Z" />
      </clipPath>
      <clipPath clipPathUnits="userSpaceOnUse" id="clipPath13">
        <path d="M0 0 L254 0 L254 66 L0 66 L0 0 Z" />
      </clipPath>
      <clipPath clipPathUnits="userSpaceOnUse" id="clipPath14">
        <path d="M0 0 L124 0 L124 30 L0 30 L0 0 Z" />
      </clipPath>
      <clipPath clipPathUnits="userSpaceOnUse" id="clipPath15">
        <path d="M0 0 L94 0 L94 30 L0 30 L0 0 Z" />
      </clipPath>
      <clipPath clipPathUnits="userSpaceOnUse" id="clipPath16">
        <path d="M0 0 L144 0 L144 30 L0 30 L0 0 Z" />
      </clipPath>
      <clipPath clipPathUnits="userSpaceOnUse" id="clipPath17">
        <path d="M0 0 L114 0 L114 30 L0 30 L0 0 Z" />
      </clipPath>
      <clipPath clipPathUnits="userSpaceOnUse" id="clipPath18">
        <path d="M0 0 L194 0 L194 136 L0 136 L0 0 Z" />
      </clipPath>
      <clipPath clipPathUnits="userSpaceOnUse" id="clipPath19">
        <path d="M0 0 L194 0 L194 50 L0 50 L0 0 Z" />
      </clipPath>
      <clipPath clipPathUnits="userSpaceOnUse" id="clipPath20">
        <path d="M0 0 L254 0 L254 46 L0 46 L0 0 Z" />
      </clipPath>
      <clipPath clipPathUnits="userSpaceOnUse" id="clipPath21">
        <path d="M0 0 L194 0 L194 32 L0 32 L0 0 Z" />
      </clipPath>
      <clipPath clipPathUnits="userSpaceOnUse" id="clipPath22">
        <path d="M0 0 L124 0 L124 18 L0 18 L0 0 Z" />
      </clipPath>
      <clipPath clipPathUnits="userSpaceOnUse" id="clipPath23">
        <path d="M0 0 L194 0 L194 18 L0 18 L0 0 Z" />
      </clipPath>
      <clipPath clipPathUnits="userSpaceOnUse" id="clipPath24">
        <path d="M0 0 L94 0 L94 18 L0 18 L0 0 Z" />
      </clipPath>
      <clipPath clipPathUnits="userSpaceOnUse" id="clipPath25">
        <path d="M0 0 L184 0 L184 18 L0 18 L0 0 Z" />
      </clipPath>
      <clipPath clipPathUnits="userSpaceOnUse" id="clipPath26">
        <path d="M0 0 L144 0 L144 18 L0 18 L0 0 Z" />
      </clipPath>
      <clipPath clipPathUnits="userSpaceOnUse" id="clipPath27">
        <path d="M0 0 L154 0 L154 18 L0 18 L0 0 Z" />
      </clipPath>
      <clipPath clipPathUnits="userSpaceOnUse" id="clipPath28">
        <path d="M0 0 L114 0 L114 18 L0 18 L0 0 Z" />
      </clipPath>
      <clipPath clipPathUnits="userSpaceOnUse" id="clipPath29">
        <path d="M0 0 L254 0 L254 32 L0 32 L0 0 Z" />
      </clipPath>
      <clipPath clipPathUnits="userSpaceOnUse" id="clipPath30">
        <path d="M0 0 L87 0 L87 18 L0 18 L0 0 Z" />
      </clipPath>
      <clipPath clipPathUnits="userSpaceOnUse" id="clipPath31">
        <path d="M0 0 L314 0 L314 253 L0 253 L0 0 Z" />
      </clipPath>
      <clipPath clipPathUnits="userSpaceOnUse" id="clipPath32">
        <path d="M0 0 L154 0 L154 213 L0 213 L0 0 Z" />
      </clipPath>
      <clipPath clipPathUnits="userSpaceOnUse" id="clipPath33">
        <path d="M0 0 L104 0 L104 213 L0 213 L0 0 Z" />
      </clipPath>
      <clipPath clipPathUnits="userSpaceOnUse" id="clipPath34">
        <path d="M0 0 L104 0 L104 143 L0 143 L0 0 Z" />
      </clipPath>
      <clipPath clipPathUnits="userSpaceOnUse" id="clipPath35">
        <path d="M0 0 L183 0 L183 104 L0 104 L0 0 Z" />
      </clipPath>
      <clipPath clipPathUnits="userSpaceOnUse" id="clipPath36">
        <path d="M0 0 L334 0 L334 203 L0 203 L0 0 Z" />
      </clipPath>
      <clipPath clipPathUnits="userSpaceOnUse" id="clipPath37">
        <path d="M0 0 L224 0 L224 163 L0 163 L0 0 Z" />
      </clipPath>
      <clipPath clipPathUnits="userSpaceOnUse" id="clipPath38">
        <path d="M0 0 L104 0 L104 133 L0 133 L0 0 Z" />
      </clipPath>
    </defs>
    <g style="fill:white; text-rendering:optimizeLegibility; stroke:white;">
      <rect x="0" y="0" width="526" style="stroke:none;" height="415" />
    </g>
    <g transform="translate(2,2)" style="font-size:11; fill:white; text-rendering:optimizeLegibility; font-family:sans-serif; stroke:white; font-weight:bold;">
      <rect x="0" y="0" width="190" style="clip-path:url(#clipPath1); stroke:none;" height="160" />
    </g>
    <g transform="translate(2,2)" style="stroke-linecap:butt; font-size:11; text-rendering:optimizeLegibility; stroke-linejoin:bevel; font-family:sans-serif; font-weight:bold; stroke-miterlimit:0;">
      <rect x="0" y="0" width="190" style="clip-path:url(#clipPath1); fill:none;" height="160" />
      <line x1="0" x2="190" y1="28" style="clip-path:url(#clipPath1); fill:none;" y2="28" />
    </g>
    <g transform="translate(2,192)" style="font-size:11; fill:white; text-rendering:optimizeLegibility; font-family:sans-serif; stroke:white; font-weight:bold;">
      <rect x="0" y="0" width="190" style="clip-path:url(#clipPath2); stroke:none;" height="60" />
    </g>
    <g transform="translate(2,192)" style="stroke-linecap:butt; font-size:11; text-rendering:optimizeLegibility; stroke-linejoin:bevel; font-family:sans-serif; font-weight:bold; stroke-miterlimit:0;">
      <rect x="0" y="0" width="190" style="clip-path:url(#clipPath2); fill:none;" height="60" />
      <line x1="0" x2="190" y1="14" style="clip-path:url(#clipPath2); fill:none;" y2="14" />
    </g>
    <g transform="translate(2,292)" style="font-size:11; fill:white; text-rendering:optimizeLegibility; font-family:sans-serif; stroke:white; font-weight:bold;">
      <rect x="0" y="0" width="120" style="clip-path:url(#clipPath3); stroke:none;" height="40" />
    </g>
    <g transform="translate(2,292)" style="stroke-linecap:butt; font-size:11; text-rendering:optimizeLegibility; stroke-linejoin:bevel; font-family:sans-serif; font-weight:bold; stroke-miterlimit:0;">
      <rect x="0" y="0" width="120" style="clip-path:url(#clipPath3); fill:none;" height="40" />
      <line x1="0" x2="120" y1="14" style="clip-path:url(#clipPath3); fill:none;" y2="14" />
    </g>
    <g transform="translate(142,292)" style="font-size:11; fill:white; text-rendering:optimizeLegibility; font-family:sans-serif; stroke:white; font-weight:bold;">
      <rect x="0" y="0" width="90" style="clip-path:url(#clipPath4); stroke:none;" height="40" />
    </g>
    <g transform="translate(142,292)" style="stroke-linecap:butt; font-size:11; text-rendering:optimizeLegibility; stroke-linejoin:bevel; font-family:sans-serif; font-weight:bold; stroke-miterlimit:0;">
      <rect x="0" y="0" width="90" style="clip-path:url(#clipPath4); fill:none;" height="40" />
      <line x1="0" x2="90" y1="14" style="clip-path:url(#clipPath4); fill:none;" y2="14" />
    </g>
    <g transform="translate(252,292)" style="font-size:11; fill:white; text-rendering:optimizeLegibility; font-family:sans-serif; stroke:white; font-weight:bold;">
      <rect x="0" y="0" width="140" style="clip-path:url(#clipPath5); stroke:none;" height="40" />
    </g>
    <g transform="translate(252,292)" style="stroke-linecap:butt; font-size:11; text-rendering:optimizeLegibility; stroke-linejoin:bevel; font-family:sans-serif; font-weight:bold; stroke-miterlimit:0;">
      <rect x="0" y="0" width="140" style="clip-path:url(#clipPath5); fill:none;" height="40" />
      <line x1="0" x2="140" y1="14" style="clip-path:url(#clipPath5); fill:none;" y2="14" />
    </g>
    <g transform="translate(412,292)" style="font-size:11; fill:white; text-rendering:optimizeLegibility; font-family:sans-serif; stroke:white; font-weight:bold;">
      <rect x="0" y="0" width="110" style="clip-path:url(#clipPath6); stroke:none;" height="40" />
    </g>
    <g transform="translate(412,292)" style="stroke-linecap:butt; font-size:11; text-rendering:optimizeLegibility; stroke-linejoin:bevel; font-family:sans-serif; font-weight:bold; stroke-miterlimit:0;">
      <rect x="0" y="0" width="110" style="clip-path:url(#clipPath6); fill:none;" height="40" />
      <line x1="0" x2="110" y1="14" style="clip-path:url(#clipPath6); fill:none;" y2="14" />
    </g>
    <g transform="translate(272,2)" style="font-size:11; fill:white; text-rendering:optimizeLegibility; font-family:sans-serif; stroke:white; font-weight:bold;">
      <rect x="0" y="0" width="250" style="clip-path:url(#clipPath7); stroke:none;" height="70" />
    </g>
    <g transform="translate(272,2)" style="stroke-linecap:butt; font-size:11; text-rendering:optimizeLegibility; stroke-linejoin:bevel; font-family:sans-serif; font-weight:bold; stroke-miterlimit:0;">
      <rect x="0" y="0" width="250" style="clip-path:url(#clipPath7); fill:none;" height="70" />
      <line x1="0" x2="250" y1="28" style="clip-path:url(#clipPath7); fill:none;" y2="28" />
    </g>
    <g transform="translate(272,112)" style="font-size:11; fill:white; text-rendering:optimizeLegibility; font-family:sans-serif; stroke:white; font-weight:bold;">
      <rect x="0" y="0" width="250" style="clip-path:url(#clipPath8); stroke:none;" height="90" />
    </g>
    <g transform="translate(272,112)" style="stroke-linecap:butt; font-size:11; text-rendering:optimizeLegibility; stroke-linejoin:bevel; font-family:sans-serif; font-weight:bold; stroke-miterlimit:0;">
      <rect x="0" y="0" width="250" style="clip-path:url(#clipPath8); fill:none;" height="90" />
      <line x1="0" x2="250" y1="28" style="clip-path:url(#clipPath8); fill:none;" y2="28" />
    </g>
    <g transform="translate(2,362)" style="font-size:11; fill:white; text-rendering:optimizeLegibility; font-family:sans-serif; stroke:white; font-weight:bold;">
      <rect x="0" y="0" width="180" style="clip-path:url(#clipPath9); stroke:none;" height="40" />
    </g>
    <g transform="translate(2,362)" style="stroke-linecap:butt; font-size:11; text-rendering:optimizeLegibility; stroke-linejoin:bevel; font-family:sans-serif; font-weight:bold; stroke-miterlimit:0;">
      <rect x="0" y="0" width="180" style="clip-path:url(#clipPath9); fill:none;" height="40" />
      <line x1="0" x2="180" y1="14" style="clip-path:url(#clipPath9); fill:none;" y2="14" />
    </g>
    <g transform="translate(202,362)" style="font-size:11; fill:white; text-rendering:optimizeLegibility; font-family:sans-serif; stroke:white; font-weight:bold;">
      <rect x="0" y="0" width="150" style="clip-path:url(#clipPath10); stroke:none;" height="40" />
    </g>
    <g transform="translate(202,362)" style="stroke-linecap:butt; font-size:11; text-rendering:optimizeLegibility; stroke-linejoin:bevel; font-family:sans-serif; font-weight:bold; stroke-miterlimit:0;">
      <rect x="0" y="0" width="150" style="clip-path:url(#clipPath10); fill:none;" height="40" />
      <line x1="0" x2="150" y1="14" style="clip-path:url(#clipPath10); fill:none;" y2="14" />
    </g>
    <g transform="translate(372,362)" style="font-size:11; fill:white; text-rendering:optimizeLegibility; font-family:sans-serif; stroke:white; font-weight:bold;">
      <rect x="0" y="0" width="150" style="clip-path:url(#clipPath10); stroke:none;" height="40" />
    </g>
    <g transform="translate(372,362)" style="stroke-linecap:butt; font-size:11; text-rendering:optimizeLegibility; stroke-linejoin:bevel; font-family:sans-serif; font-weight:bold; stroke-miterlimit:0;">
      <rect x="0" y="0" width="150" style="clip-path:url(#clipPath10); fill:none;" height="40" />
      <line x1="0" x2="150" y1="14" style="clip-path:url(#clipPath10); fill:none;" y2="14" />
    </g>
    <g style="text-rendering:optimizeLegibility; font-size:11; font-family:sans-serif;" transform="translate(272,140)">
      <text x="2" y="13" style="clip-path:url(#clipPath13); stroke:none;" xml:space="preserve">+add(factory : CrawlerFactory)</text>
      <text x="2" y="27" style="clip-path:url(#clipPath13); stroke:none;" xml:space="preserve">+remove(factory : CrawlerFactory)</text>
      <text x="2" y="41" style="clip-path:url(#clipPath13); stroke:none;" xml:space="preserve">+get(type URI) : Set</text>
      <text x="2" y="55" style="clip-path:url(#clipPath13); stroke:none;" xml:space="preserve">+getAll() : Set</text>
    </g>
    <g style="text-rendering:optimizeLegibility; font-size:11; font-family:sans-serif;" transform="translate(2,30)">
      <text x="2" y="13" style="clip-path:url(#clipPath18); stroke:none;" xml:space="preserve">-registry : DataAccessorRegistry</text>
      <text x="2" y="27" style="clip-path:url(#clipPath18); stroke:none;" xml:space="preserve">-accessData : AccessData</text>
      <text x="2" y="41" style="clip-path:url(#clipPath18); stroke:none;" xml:space="preserve">-handler : CrawlerHandler</text>
      <text x="2" y="55" style="clip-path:url(#clipPath18); stroke:none;" xml:space="preserve">-dataSource : DataSource</text>
      <line x1="0" x2="190" y1="60" style="stroke-linecap:butt; clip-path:url(#clipPath18); fill:none; stroke-linejoin:bevel; stroke-miterlimit:0;" y2="60" />
      <text x="2" y="73" style="clip-path:url(#clipPath18); stroke:none;" xml:space="preserve">+crawl()</text>
      <text x="2" y="87" style="clip-path:url(#clipPath18); stroke:none;" xml:space="preserve">+clear()</text>
      <text x="2" y="101" style="clip-path:url(#clipPath18); stroke:none;" xml:space="preserve">+stop()</text>
      <text x="2" y="115" style="clip-path:url(#clipPath18); stroke:none;" xml:space="preserve">+getCrawlReport() : CrawlReport</text>
    </g>
    <g transform="translate(2,206)" style="font-style:italic; text-rendering:optimizeLegibility; font-size:11; font-family:sans-serif;">
      <text x="2" y="13" style="clip-path:url(#clipPath19); stroke:none;" xml:space="preserve">#crawlObjects()</text>
    </g>
    <g style="text-rendering:optimizeLegibility; font-size:11; font-family:sans-serif;" transform="translate(272,30)">
      <text x="2" y="13" style="clip-path:url(#clipPath20); stroke:none;" xml:space="preserve">+getSupportedTypes() : Set</text>
      <text x="2" y="27" style="clip-path:url(#clipPath20); stroke:none;" xml:space="preserve">+getCrawler(source : DataSource) : Crawler</text>
    </g>
    <g style="text-rendering:optimizeLegibility; font-size:11; font-family:sans-serif;" transform="translate(2,2)">
      <text x="53" y="11" style="clip-path:url(#clipPath21); stroke:none;" xml:space="preserve">&lt;&lt;interface&gt;&gt;</text>
      <text x="73" y="25" style="clip-path:url(#clipPath21); stroke:none; font-weight:bold;" xml:space="preserve">Crawler</text>
    </g>
    <g transform="translate(2,292)" style="text-rendering:optimizeLegibility; font-size:11; font-weight:bold; font-family:sans-serif;">
      <text x="9" y="11" style="clip-path:url(#clipPath22); stroke:none;" xml:space="preserve">FileSystemCrawler</text>
    </g>
    <g transform="translate(2,192)" style="text-rendering:optimizeLegibility; font-size:11; font-weight:bold; font-family:sans-serif;">
      <text x="61" y="11" style="clip-path:url(#clipPath23); stroke:none;" xml:space="preserve">CrawlerBase</text>
    </g>
    <g transform="translate(142,292)" style="text-rendering:optimizeLegibility; font-size:11; font-weight:bold; font-family:sans-serif;">
      <text x="9" y="11" style="clip-path:url(#clipPath24); stroke:none;" xml:space="preserve">ImapCrawler</text>
    </g>
    <g transform="translate(2,362)" style="text-rendering:optimizeLegibility; font-size:11; font-weight:bold; font-family:sans-serif;">
      <text x="16" y="11" style="clip-path:url(#clipPath25); stroke:none;" xml:space="preserve">AppleAddressbookCrawler</text>
    </g>
    <g transform="translate(252,292)" style="text-rendering:optimizeLegibility; font-size:11; font-weight:bold; font-family:sans-serif;">
      <text x="19" y="11" style="clip-path:url(#clipPath26); stroke:none;" xml:space="preserve">FileSystemCrawler</text>
    </g>
    <g transform="translate(202,362)" style="text-rendering:optimizeLegibility; font-size:11; font-weight:bold; font-family:sans-serif;">
      <text x="31" y="11" style="clip-path:url(#clipPath27); stroke:none;" xml:space="preserve">OutlookCrawler</text>
    </g>
    <g transform="translate(412,292)" style="text-rendering:optimizeLegibility; font-size:11; font-weight:bold; font-family:sans-serif;">
      <text x="23" y="11" style="clip-path:url(#clipPath28); stroke:none;" xml:space="preserve">IcalCrawler</text>
    </g>
    <g style="text-rendering:optimizeLegibility; font-size:11; font-family:sans-serif;" transform="translate(272,2)">
      <text x="83" y="11" style="clip-path:url(#clipPath29); stroke:none;" xml:space="preserve">&lt;&lt;interface&gt;&gt;</text>
      <text x="83" y="25" style="clip-path:url(#clipPath29); stroke:none; font-weight:bold;" xml:space="preserve">CrawlerFactory</text>
    </g>
    <g style="text-rendering:optimizeLegibility; font-size:11; font-family:sans-serif;" transform="translate(272,112)">
      <text x="83" y="11" style="clip-path:url(#clipPath29); stroke:none;" xml:space="preserve">&lt;&lt;interface&gt;&gt;</text>
      <text x="80" y="25" style="clip-path:url(#clipPath29); stroke:none; font-weight:bold;" xml:space="preserve">CrawlerRegistry</text>
    </g>
    <g style="text-rendering:optimizeLegibility; font-size:11; font-family:sans-serif;" transform="translate(196,32)">
      <text x="9" y="11" style="clip-path:url(#clipPath30); stroke:none;" xml:space="preserve">producedBy</text>
    </g>
    <g transform="translate(372,362)" style="text-rendering:optimizeLegibility; font-size:11; font-weight:bold; font-family:sans-serif;">
      <text x="18" y="11" style="clip-path:url(#clipPath27); stroke:none;" xml:space="preserve">ThunderbirdCrawler</text>
    </g>
    <g transform="translate(142,162)" style="stroke-linecap:butt; font-size:11; fill-opacity:0.9961; fill:rgb(0,0,0); text-rendering:optimizeLegibility; stroke-linejoin:round; font-family:sans-serif; stroke:rgb(0,0,0); stroke-opacity:0.9961;">
      <line x1="50" x2="80" y1="50" style="clip-path:url(#clipPath31); fill:none;" y2="50" />
      <line x1="80" x2="260" y1="50" style="clip-path:url(#clipPath31); fill:none;" y2="130" />
      <line x1="260" x2="260" y1="130" style="clip-path:url(#clipPath31); fill:none;" y2="199" />
    </g>
    <g transform="translate(142,162)" style="stroke-linecap:butt; font-size:11; fill:white; text-rendering:optimizeLegibility; font-family:sans-serif; stroke-linejoin:round; stroke:white;">
      <polygon style="clip-path:url(#clipPath31); stroke:none;" points=" 50 50 62 56 62 44" />
    </g>
    <g transform="translate(142,162)" style="stroke-linecap:butt; font-size:11; fill-opacity:0.9961; fill:rgb(0,0,0); text-rendering:optimizeLegibility; stroke-linejoin:round; font-family:sans-serif; stroke:rgb(0,0,0); stroke-opacity:0.9961;">
      <polygon style="fill:none; clip-path:url(#clipPath31);" points=" 50 50 62 56 62 44" />
    </g>
    <g transform="translate(142,202)" style="stroke-linecap:butt; font-size:11; fill-opacity:0.9961; fill:rgb(0,0,0); text-rendering:optimizeLegibility; stroke-linejoin:round; font-family:sans-serif; stroke:rgb(0,0,0); stroke-opacity:0.9961;">
      <line x1="50" x2="80" y1="50" style="clip-path:url(#clipPath32); fill:none;" y2="50" />
      <line x1="80" x2="100" y1="50" style="clip-path:url(#clipPath32); fill:none;" y2="60" />
      <line x1="100" x2="100" y1="60" style="clip-path:url(#clipPath32); fill:none;" y2="159" />
    </g>
    <g transform="translate(142,202)" style="stroke-linecap:butt; font-size:11; fill:white; text-rendering:optimizeLegibility; font-family:sans-serif; stroke-linejoin:round; stroke:white;">
      <polygon style="clip-path:url(#clipPath32); stroke:none;" points=" 50 50 62 56 62 44" />
    </g>
    <g transform="translate(142,202)" style="stroke-linecap:butt; font-size:11; fill-opacity:0.9961; fill:rgb(0,0,0); text-rendering:optimizeLegibility; stroke-linejoin:round; font-family:sans-serif; stroke:rgb(0,0,0); stroke-opacity:0.9961;">
      <polygon style="fill:none; clip-path:url(#clipPath32);" points=" 50 50 62 56 62 44" />
    </g>
    <g transform="translate(82,202)" style="stroke-linecap:butt; font-size:11; fill-opacity:0.9961; fill:rgb(0,0,0); text-rendering:optimizeLegibility; stroke-linejoin:round; font-family:sans-serif; stroke:rgb(0,0,0); stroke-opacity:0.9961;">
      <line x1="50" x2="50" y1="50" style="clip-path:url(#clipPath33); fill:none;" y2="159" />
    </g>
    <g transform="translate(82,202)" style="stroke-linecap:butt; font-size:11; fill:white; text-rendering:optimizeLegibility; font-family:sans-serif; stroke-linejoin:round; stroke:white;">
      <polygon style="clip-path:url(#clipPath33); stroke:none;" points=" 50 50 44 62 56 62" />
    </g>
    <g transform="translate(82,202)" style="stroke-linecap:butt; font-size:11; fill-opacity:0.9961; fill:rgb(0,0,0); text-rendering:optimizeLegibility; stroke-linejoin:round; font-family:sans-serif; stroke:rgb(0,0,0); stroke-opacity:0.9961;">
      <polygon style="fill:none; clip-path:url(#clipPath33);" points=" 50 50 44 62 56 62" />
    </g>
    <g transform="translate(342,22)" style="stroke-linecap:butt; font-size:11; fill-opacity:0.9961; fill:rgb(0,0,0); text-rendering:optimizeLegibility; stroke-linejoin:round; font-family:sans-serif; stroke:rgb(0,0,0); stroke-opacity:0.9961;">
      <line x1="50" x2="50" y1="65" style="clip-path:url(#clipPath34); fill:none;" y2="50" />
      <polygon style="fill:none; clip-path:url(#clipPath34);" points=" 50 89 56 77 50 65 44 77" />
    </g>
    <g transform="translate(142,2)" style="stroke-linecap:butt; font-size:11; fill-opacity:0.9961; fill:rgb(0,0,0); text-rendering:optimizeLegibility; stroke-linejoin:round; font-family:sans-serif; stroke:rgb(0,0,0); stroke-opacity:0.9961;">
      <line x1="50" x2="129" y1="50" style="clip-path:url(#clipPath35); fill:none;" y2="50" />
    </g>
    <g transform="translate(142,142)" style="stroke-linecap:butt; font-size:11; fill-opacity:0.9961; fill:rgb(0,0,0); text-rendering:optimizeLegibility; stroke-linejoin:round; font-family:sans-serif; stroke:rgb(0,0,0); stroke-opacity:0.9961;">
      <line x1="50" x2="80" y1="50" style="clip-path:url(#clipPath36); fill:none;" y2="50" />
      <line x1="80" x2="280" y1="50" style="clip-path:url(#clipPath36); fill:none;" y2="140" />
      <line x1="280" x2="280" y1="140" style="clip-path:url(#clipPath36); fill:none;" y2="149" />
    </g>
    <g transform="translate(142,142)" style="stroke-linecap:butt; font-size:11; fill:white; text-rendering:optimizeLegibility; font-family:sans-serif; stroke-linejoin:round; stroke:white;">
      <polygon style="clip-path:url(#clipPath36); stroke:none;" points=" 50 50 62 56 62 44" />
    </g>
    <g transform="translate(142,142)" style="stroke-linecap:butt; font-size:11; fill-opacity:0.9961; fill:rgb(0,0,0); text-rendering:optimizeLegibility; stroke-linejoin:round; font-family:sans-serif; stroke:rgb(0,0,0); stroke-opacity:0.9961;">
      <polygon style="fill:none; clip-path:url(#clipPath36);" points=" 50 50 62 56 62 44" />
    </g>
    <g transform="translate(142,182)" style="stroke-linecap:butt; font-size:11; fill-opacity:0.9961; fill:rgb(0,0,0); text-rendering:optimizeLegibility; stroke-linejoin:round; font-family:sans-serif; stroke:rgb(0,0,0); stroke-opacity:0.9961;">
      <line x1="50" x2="80" y1="50" style="clip-path:url(#clipPath37); fill:none;" y2="50" />
      <line x1="80" x2="170" y1="50" style="clip-path:url(#clipPath37); fill:none;" y2="90" />
      <line x1="170" x2="170" y1="90" style="clip-path:url(#clipPath37); fill:none;" y2="109" />
    </g>
    <g transform="translate(142,182)" style="stroke-linecap:butt; font-size:11; fill:white; text-rendering:optimizeLegibility; font-family:sans-serif; stroke-linejoin:round; stroke:white;">
      <polygon style="clip-path:url(#clipPath37); stroke:none;" points=" 50 50 62 56 62 44" />
    </g>
    <g transform="translate(142,182)" style="stroke-linecap:butt; font-size:11; fill-opacity:0.9961; fill:rgb(0,0,0); text-rendering:optimizeLegibility; stroke-linejoin:round; font-family:sans-serif; stroke:rgb(0,0,0); stroke-opacity:0.9961;">
      <polygon style="fill:none; clip-path:url(#clipPath37);" points=" 50 50 62 56 62 44" />
    </g>
    <g transform="translate(122,202)" style="stroke-linecap:butt; font-size:11; fill-opacity:0.9961; fill:rgb(0,0,0); text-rendering:optimizeLegibility; stroke-linejoin:round; font-family:sans-serif; stroke:rgb(0,0,0); stroke-opacity:0.9961;">
      <line x1="50" x2="50" y1="50" style="clip-path:url(#clipPath34); fill:none;" y2="89" />
    </g>
    <g transform="translate(122,202)" style="stroke-linecap:butt; font-size:11; fill:white; text-rendering:optimizeLegibility; font-family:sans-serif; stroke-linejoin:round; stroke:white;">
      <polygon style="clip-path:url(#clipPath34); stroke:none;" points=" 50 50 44 62 56 62" />
    </g>
    <g transform="translate(122,202)" style="stroke-linecap:butt; font-size:11; fill-opacity:0.9961; fill:rgb(0,0,0); text-rendering:optimizeLegibility; stroke-linejoin:round; font-family:sans-serif; stroke:rgb(0,0,0); stroke-opacity:0.9961;">
      <polygon style="fill:none; clip-path:url(#clipPath34);" points=" 50 50 44 62 56 62" />
    </g>
    <g transform="translate(42,202)" style="stroke-linecap:butt; font-size:11; fill-opacity:0.9961; fill:rgb(0,0,0); text-rendering:optimizeLegibility; stroke-linejoin:round; font-family:sans-serif; stroke:rgb(0,0,0); stroke-opacity:0.9961;">
      <line x1="50" x2="50" y1="50" style="clip-path:url(#clipPath34); fill:none;" y2="89" />
    </g>
    <g transform="translate(42,202)" style="stroke-linecap:butt; font-size:11; fill:white; text-rendering:optimizeLegibility; font-family:sans-serif; stroke-linejoin:round; stroke:white;">
      <polygon style="clip-path:url(#clipPath34); stroke:none;" points=" 50 50 44 62 56 62" />
    </g>
    <g transform="translate(42,202)" style="stroke-linecap:butt; font-size:11; fill-opacity:0.9961; fill:rgb(0,0,0); text-rendering:optimizeLegibility; stroke-linejoin:round; font-family:sans-serif; stroke:rgb(0,0,0); stroke-opacity:0.9961;">
      <polygon style="fill:none; clip-path:url(#clipPath34);" points=" 50 50 44 62 56 62" />
    </g>
    <g transform="translate(22,112)" style="stroke-linecap:butt; font-size:11; fill-opacity:0.9961; fill:rgb(0,0,0); text-rendering:optimizeLegibility; stroke-linejoin:round; font-family:sans-serif; stroke:rgb(0,0,0); stroke-opacity:0.9961;">
      <line x1="50" x2="50" y1="50" style="clip-path:url(#clipPath38); fill:none;" y2="79" />
    </g>
    <g transform="translate(22,112)" style="stroke-linecap:butt; font-size:11; fill:white; text-rendering:optimizeLegibility; font-family:sans-serif; stroke-linejoin:round; stroke:white;">
      <polygon style="clip-path:url(#clipPath38); stroke:none;" points=" 50 50 44 62 56 62" />
    </g>
    <g transform="translate(22,112)" style="stroke-linecap:butt; font-size:11; fill-opacity:0.9961; fill:rgb(0,0,0); text-rendering:optimizeLegibility; stroke-linejoin:round; font-family:sans-serif; stroke:rgb(0,0,0); stroke-opacity:0.9961;">
      <polygon style="fill:none; clip-path:url(#clipPath38);" points=" 50 50 44 62 56 62" />
    </g>
    <g style="fill:rgb(120,120,120); text-rendering:optimizeLegibility; font-size:8; stroke:rgb(120,120,120);">
      <text xml:space="preserve" x="0" y="10" style="stroke:none;"></text>
      <text xml:space="preserve" x="0" y="10" style="stroke:none;"></text>
    </g>
  </g>
</svg>
