<?xml version="1.0" encoding="UTF-8"?>

<!DOCTYPE svg PUBLIC '-//W3C//DTD SVG 1.0//EN' 'http://www.w3.org/TR/2001/REC-SVG-20010904/DTD/svg10.dtd'>
<svg style="fill-opacity:1; color-rendering:auto; color-interpolation:auto; text-rendering:auto; stroke:black; stroke-linecap:square; stroke-miterlimit:10; shape-rendering:auto; stroke-opacity:1; fill:black; stroke-dasharray:none; font-weight:normal; stroke-width:1; font-family:&apos;Dialog&apos;; font-style:normal; stroke-linejoin:miter; font-size:12; stroke-dashoffset:0; image-rendering:auto;" xmlns="http://www.w3.org/2000/svg" width="486" xmlns:xlink="http://www.w3.org/1999/xlink" height="285">
  <!--Generated by the Batik Graphics2D SVG Generator-->
  <defs id="genericDefs" />
  <g>
    <defs id="defs1">
      <clipPath clipPathUnits="userSpaceOnUse" id="clipPath1">
        <path d="M-3 -3 L117 -3 L117 47 L-3 47 L-3 -3 Z" />
      </clipPath>
      <clipPath clipPathUnits="userSpaceOnUse" id="clipPath2">
        <path d="M0 0 L114 0 L114 16 L0 16 L0 0 Z" />
      </clipPath>
      <clipPath clipPathUnits="userSpaceOnUse" id="clipPath3">
        <path d="M0 0 L114 0 L114 32 L0 32 L0 0 Z" />
      </clipPath>
      <clipPath clipPathUnits="userSpaceOnUse" id="clipPath4">
        <path d="M0 0 L78 0 L78 32 L0 32 L0 0 Z" />
      </clipPath>
      <clipPath clipPathUnits="userSpaceOnUse" id="clipPath5">
        <path d="M0 0 L60 0 L60 18 L0 18 L0 0 Z" />
      </clipPath>
      <clipPath clipPathUnits="userSpaceOnUse" id="clipPath6">
        <path d="M0 0 L48 0 L48 18 L0 18 L0 0 Z" />
      </clipPath>
      <clipPath clipPathUnits="userSpaceOnUse" id="clipPath7">
        <path d="M0 0 L57 0 L57 18 L0 18 L0 0 Z" />
      </clipPath>
      <clipPath clipPathUnits="userSpaceOnUse" id="clipPath8">
        <path d="M0 0 L104 0 L104 173 L0 173 L0 0 Z" />
      </clipPath>
      <clipPath clipPathUnits="userSpaceOnUse" id="clipPath9">
        <path d="M0 0 L104 0 L104 194 L0 194 L0 0 Z" />
      </clipPath>
      <clipPath clipPathUnits="userSpaceOnUse" id="clipPath10">
        <path d="M0 0 L183 0 L183 104 L0 104 L0 0 Z" />
      </clipPath>
      <clipPath clipPathUnits="userSpaceOnUse" id="clipPath11">
        <path d="M0 0 L173 0 L173 104 L0 104 L0 0 Z" />
      </clipPath>
    </defs>
    <g style="fill:white; text-rendering:optimizeLegibility; stroke:white;">
      <rect x="0" y="0" width="486" style="stroke:none;" height="285" />
    </g>
    <g transform="translate(2,122)" style="font-size:11; fill:white; text-rendering:optimizeLegibility; font-family:sans-serif; stroke:white; font-weight:bold;">
      <rect x="0" y="0" width="110" style="clip-path:url(#clipPath1); stroke:none;" height="40" />
    </g>
    <g transform="translate(2,122)" style="stroke-linecap:butt; font-size:11; text-rendering:optimizeLegibility; stroke-linejoin:bevel; font-family:sans-serif; font-weight:bold; stroke-miterlimit:0;">
      <rect x="0" y="0" width="110" style="clip-path:url(#clipPath1); fill:none;" height="40" />
      <line x1="0" x2="110" y1="28" style="clip-path:url(#clipPath1); fill:none;" y2="28" />
    </g>
    <g transform="translate(182,122)" style="font-size:11; fill:white; text-rendering:optimizeLegibility; font-family:sans-serif; stroke:white; font-weight:bold;">
      <rect x="0" y="0" width="110" style="clip-path:url(#clipPath1); stroke:none;" height="40" />
    </g>
    <g transform="translate(182,122)" style="stroke-linecap:butt; font-size:11; text-rendering:optimizeLegibility; stroke-linejoin:bevel; font-family:sans-serif; font-weight:bold; stroke-miterlimit:0;">
      <rect x="0" y="0" width="110" style="clip-path:url(#clipPath1); fill:none;" height="40" />
      <line x1="0" x2="110" y1="28" style="clip-path:url(#clipPath1); fill:none;" y2="28" />
    </g>
    <g transform="translate(302,12)" style="font-size:11; fill:white; text-rendering:optimizeLegibility; font-family:sans-serif; stroke:white; font-weight:bold;">
      <rect x="0" y="0" width="110" style="clip-path:url(#clipPath1); stroke:none;" height="40" />
    </g>
    <g transform="translate(302,12)" style="stroke-linecap:butt; font-size:11; text-rendering:optimizeLegibility; stroke-linejoin:bevel; font-family:sans-serif; font-weight:bold; stroke-miterlimit:0;">
      <rect x="0" y="0" width="110" style="clip-path:url(#clipPath1); fill:none;" height="40" />
      <line x1="0" x2="110" y1="28" style="clip-path:url(#clipPath1); fill:none;" y2="28" />
    </g>
    <g transform="translate(172,12)" style="font-size:11; fill:white; text-rendering:optimizeLegibility; font-family:sans-serif; stroke:white; font-weight:bold;">
      <rect x="0" y="0" width="110" style="clip-path:url(#clipPath1); stroke:none;" height="40" />
    </g>
    <g transform="translate(172,12)" style="stroke-linecap:butt; font-size:11; text-rendering:optimizeLegibility; stroke-linejoin:bevel; font-family:sans-serif; font-weight:bold; stroke-miterlimit:0;">
      <rect x="0" y="0" width="110" style="clip-path:url(#clipPath1); fill:none;" height="40" />
      <line x1="0" x2="110" y1="28" style="clip-path:url(#clipPath1); fill:none;" y2="28" />
    </g>
    <g transform="translate(372,122)" style="font-size:11; fill:white; text-rendering:optimizeLegibility; font-family:sans-serif; stroke:white; font-weight:bold;">
      <rect x="0" y="0" width="110" style="clip-path:url(#clipPath1); stroke:none;" height="40" />
    </g>
    <g transform="translate(372,122)" style="stroke-linecap:butt; font-size:11; text-rendering:optimizeLegibility; stroke-linejoin:bevel; font-family:sans-serif; font-weight:bold; stroke-miterlimit:0;">
      <rect x="0" y="0" width="110" style="clip-path:url(#clipPath1); fill:none;" height="40" />
      <line x1="0" x2="110" y1="28" style="clip-path:url(#clipPath1); fill:none;" y2="28" />
    </g>
    <g transform="translate(192,232)" style="font-size:11; fill:white; text-rendering:optimizeLegibility; font-family:sans-serif; stroke:white; font-weight:bold;">
      <rect x="0" y="0" width="110" style="clip-path:url(#clipPath1); stroke:none;" height="40" />
    </g>
    <g transform="translate(192,232)" style="stroke-linecap:butt; font-size:11; text-rendering:optimizeLegibility; stroke-linejoin:bevel; font-family:sans-serif; font-weight:bold; stroke-miterlimit:0;">
      <rect x="0" y="0" width="110" style="clip-path:url(#clipPath1); fill:none;" height="40" />
      <line x1="0" x2="110" y1="28" style="clip-path:url(#clipPath1); fill:none;" y2="28" />
    </g>
    <g style="text-rendering:optimizeLegibility; font-size:11; font-family:sans-serif;" transform="translate(2,122)">
      <text x="13" y="11" style="clip-path:url(#clipPath3); stroke:none;" xml:space="preserve">&lt;&lt;interface&gt;&gt;</text>
      <text x="24" y="25" style="clip-path:url(#clipPath3); stroke:none; font-weight:bold;" xml:space="preserve">DataSource</text>
    </g>
    <g style="text-rendering:optimizeLegibility; font-size:11; font-family:sans-serif;" transform="translate(182,122)">
      <text x="13" y="11" style="clip-path:url(#clipPath3); stroke:none;" xml:space="preserve">&lt;&lt;interface&gt;&gt;</text>
      <text x="33" y="25" style="clip-path:url(#clipPath3); stroke:none; font-weight:bold;" xml:space="preserve">Crawler</text>
    </g>
    <g style="text-rendering:optimizeLegibility; font-size:11; font-family:sans-serif;" transform="translate(302,12)">
      <text x="13" y="11" style="clip-path:url(#clipPath3); stroke:none;" xml:space="preserve">&lt;&lt;interface&gt;&gt;</text>
      <text x="24" y="25" style="clip-path:url(#clipPath3); stroke:none; font-weight:bold;" xml:space="preserve">DataObject</text>
    </g>
    <g style="text-rendering:optimizeLegibility; font-size:11; font-family:sans-serif;" transform="translate(172,12)">
      <text x="13" y="11" style="clip-path:url(#clipPath3); stroke:none;" xml:space="preserve">&lt;&lt;interface&gt;&gt;</text>
      <text x="23" y="25" style="clip-path:url(#clipPath3); stroke:none; font-weight:bold;" xml:space="preserve">AccessData</text>
    </g>
    <g style="text-rendering:optimizeLegibility; font-size:11; font-family:sans-serif;" transform="translate(372,122)">
      <text x="13" y="11" style="clip-path:url(#clipPath3); stroke:none;" xml:space="preserve">&lt;&lt;interface&gt;&gt;</text>
      <text x="11" y="25" style="clip-path:url(#clipPath3); stroke:none; font-weight:bold;" xml:space="preserve">CrawlerHandler</text>
    </g>
    <g style="text-rendering:optimizeLegibility; font-size:11; font-family:sans-serif;" transform="translate(207,181)">
      <text x="9" y="11" style="clip-path:url(#clipPath4); stroke:none;" xml:space="preserve">&lt;&lt;use&gt;&gt;</text>
      <text x="11" y="25" style="clip-path:url(#clipPath4); stroke:none;" xml:space="preserve">(optional)</text>
    </g>
    <g style="text-rendering:optimizeLegibility; font-size:11; font-family:sans-serif;" transform="translate(300,142)">
      <text x="9" y="11" style="clip-path:url(#clipPath5); stroke:none;" xml:space="preserve">passes</text>
    </g>
    <g style="text-rendering:optimizeLegibility; font-size:11; font-family:sans-serif;" transform="translate(192,232)">
      <text x="13" y="11" style="clip-path:url(#clipPath3); stroke:none;" xml:space="preserve">&lt;&lt;interface&gt;&gt;</text>
      <text x="17" y="25" style="clip-path:url(#clipPath3); stroke:none; font-weight:bold;" xml:space="preserve">DataAccessor</text>
    </g>
    <g style="text-rendering:optimizeLegibility; font-size:11; font-family:sans-serif;" transform="translate(212,70)">
      <text x="9" y="11" style="clip-path:url(#clipPath6); stroke:none;" xml:space="preserve">uses</text>
    </g>
    <g style="text-rendering:optimizeLegibility; font-size:11; font-family:sans-serif;" transform="translate(115,142)">
      <text x="9" y="11" style="clip-path:url(#clipPath7); stroke:none;" xml:space="preserve">crawls</text>
    </g>
    <g style="fill-opacity:0.9961; text-rendering:optimizeLegibility; stroke:rgb(0,0,0); stroke-linecap:butt; stroke-opacity:0.9961; fill:rgb(0,0,0); stroke-dasharray:5; font-family:sans-serif; stroke-linejoin:round; font-size:11; stroke-dashoffset:1;" transform="translate(192,112)">
      <line x1="50" x2="50" y1="50" style="clip-path:url(#clipPath8); fill:none;" y2="119" />
      <line x1="50" x2="56" y1="119" style="clip-path:url(#clipPath8); stroke-dashoffset:0; fill:none; stroke-dasharray:none;" y2="107" />
      <line x1="50" x2="44" y1="119" style="clip-path:url(#clipPath8); stroke-dashoffset:0; fill:none; stroke-dasharray:none;" y2="107" />
    </g>
    <g style="fill-opacity:0.9961; text-rendering:optimizeLegibility; stroke:rgb(0,0,0); stroke-linecap:butt; stroke-opacity:0.9961; fill:rgb(0,0,0); stroke-dasharray:5; font-family:sans-serif; stroke-linejoin:round; font-size:11; stroke-dashoffset:1;" transform="translate(281,2)">
      <line x1="50" x2="50" y1="140" style="clip-path:url(#clipPath9); fill:none;" y2="50" />
    </g>
    <g transform="translate(242,92)" style="stroke-linecap:butt; font-size:11; fill-opacity:0.9961; fill:rgb(0,0,0); text-rendering:optimizeLegibility; stroke-linejoin:round; font-family:sans-serif; stroke:rgb(0,0,0); stroke-opacity:0.9961;">
      <line x1="50" x2="129" y1="50" style="clip-path:url(#clipPath10); fill:none;" y2="50" />
    </g>
    <g transform="translate(192,2)" style="stroke-linecap:butt; font-size:11; fill-opacity:0.9961; fill:rgb(0,0,0); text-rendering:optimizeLegibility; stroke-linejoin:round; font-family:sans-serif; stroke:rgb(0,0,0); stroke-opacity:0.9961;">
      <line x1="50" x2="50" y1="50" style="clip-path:url(#clipPath8); fill:none;" y2="119" />
    </g>
    <g transform="translate(62,92)" style="stroke-linecap:butt; font-size:11; fill-opacity:0.9961; fill:rgb(0,0,0); text-rendering:optimizeLegibility; stroke-linejoin:round; font-family:sans-serif; stroke:rgb(0,0,0); stroke-opacity:0.9961;">
      <line x1="119" x2="50" y1="50" style="clip-path:url(#clipPath11); fill:none;" y2="50" />
    </g>
    <g style="fill:rgb(120,120,120); text-rendering:optimizeLegibility; font-size:8; stroke:rgb(120,120,120);">
      <text xml:space="preserve" x="0" y="10" style="stroke:none;"></text>
      <text xml:space="preserve" x="0" y="10" style="stroke:none;"></text>
    </g>
  </g>
</svg>
