<?xml version="1.0" encoding="UTF-8"?>

<!DOCTYPE svg PUBLIC '-//W3C//DTD SVG 1.0//EN' 'http://www.w3.org/TR/2001/REC-SVG-20010904/DTD/svg10.dtd'>
<svg style="fill-opacity:1; color-rendering:auto; color-interpolation:auto; text-rendering:auto; stroke:black; stroke-linecap:square; stroke-miterlimit:10; shape-rendering:auto; stroke-opacity:1; fill:black; stroke-dasharray:none; font-weight:normal; stroke-width:1; font-family:&apos;Dialog&apos;; font-style:normal; stroke-linejoin:miter; font-size:12; stroke-dashoffset:0; image-rendering:auto;" xmlns="http://www.w3.org/2000/svg" width="826" xmlns:xlink="http://www.w3.org/1999/xlink" height="316">
  <!--Generated by the Batik Graphics2D SVG Generator-->
  <defs id="genericDefs" />
  <g>
    <defs id="defs1">
      <clipPath clipPathUnits="userSpaceOnUse" id="clipPath1">
        <path d="M-3 -3 L827 -3 L827 77 L-3 77 L-3 -3 Z" />
      </clipPath>
      <clipPath clipPathUnits="userSpaceOnUse" id="clipPath2">
        <path d="M-3 -3 L107 -3 L107 47 L-3 47 L-3 -3 Z" />
      </clipPath>
      <clipPath clipPathUnits="userSpaceOnUse" id="clipPath3">
        <path d="M-3 -3 L197 -3 L197 77 L-3 77 L-3 -3 Z" />
      </clipPath>
      <clipPath clipPathUnits="userSpaceOnUse" id="clipPath4">
        <path d="M-3 -3 L157 -3 L157 47 L-3 47 L-3 -3 Z" />
      </clipPath>
      <clipPath clipPathUnits="userSpaceOnUse" id="clipPath5">
        <path d="M-3 -3 L167 -3 L167 47 L-3 47 L-3 -3 Z" />
      </clipPath>
      <clipPath clipPathUnits="userSpaceOnUse" id="clipPath6">
        <path d="M-3 -3 L297 -3 L297 107 L-3 107 L-3 -3 Z" />
      </clipPath>
      <clipPath clipPathUnits="userSpaceOnUse" id="clipPath7">
        <path d="M0 0 L824 0 L824 46 L0 46 L0 0 Z" />
      </clipPath>
      <clipPath clipPathUnits="userSpaceOnUse" id="clipPath8">
        <path d="M0 0 L104 0 L104 30 L0 30 L0 0 Z" />
      </clipPath>
      <clipPath clipPathUnits="userSpaceOnUse" id="clipPath9">
        <path d="M0 0 L194 0 L194 46 L0 46 L0 0 Z" />
      </clipPath>
      <clipPath clipPathUnits="userSpaceOnUse" id="clipPath10">
        <path d="M0 0 L154 0 L154 30 L0 30 L0 0 Z" />
      </clipPath>
      <clipPath clipPathUnits="userSpaceOnUse" id="clipPath11">
        <path d="M0 0 L294 0 L294 76 L0 76 L0 0 Z" />
      </clipPath>
      <clipPath clipPathUnits="userSpaceOnUse" id="clipPath12">
        <path d="M0 0 L164 0 L164 30 L0 30 L0 0 Z" />
      </clipPath>
      <clipPath clipPathUnits="userSpaceOnUse" id="clipPath13">
        <path d="M0 0 L824 0 L824 32 L0 32 L0 0 Z" />
      </clipPath>
      <clipPath clipPathUnits="userSpaceOnUse" id="clipPath14">
        <path d="M0 0 L104 0 L104 18 L0 18 L0 0 Z" />
      </clipPath>
      <clipPath clipPathUnits="userSpaceOnUse" id="clipPath15">
        <path d="M0 0 L194 0 L194 32 L0 32 L0 0 Z" />
      </clipPath>
      <clipPath clipPathUnits="userSpaceOnUse" id="clipPath16">
        <path d="M0 0 L88 0 L88 18 L0 18 L0 0 Z" />
      </clipPath>
      <clipPath clipPathUnits="userSpaceOnUse" id="clipPath17">
        <path d="M0 0 L154 0 L154 18 L0 18 L0 0 Z" />
      </clipPath>
      <clipPath clipPathUnits="userSpaceOnUse" id="clipPath18">
        <path d="M0 0 L164 0 L164 18 L0 18 L0 0 Z" />
      </clipPath>
      <clipPath clipPathUnits="userSpaceOnUse" id="clipPath19">
        <path d="M0 0 L294 0 L294 32 L0 32 L0 0 Z" />
      </clipPath>
      <clipPath clipPathUnits="userSpaceOnUse" id="clipPath20">
        <path d="M0 0 L104 0 L104 143 L0 143 L0 0 Z" />
      </clipPath>
      <clipPath clipPathUnits="userSpaceOnUse" id="clipPath21">
        <path d="M0 0 L293 0 L293 104 L0 104 L0 0 Z" />
      </clipPath>
      <clipPath clipPathUnits="userSpaceOnUse" id="clipPath22">
        <path d="M0 0 L193 0 L193 104 L0 104 L0 0 Z" />
      </clipPath>
      <clipPath clipPathUnits="userSpaceOnUse" id="clipPath23">
        <path d="M0 0 L194 0 L194 174 L0 174 L0 0 Z" />
      </clipPath>
      <clipPath clipPathUnits="userSpaceOnUse" id="clipPath24">
        <path d="M0 0 L203 0 L203 104 L0 104 L0 0 Z" />
      </clipPath>
      <clipPath clipPathUnits="userSpaceOnUse" id="clipPath25">
        <path d="M0 0 L104 0 L104 133 L0 133 L0 0 Z" />
      </clipPath>
      <clipPath clipPathUnits="userSpaceOnUse" id="clipPath26">
        <path d="M0 0 L104 0 L104 153 L0 153 L0 0 Z" />
      </clipPath>
      <clipPath clipPathUnits="userSpaceOnUse" id="clipPath27">
        <path d="M0 0 L104 0 L104 273 L0 273 L0 0 Z" />
      </clipPath>
    </defs>
    <g style="fill:white; text-rendering:optimizeLegibility; stroke:white;">
      <rect x="0" y="0" width="826" style="stroke:none;" height="316" />
    </g>
    <g transform="translate(2,2)" style="font-size:11; fill:white; text-rendering:optimizeLegibility; font-family:sans-serif; stroke:white; font-weight:bold;">
      <rect x="0" y="0" width="820" style="clip-path:url(#clipPath1); stroke:none;" height="70" />
    </g>
    <g transform="translate(2,2)" style="stroke-linecap:butt; font-size:11; text-rendering:optimizeLegibility; stroke-linejoin:bevel; font-family:sans-serif; font-weight:bold; stroke-miterlimit:0;">
      <rect x="0" y="0" width="820" style="clip-path:url(#clipPath1); fill:none;" height="70" />
      <line x1="0" x2="820" y1="28" style="clip-path:url(#clipPath1); fill:none;" y2="28" />
    </g>
    <g transform="translate(2,242)" style="font-size:11; fill:white; text-rendering:optimizeLegibility; font-family:sans-serif; stroke:white; font-weight:bold;">
      <rect x="0" y="0" width="100" style="clip-path:url(#clipPath2); stroke:none;" height="40" />
    </g>
    <g transform="translate(2,242)" style="stroke-linecap:butt; font-size:11; text-rendering:optimizeLegibility; stroke-linejoin:bevel; font-family:sans-serif; font-weight:bold; stroke-miterlimit:0;">
      <rect x="0" y="0" width="100" style="clip-path:url(#clipPath2); fill:none;" height="40" />
      <line x1="0" x2="100" y1="14" style="clip-path:url(#clipPath2); fill:none;" y2="14" />
    </g>
    <g transform="translate(102,122)" style="font-size:11; fill:white; text-rendering:optimizeLegibility; font-family:sans-serif; stroke:white; font-weight:bold;">
      <rect x="0" y="0" width="100" style="clip-path:url(#clipPath2); stroke:none;" height="40" />
    </g>
    <g transform="translate(102,122)" style="stroke-linecap:butt; font-size:11; text-rendering:optimizeLegibility; stroke-linejoin:bevel; font-family:sans-serif; font-weight:bold; stroke-miterlimit:0;">
      <rect x="0" y="0" width="100" style="clip-path:url(#clipPath2); fill:none;" height="40" />
      <line x1="0" x2="100" y1="14" style="clip-path:url(#clipPath2); fill:none;" y2="14" />
    </g>
    <g transform="translate(542,102)" style="font-size:11; fill:white; text-rendering:optimizeLegibility; font-family:sans-serif; stroke:white; font-weight:bold;">
      <rect x="0" y="0" width="190" style="clip-path:url(#clipPath3); stroke:none;" height="70" />
    </g>
    <g transform="translate(542,102)" style="stroke-linecap:butt; font-size:11; text-rendering:optimizeLegibility; stroke-linejoin:bevel; font-family:sans-serif; font-weight:bold; stroke-miterlimit:0;">
      <rect x="0" y="0" width="190" style="clip-path:url(#clipPath3); fill:none;" height="70" />
      <line x1="0" x2="190" y1="28" style="clip-path:url(#clipPath3); fill:none;" y2="28" />
    </g>
    <g transform="translate(292,122)" style="font-size:11; fill:white; text-rendering:optimizeLegibility; font-family:sans-serif; stroke:white; font-weight:bold;">
      <rect x="0" y="0" width="150" style="clip-path:url(#clipPath4); stroke:none;" height="40" />
    </g>
    <g transform="translate(292,122)" style="stroke-linecap:butt; font-size:11; text-rendering:optimizeLegibility; stroke-linejoin:bevel; font-family:sans-serif; font-weight:bold; stroke-miterlimit:0;">
      <rect x="0" y="0" width="150" style="clip-path:url(#clipPath4); fill:none;" height="40" />
      <line x1="0" x2="150" y1="14" style="clip-path:url(#clipPath4); fill:none;" y2="14" />
    </g>
    <g transform="translate(292,242)" style="font-size:11; fill:white; text-rendering:optimizeLegibility; font-family:sans-serif; stroke:white; font-weight:bold;">
      <rect x="0" y="0" width="160" style="clip-path:url(#clipPath5); stroke:none;" height="40" />
    </g>
    <g transform="translate(292,242)" style="stroke-linecap:butt; font-size:11; text-rendering:optimizeLegibility; stroke-linejoin:bevel; font-family:sans-serif; font-weight:bold; stroke-miterlimit:0;">
      <rect x="0" y="0" width="160" style="clip-path:url(#clipPath5); fill:none;" height="40" />
      <line x1="0" x2="160" y1="14" style="clip-path:url(#clipPath5); fill:none;" y2="14" />
    </g>
    <g transform="translate(532,212)" style="font-size:11; fill:white; text-rendering:optimizeLegibility; font-family:sans-serif; stroke:white; font-weight:bold;">
      <rect x="0" y="0" width="290" style="clip-path:url(#clipPath6); stroke:none;" height="100" />
    </g>
    <g transform="translate(532,212)" style="stroke-linecap:butt; font-size:11; text-rendering:optimizeLegibility; stroke-linejoin:bevel; font-family:sans-serif; font-weight:bold; stroke-miterlimit:0;">
      <rect x="0" y="0" width="290" style="clip-path:url(#clipPath6); fill:none;" height="100" />
      <line x1="0" x2="290" y1="28" style="clip-path:url(#clipPath6); fill:none;" y2="28" />
    </g>
    <g style="text-rendering:optimizeLegibility; font-size:11; font-family:sans-serif;" transform="translate(2,30)">
      <text x="2" y="13" style="clip-path:url(#clipPath7); stroke:none;" xml:space="preserve">+getDataObject(url : String, source : DataSource, params : Map, containerFactory : RDFContainerFactory) : DataObject</text>
      <text x="2" y="27" style="clip-path:url(#clipPath7); stroke:none;" xml:space="preserve">+getDataObject(url : String, source : DataSource, accessData : AccessData, params : Map, containerFactory : RDFContainerFactory) : DataObject</text>
    </g>
    <g style="text-rendering:optimizeLegibility; font-size:11; font-family:sans-serif;" transform="translate(542,130)">
      <text x="2" y="13" style="clip-path:url(#clipPath9); stroke:none;" xml:space="preserve">+getSupportedSchemes() : Set</text>
      <text x="2" y="27" style="clip-path:url(#clipPath9); stroke:none;" xml:space="preserve">+get() : DataAccessor</text>
    </g>
    <g style="text-rendering:optimizeLegibility; font-size:11; font-family:sans-serif;" transform="translate(532,240)">
      <text x="2" y="13" style="clip-path:url(#clipPath11); stroke:none;" xml:space="preserve">+add(factory : DataAccessorFactory)</text>
      <text x="2" y="27" style="clip-path:url(#clipPath11); stroke:none;" xml:space="preserve">+remove(factory : DataAccessorFactory)</text>
      <text x="2" y="41" style="clip-path:url(#clipPath11); stroke:none;" xml:space="preserve">+getAll() : Set</text>
      <text x="2" y="55" style="clip-path:url(#clipPath11); stroke:none;" xml:space="preserve">+get(scheme : String) : DataAccessorFactory</text>
    </g>
    <g style="text-rendering:optimizeLegibility; font-size:11; font-family:sans-serif;" transform="translate(2,2)">
      <text x="368" y="11" style="clip-path:url(#clipPath13); stroke:none;" xml:space="preserve">&lt;&lt;interface&gt;&gt;</text>
      <text x="372" y="25" style="clip-path:url(#clipPath13); stroke:none; font-weight:bold;" xml:space="preserve">DataAccessor</text>
    </g>
    <g transform="translate(2,242)" style="text-rendering:optimizeLegibility; font-size:11; font-weight:bold; font-family:sans-serif;">
      <text x="13" y="11" style="clip-path:url(#clipPath14); stroke:none;" xml:space="preserve">HttpAccessor</text>
    </g>
    <g transform="translate(102,122)" style="text-rendering:optimizeLegibility; font-size:11; font-weight:bold; font-family:sans-serif;">
      <text x="15" y="11" style="clip-path:url(#clipPath14); stroke:none;" xml:space="preserve">FileAccessor</text>
    </g>
    <g style="text-rendering:optimizeLegibility; font-size:11; font-family:sans-serif;" transform="translate(542,102)">
      <text x="53" y="11" style="clip-path:url(#clipPath15); stroke:none;" xml:space="preserve">&lt;&lt;interface&gt;&gt;</text>
      <text x="37" y="25" style="clip-path:url(#clipPath15); stroke:none; font-weight:bold;" xml:space="preserve">DataAccessorFactory</text>
    </g>
    <g style="text-rendering:optimizeLegibility; font-size:11; font-family:sans-serif;" transform="translate(201,122)">
      <text x="10" y="11" style="clip-path:url(#clipPath16); stroke:none;" xml:space="preserve">producedBy</text>
    </g>
    <g transform="translate(292,122)" style="text-rendering:optimizeLegibility; font-size:11; font-weight:bold; font-family:sans-serif;">
      <text x="20" y="11" style="clip-path:url(#clipPath17); stroke:none;" xml:space="preserve">FileAccessorFactory</text>
    </g>
    <g style="text-rendering:optimizeLegibility; font-size:11; font-family:sans-serif;" transform="translate(148,242)">
      <text x="10" y="11" style="clip-path:url(#clipPath16); stroke:none;" xml:space="preserve">producedBy</text>
    </g>
    <g transform="translate(292,242)" style="text-rendering:optimizeLegibility; font-size:11; font-weight:bold; font-family:sans-serif;">
      <text x="23" y="11" style="clip-path:url(#clipPath18); stroke:none;" xml:space="preserve">HttpAccessorFactory</text>
    </g>
    <g style="text-rendering:optimizeLegibility; font-size:11; font-family:sans-serif;" transform="translate(532,212)">
      <text x="103" y="11" style="clip-path:url(#clipPath19); stroke:none;" xml:space="preserve">&lt;&lt;interface&gt;&gt;</text>
      <text x="84" y="25" style="clip-path:url(#clipPath19); stroke:none; font-weight:bold;" xml:space="preserve">DataAccessorRegistry</text>
    </g>
    <g style="text-rendering:optimizeLegibility; font-size:11; font-family:sans-serif;" transform="translate(631,78)">
      <text x="10" y="11" style="clip-path:url(#clipPath16); stroke:none;" xml:space="preserve">producedBy</text>
    </g>
    <g transform="translate(582,122)" style="stroke-linecap:butt; font-size:11; fill-opacity:0.9961; fill:rgb(0,0,0); text-rendering:optimizeLegibility; stroke-linejoin:round; font-family:sans-serif; stroke:rgb(0,0,0); stroke-opacity:0.9961;">
      <line x1="50" x2="50" y1="65" style="clip-path:url(#clipPath20); fill:none;" y2="50" />
      <polygon style="fill:none; clip-path:url(#clipPath20);" points=" 50 89 56 77 50 65 44 77" />
    </g>
    <g transform="translate(52,212)" style="stroke-linecap:butt; font-size:11; fill-opacity:0.9961; fill:rgb(0,0,0); text-rendering:optimizeLegibility; stroke-linejoin:round; font-family:sans-serif; stroke:rgb(0,0,0); stroke-opacity:0.9961;">
      <line x1="239" x2="50" y1="50" style="clip-path:url(#clipPath21); fill:none;" y2="50" />
    </g>
    <g transform="translate(152,92)" style="stroke-linecap:butt; font-size:11; fill-opacity:0.9961; fill:rgb(0,0,0); text-rendering:optimizeLegibility; stroke-linejoin:round; font-family:sans-serif; stroke:rgb(0,0,0); stroke-opacity:0.9961;">
      <line x1="139" x2="50" y1="50" style="clip-path:url(#clipPath22); fill:none;" y2="50" />
    </g>
    <g transform="translate(402,122)" style="stroke-linecap:butt; font-size:11; fill-opacity:0.9961; fill:rgb(0,0,0); text-rendering:optimizeLegibility; stroke-linejoin:round; font-family:sans-serif; stroke:rgb(0,0,0); stroke-opacity:0.9961;">
      <line x1="140" x2="50" y1="50" style="clip-path:url(#clipPath23); fill:none;" y2="120" />
    </g>
    <g transform="translate(402,122)" style="stroke-linecap:butt; font-size:11; fill:white; text-rendering:optimizeLegibility; font-family:sans-serif; stroke-linejoin:round; stroke:white;">
      <polygon style="clip-path:url(#clipPath23); stroke:none;" points=" 140 50 127 51 134 61" />
    </g>
    <g transform="translate(402,122)" style="stroke-linecap:butt; font-size:11; fill-opacity:0.9961; fill:rgb(0,0,0); text-rendering:optimizeLegibility; stroke-linejoin:round; font-family:sans-serif; stroke:rgb(0,0,0); stroke-opacity:0.9961;">
      <polygon style="fill:none; clip-path:url(#clipPath23);" points=" 140 50 127 51 134 61" />
    </g>
    <g transform="translate(392,92)" style="stroke-linecap:butt; font-size:11; fill-opacity:0.9961; fill:rgb(0,0,0); text-rendering:optimizeLegibility; stroke-linejoin:round; font-family:sans-serif; stroke:rgb(0,0,0); stroke-opacity:0.9961;">
      <line x1="149" x2="50" y1="50" style="clip-path:url(#clipPath24); fill:none;" y2="50" />
    </g>
    <g transform="translate(392,92)" style="stroke-linecap:butt; font-size:11; fill:white; text-rendering:optimizeLegibility; font-family:sans-serif; stroke-linejoin:round; stroke:white;">
      <polygon style="clip-path:url(#clipPath24); stroke:none;" points=" 149 50 137 44 137 56" />
    </g>
    <g transform="translate(392,92)" style="stroke-linecap:butt; font-size:11; fill-opacity:0.9961; fill:rgb(0,0,0); text-rendering:optimizeLegibility; stroke-linejoin:round; font-family:sans-serif; stroke:rgb(0,0,0); stroke-opacity:0.9961;">
      <polygon style="fill:none; clip-path:url(#clipPath24);" points=" 149 50 137 44 137 56" />
    </g>
    <g transform="translate(582,22)" style="stroke-linecap:butt; font-size:11; fill-opacity:0.9961; fill:rgb(0,0,0); text-rendering:optimizeLegibility; stroke-linejoin:round; font-family:sans-serif; stroke:rgb(0,0,0); stroke-opacity:0.9961;">
      <line x1="50" x2="50" y1="50" style="clip-path:url(#clipPath25); fill:none;" y2="79" />
    </g>
    <g transform="translate(112,22)" style="stroke-linecap:butt; font-size:11; fill-opacity:0.9961; fill:rgb(0,0,0); text-rendering:optimizeLegibility; stroke-linejoin:round; font-family:sans-serif; stroke:rgb(0,0,0); stroke-opacity:0.9961;">
      <line x1="50" x2="50" y1="50" style="clip-path:url(#clipPath26); fill:none;" y2="99" />
    </g>
    <g transform="translate(112,22)" style="stroke-linecap:butt; font-size:11; fill:white; text-rendering:optimizeLegibility; font-family:sans-serif; stroke-linejoin:round; stroke:white;">
      <polygon style="clip-path:url(#clipPath26); stroke:none;" points=" 50 50 44 62 56 62" />
    </g>
    <g transform="translate(112,22)" style="stroke-linecap:butt; font-size:11; fill-opacity:0.9961; fill:rgb(0,0,0); text-rendering:optimizeLegibility; stroke-linejoin:round; font-family:sans-serif; stroke:rgb(0,0,0); stroke-opacity:0.9961;">
      <polygon style="fill:none; clip-path:url(#clipPath26);" points=" 50 50 44 62 56 62" />
    </g>
    <g transform="translate(22,22)" style="stroke-linecap:butt; font-size:11; fill-opacity:0.9961; fill:rgb(0,0,0); text-rendering:optimizeLegibility; stroke-linejoin:round; font-family:sans-serif; stroke:rgb(0,0,0); stroke-opacity:0.9961;">
      <line x1="50" x2="50" y1="50" style="clip-path:url(#clipPath27); fill:none;" y2="219" />
    </g>
    <g transform="translate(22,22)" style="stroke-linecap:butt; font-size:11; fill:white; text-rendering:optimizeLegibility; font-family:sans-serif; stroke-linejoin:round; stroke:white;">
      <polygon style="clip-path:url(#clipPath27); stroke:none;" points=" 50 50 44 62 56 62" />
    </g>
    <g transform="translate(22,22)" style="stroke-linecap:butt; font-size:11; fill-opacity:0.9961; fill:rgb(0,0,0); text-rendering:optimizeLegibility; stroke-linejoin:round; font-family:sans-serif; stroke:rgb(0,0,0); stroke-opacity:0.9961;">
      <polygon style="fill:none; clip-path:url(#clipPath27);" points=" 50 50 44 62 56 62" />
    </g>
    <g style="fill:rgb(120,120,120); text-rendering:optimizeLegibility; font-size:8; stroke:rgb(120,120,120);">
      <text xml:space="preserve" x="0" y="10" style="stroke:none;"></text>
      <text xml:space="preserve" x="0" y="10" style="stroke:none;"></text>
    </g>
  </g>
</svg>
