<?xml version="1.0" encoding="UTF-8"?>

<!DOCTYPE svg PUBLIC '-//W3C//DTD SVG 1.0//EN' 'http://www.w3.org/TR/2001/REC-SVG-20010904/DTD/svg10.dtd'>
<svg style="fill-opacity:1; color-rendering:auto; color-interpolation:auto; text-rendering:auto; stroke:black; stroke-linecap:square; stroke-miterlimit:10; shape-rendering:auto; stroke-opacity:1; fill:black; stroke-dasharray:none; font-weight:normal; stroke-width:1; font-family:&apos;Dialog&apos;; font-style:normal; stroke-linejoin:miter; font-size:12; stroke-dashoffset:0; image-rendering:auto;" xmlns="http://www.w3.org/2000/svg" width="686" xmlns:xlink="http://www.w3.org/1999/xlink" height="288">
  <!--Generated by the Batik Graphics2D SVG Generator-->
  <defs id="genericDefs" />
  <g>
    <defs id="defs1">
      <clipPath clipPathUnits="userSpaceOnUse" id="clipPath1">
        <path d="M-3 -3 L167 -3 L167 47 L-3 47 L-3 -3 Z" />
      </clipPath>
      <clipPath clipPathUnits="userSpaceOnUse" id="clipPath2">
        <path d="M0 0 L0 17 L160 17 L160 0 Z" />
      </clipPath>
      <clipPath clipPathUnits="userSpaceOnUse" id="clipPath3">
        <path d="M0 0 L0 30 L160 30 L160 0 Z" />
      </clipPath>
      <clipPath clipPathUnits="userSpaceOnUse" id="clipPath4">
        <path d="M-3 -3 L157 -3 L157 47 L-3 47 L-3 -3 Z" />
      </clipPath>
      <clipPath clipPathUnits="userSpaceOnUse" id="clipPath5">
        <path d="M0 0 L0 32 L150 32 L150 0 Z" />
      </clipPath>
      <clipPath clipPathUnits="userSpaceOnUse" id="clipPath6">
        <path d="M0 0 L0 15 L150 15 L150 0 Z" />
      </clipPath>
      <clipPath clipPathUnits="userSpaceOnUse" id="clipPath7">
        <path d="M0 0 L0 32 L160 32 L160 0 Z" />
      </clipPath>
      <clipPath clipPathUnits="userSpaceOnUse" id="clipPath8">
        <path d="M0 0 L0 15 L160 15 L160 0 Z" />
      </clipPath>
      <clipPath clipPathUnits="userSpaceOnUse" id="clipPath9">
        <path d="M-3 -3 L227 -3 L227 47 L-3 47 L-3 -3 Z" />
      </clipPath>
      <clipPath clipPathUnits="userSpaceOnUse" id="clipPath10">
        <path d="M0 0 L0 32 L220 32 L220 0 Z" />
      </clipPath>
      <clipPath clipPathUnits="userSpaceOnUse" id="clipPath11">
        <path d="M0 0 L0 15 L220 15 L220 0 Z" />
      </clipPath>
      <clipPath clipPathUnits="userSpaceOnUse" id="clipPath12">
        <path d="M-3 -3 L207 -3 L207 47 L-3 47 L-3 -3 Z" />
      </clipPath>
      <clipPath clipPathUnits="userSpaceOnUse" id="clipPath13">
        <path d="M0 0 L0 32 L200 32 L200 0 Z" />
      </clipPath>
      <clipPath clipPathUnits="userSpaceOnUse" id="clipPath14">
        <path d="M0 0 L0 15 L200 15 L200 0 Z" />
      </clipPath>
      <clipPath clipPathUnits="userSpaceOnUse" id="clipPath15">
        <path d="M0 0 L104 0 L104 173 L0 173 L0 0 Z" />
      </clipPath>
      <clipPath clipPathUnits="userSpaceOnUse" id="clipPath16">
        <path d="M0 0 L214 0 L214 174 L0 174 L0 0 Z" />
      </clipPath>
      <clipPath clipPathUnits="userSpaceOnUse" id="clipPath17">
        <path d="M0 0 L104 0 L104 153 L0 153 L0 0 Z" />
      </clipPath>
      <clipPath clipPathUnits="userSpaceOnUse" id="clipPath18">
        <path d="M0 0 L194 0 L194 174 L0 174 L0 0 Z" />
      </clipPath>
      <clipPath clipPathUnits="userSpaceOnUse" id="clipPath19">
        <path d="M0 0 L143 0 L143 104 L0 104 L0 0 Z" />
      </clipPath>
    </defs>
    <g style="fill:white; text-rendering:geometricPrecision; stroke:white;">
      <rect x="0" y="0" width="686" style="stroke:none;" height="288" />
      <rect x="218" y="188" transform="translate(-218,-188)" width="685" style="fill:none; stroke:black;" height="287" />
      <text x="225" y="205" transform="translate(-218,-188)" style="fill:black; stroke:none;" xml:space="preserve">DataSourceHierarchy</text>
      <line transform="translate(-218,-188)" x1="218" x2="342" y1="212" style="fill:none; stroke:black;" y2="212" />
      <line transform="translate(-218,-188)" x1="348" x2="348" y1="188" style="fill:none; stroke:black;" y2="202" />
      <line transform="translate(-218,-188)" x1="348" x2="342" y1="202" style="fill:none; stroke:black;" y2="212" />
    </g>
    <g transform="translate(252,34)" style="font-size:11; fill:white; text-rendering:geometricPrecision; font-family:sans-serif; stroke:white; font-weight:bold;">
      <rect x="0" y="0" width="160" style="clip-path:url(#clipPath1); stroke:none;" height="40" />
    </g>
    <g transform="translate(252,34)" style="stroke-linecap:butt; font-size:11; text-rendering:geometricPrecision; stroke-linejoin:round; font-family:sans-serif; font-weight:bold; stroke-miterlimit:0;">
      <rect x="0" y="0" width="160" style="clip-path:url(#clipPath1); fill:none;" height="40" />
      <line x1="0" x2="160" y1="30" style="clip-path:url(#clipPath1); fill:none;" y2="30" />
    </g>
    <g style="text-rendering:geometricPrecision; font-size:11; font-family:sans-serif;" transform="translate(252,34)">
      <text x="46" y="12" style="clip-path:url(#clipPath3); stroke:none;" xml:space="preserve">&lt;&lt;interface&gt;&gt;</text>
      <text x="49" y="27" style="clip-path:url(#clipPath3); stroke:none; font-weight:bold;" xml:space="preserve">DataSource</text>
    </g>
    <g transform="translate(352,234)" style="font-size:11; fill:white; text-rendering:geometricPrecision; font-family:sans-serif; stroke:white; font-weight:bold;">
      <rect x="0" y="0" width="150" style="clip-path:url(#clipPath4); stroke:none;" height="40" />
    </g>
    <g transform="translate(352,234)" style="stroke-linecap:butt; font-size:11; text-rendering:geometricPrecision; stroke-linejoin:round; font-family:sans-serif; font-weight:bold; stroke-miterlimit:0;">
      <rect x="0" y="0" width="150" style="clip-path:url(#clipPath4); fill:none;" height="40" />
      <line x1="0" x2="150" y1="15" style="clip-path:url(#clipPath4); fill:none;" y2="15" />
    </g>
    <g transform="translate(352,234)" style="text-rendering:geometricPrecision; font-size:11; font-weight:bold; font-family:sans-serif;">
      <text x="32" y="12" style="clip-path:url(#clipPath6); stroke:none;" xml:space="preserve">WebDataSource</text>
    </g>
    <g transform="translate(182,234)" style="font-size:11; fill:white; text-rendering:geometricPrecision; font-family:sans-serif; stroke:white; font-weight:bold;">
      <rect x="0" y="0" width="150" style="clip-path:url(#clipPath4); stroke:none;" height="40" />
    </g>
    <g transform="translate(182,234)" style="stroke-linecap:butt; font-size:11; text-rendering:geometricPrecision; stroke-linejoin:round; font-family:sans-serif; font-weight:bold; stroke-miterlimit:0;">
      <rect x="0" y="0" width="150" style="clip-path:url(#clipPath4); fill:none;" height="40" />
      <line x1="0" x2="150" y1="15" style="clip-path:url(#clipPath4); fill:none;" y2="15" />
    </g>
    <g transform="translate(182,234)" style="text-rendering:geometricPrecision; font-size:11; font-weight:bold; font-family:sans-serif;">
      <text x="35" y="12" style="clip-path:url(#clipPath6); stroke:none;" xml:space="preserve">IcalDataSource</text>
    </g>
    <g transform="translate(522,234)" style="font-size:11; fill:white; text-rendering:geometricPrecision; font-family:sans-serif; stroke:white; font-weight:bold;">
      <rect x="0" y="0" width="150" style="clip-path:url(#clipPath4); stroke:none;" height="40" />
    </g>
    <g transform="translate(522,234)" style="stroke-linecap:butt; font-size:11; text-rendering:geometricPrecision; stroke-linejoin:round; font-family:sans-serif; font-weight:bold; stroke-miterlimit:0;">
      <rect x="0" y="0" width="150" style="clip-path:url(#clipPath4); fill:none;" height="40" />
      <line x1="0" x2="150" y1="15" style="clip-path:url(#clipPath4); fill:none;" y2="15" />
    </g>
    <g transform="translate(522,234)" style="text-rendering:geometricPrecision; font-size:11; font-weight:bold; font-family:sans-serif;">
      <text x="13" y="12" style="clip-path:url(#clipPath6); stroke:none;" xml:space="preserve">FileSystemDataSource</text>
    </g>
    <g transform="translate(252,124)" style="font-size:11; fill:white; text-rendering:geometricPrecision; font-family:sans-serif; stroke:white; font-weight:bold;">
      <rect x="0" y="0" width="160" style="clip-path:url(#clipPath1); stroke:none;" height="40" />
    </g>
    <g transform="translate(252,124)" style="stroke-linecap:butt; font-size:11; text-rendering:geometricPrecision; stroke-linejoin:round; font-family:sans-serif; font-weight:bold; stroke-miterlimit:0;">
      <rect x="0" y="0" width="160" style="clip-path:url(#clipPath1); fill:none;" height="40" />
      <line x1="0" x2="160" y1="15" style="clip-path:url(#clipPath1); fill:none;" y2="15" />
    </g>
    <g style="text-rendering:geometricPrecision; font-size:11; font-family:sans-serif;" transform="translate(252,139)">
      <text x="2" y="14" style="clip-path:url(#clipPath7); stroke:none;" xml:space="preserve">-configuration : RDFContainer</text>
    </g>
    <g transform="translate(252,124)" style="text-rendering:geometricPrecision; font-size:11; font-weight:bold; font-family:sans-serif;">
      <text x="35" y="12" style="clip-path:url(#clipPath8); stroke:none;" xml:space="preserve">DataSourceBase</text>
    </g>
    <g transform="translate(12,234)" style="font-size:11; fill:white; text-rendering:geometricPrecision; font-family:sans-serif; stroke:white; font-weight:bold;">
      <rect x="0" y="0" width="150" style="clip-path:url(#clipPath4); stroke:none;" height="40" />
    </g>
    <g transform="translate(12,234)" style="stroke-linecap:butt; font-size:11; text-rendering:geometricPrecision; stroke-linejoin:round; font-family:sans-serif; font-weight:bold; stroke-miterlimit:0;">
      <rect x="0" y="0" width="150" style="clip-path:url(#clipPath4); fill:none;" height="40" />
      <line x1="0" x2="150" y1="15" style="clip-path:url(#clipPath4); fill:none;" y2="15" />
    </g>
    <g transform="translate(12,234)" style="text-rendering:geometricPrecision; font-size:11; font-weight:bold; font-family:sans-serif;">
      <text x="30" y="12" style="clip-path:url(#clipPath6); stroke:none;" xml:space="preserve">ImapDataSource</text>
    </g>
    <g transform="translate(452,124)" style="font-size:11; fill:white; text-rendering:geometricPrecision; font-family:sans-serif; stroke:white; font-weight:bold;">
      <rect x="0" y="0" width="220" style="clip-path:url(#clipPath9); stroke:none;" height="40" />
    </g>
    <g transform="translate(452,124)" style="stroke-linecap:butt; font-size:11; text-rendering:geometricPrecision; stroke-linejoin:round; font-family:sans-serif; font-weight:bold; stroke-miterlimit:0;">
      <rect x="0" y="0" width="220" style="clip-path:url(#clipPath9); fill:none;" height="40" />
      <line x1="0" x2="220" y1="15" style="clip-path:url(#clipPath9); fill:none;" y2="15" />
    </g>
    <g transform="translate(452,124)" style="text-rendering:geometricPrecision; font-size:11; font-weight:bold; font-family:sans-serif;">
      <text x="6" y="12" style="clip-path:url(#clipPath11); stroke:none;" xml:space="preserve">ThunderbirdAddressbookDataSource</text>
    </g>
    <g transform="translate(12,124)" style="font-size:11; fill:white; text-rendering:geometricPrecision; font-family:sans-serif; stroke:white; font-weight:bold;">
      <rect x="0" y="0" width="200" style="clip-path:url(#clipPath12); stroke:none;" height="40" />
    </g>
    <g transform="translate(12,124)" style="stroke-linecap:butt; font-size:11; text-rendering:geometricPrecision; stroke-linejoin:round; font-family:sans-serif; font-weight:bold; stroke-miterlimit:0;">
      <rect x="0" y="0" width="200" style="clip-path:url(#clipPath12); fill:none;" height="40" />
      <line x1="0" x2="200" y1="15" style="clip-path:url(#clipPath12); fill:none;" y2="15" />
    </g>
    <g transform="translate(12,124)" style="text-rendering:geometricPrecision; font-size:11; font-weight:bold; font-family:sans-serif;">
      <text x="15" y="12" style="clip-path:url(#clipPath14); stroke:none;" xml:space="preserve">AppleAddressbookDataSource</text>
    </g>
    <g transform="translate(322,114)" style="font-size:11; stroke-linecap:butt; text-rendering:geometricPrecision; font-family:sans-serif; stroke-linejoin:round;">
      <line x1="50" x2="50" y1="50" style="clip-path:url(#clipPath15); fill:none;" y2="119" />
      <polygon style="fill:white; clip-path:url(#clipPath15); stroke:none;" points=" 50 50 44 62 56 62" />
      <polygon style="fill:none; clip-path:url(#clipPath15);" points=" 50 50 44 62 56 62" />
    </g>
    <g transform="translate(242,114)" style="font-size:11; stroke-linecap:butt; text-rendering:geometricPrecision; font-family:sans-serif; stroke-linejoin:round;">
      <line x1="50" x2="50" y1="50" style="clip-path:url(#clipPath15); fill:none;" y2="119" />
      <polygon style="fill:white; clip-path:url(#clipPath15); stroke:none;" points=" 50 50 44 62 56 62" />
      <polygon style="fill:none; clip-path:url(#clipPath15);" points=" 50 50 44 62 56 62" />
    </g>
    <g transform="translate(362,114)" style="font-size:11; stroke-linecap:butt; text-rendering:geometricPrecision; font-family:sans-serif; stroke-linejoin:round;">
      <line x1="50" x2="160" y1="50" style="clip-path:url(#clipPath16); fill:none;" y2="120" />
      <polygon style="fill:white; clip-path:url(#clipPath16); stroke:none;" points=" 50 50 56 61 62 50" />
      <polygon style="fill:none; clip-path:url(#clipPath16);" points=" 50 50 56 61 62 50" />
    </g>
    <g transform="translate(282,24)" style="font-size:11; stroke-linecap:butt; text-rendering:geometricPrecision; font-family:sans-serif; stroke-linejoin:round;">
      <line x1="50" x2="50" y1="50" style="clip-path:url(#clipPath17); fill:none;" y2="99" />
      <polygon style="fill:white; clip-path:url(#clipPath17); stroke:none;" points=" 50 50 44 62 56 62" />
      <polygon style="fill:none; clip-path:url(#clipPath17);" points=" 50 50 44 62 56 62" />
    </g>
    <g transform="translate(112,114)" style="font-size:11; stroke-linecap:butt; text-rendering:geometricPrecision; font-family:sans-serif; stroke-linejoin:round;">
      <line x1="140" x2="50" y1="50" style="clip-path:url(#clipPath18); fill:none;" y2="120" />
      <polygon style="fill:white; clip-path:url(#clipPath18); stroke:none;" points=" 140 50 127 51 134 61" />
      <polygon style="fill:none; clip-path:url(#clipPath18);" points=" 140 50 127 51 134 61" />
    </g>
    <g transform="translate(162,94)" style="font-size:11; stroke-linecap:butt; text-rendering:geometricPrecision; font-family:sans-serif; stroke-linejoin:round;">
      <line x1="89" x2="50" y1="50" style="clip-path:url(#clipPath19); fill:none;" y2="50" />
      <polygon style="fill:white; clip-path:url(#clipPath19); stroke:none;" points=" 89 50 77 44 77 56" />
      <polygon style="fill:none; clip-path:url(#clipPath19);" points=" 89 50 77 44 77 56" />
    </g>
    <g transform="translate(362,94)" style="font-size:11; stroke-linecap:butt; text-rendering:geometricPrecision; font-family:sans-serif; stroke-linejoin:round;">
      <line x1="50" x2="89" y1="50" style="clip-path:url(#clipPath19); fill:none;" y2="50" />
      <polygon style="fill:white; clip-path:url(#clipPath19); stroke:none;" points=" 50 50 62 56 62 44" />
      <polygon style="fill:none; clip-path:url(#clipPath19);" points=" 50 50 62 56 62 44" />
    </g>
    <g transform="rotate(-45) translate(-204.9247,0)" style="fill:rgb(120,120,120); text-rendering:geometricPrecision; font-size:10; stroke:rgb(120,120,120);">
      <text xml:space="preserve" x="0" y="0" style="stroke:none;">Visual Paradigm for UML Community Edition [evaluation copy] </text>
      <text xml:space="preserve" x="312" y="0" style="stroke:none;">Visual Paradigm for UML Community Edition [evaluation copy] </text>
      <text xml:space="preserve" x="624" y="0" style="stroke:none;">Visual Paradigm for UML Community Edition [evaluation copy] </text>
      <text xml:space="preserve" x="100" y="56" style="stroke:none;">Visual Paradigm for UML Community Edition [evaluation copy] </text>
      <text xml:space="preserve" x="412" y="56" style="stroke:none;">Visual Paradigm for UML Community Edition [evaluation copy] </text>
      <text xml:space="preserve" x="0" y="112" style="stroke:none;">Visual Paradigm for UML Community Edition [evaluation copy] </text>
      <text xml:space="preserve" x="312" y="112" style="stroke:none;">Visual Paradigm for UML Community Edition [evaluation copy] </text>
      <text xml:space="preserve" x="624" y="112" style="stroke:none;">Visual Paradigm for UML Community Edition [evaluation copy] </text>
      <text xml:space="preserve" x="100" y="168" style="stroke:none;">Visual Paradigm for UML Community Edition [evaluation copy] </text>
      <text xml:space="preserve" x="412" y="168" style="stroke:none;">Visual Paradigm for UML Community Edition [evaluation copy] </text>
      <text xml:space="preserve" x="0" y="224" style="stroke:none;">Visual Paradigm for UML Community Edition [evaluation copy] </text>
      <text xml:space="preserve" x="312" y="224" style="stroke:none;">Visual Paradigm for UML Community Edition [evaluation copy] </text>
      <text xml:space="preserve" x="624" y="224" style="stroke:none;">Visual Paradigm for UML Community Edition [evaluation copy] </text>
      <text xml:space="preserve" x="100" y="280" style="stroke:none;">Visual Paradigm for UML Community Edition [evaluation copy] </text>
      <text xml:space="preserve" x="412" y="280" style="stroke:none;">Visual Paradigm for UML Community Edition [evaluation copy] </text>
      <text xml:space="preserve" x="0" y="336" style="stroke:none;">Visual Paradigm for UML Community Edition [evaluation copy] </text>
      <text xml:space="preserve" x="312" y="336" style="stroke:none;">Visual Paradigm for UML Community Edition [evaluation copy] </text>
      <text xml:space="preserve" x="624" y="336" style="stroke:none;">Visual Paradigm for UML Community Edition [evaluation copy] </text>
      <text xml:space="preserve" x="100" y="392" style="stroke:none;">Visual Paradigm for UML Community Edition [evaluation copy] </text>
      <text xml:space="preserve" x="412" y="392" style="stroke:none;">Visual Paradigm for UML Community Edition [evaluation copy] </text>
      <text xml:space="preserve" x="0" y="448" style="stroke:none;">Visual Paradigm for UML Community Edition [evaluation copy] </text>
      <text xml:space="preserve" x="312" y="448" style="stroke:none;">Visual Paradigm for UML Community Edition [evaluation copy] </text>
      <text xml:space="preserve" x="624" y="448" style="stroke:none;">Visual Paradigm for UML Community Edition [evaluation copy] </text>
      <text xml:space="preserve" x="100" y="504" style="stroke:none;">Visual Paradigm for UML Community Edition [evaluation copy] </text>
      <text xml:space="preserve" x="412" y="504" style="stroke:none;">Visual Paradigm for UML Community Edition [evaluation copy] </text>
      <text xml:space="preserve" x="0" y="560" style="stroke:none;">Visual Paradigm for UML Community Edition [evaluation copy] </text>
      <text xml:space="preserve" x="312" y="560" style="stroke:none;">Visual Paradigm for UML Community Edition [evaluation copy] </text>
      <text xml:space="preserve" x="624" y="560" style="stroke:none;">Visual Paradigm for UML Community Edition [evaluation copy] </text>
      <text xml:space="preserve" x="100" y="616" style="stroke:none;">Visual Paradigm for UML Community Edition [evaluation copy] </text>
      <text xml:space="preserve" x="412" y="616" style="stroke:none;">Visual Paradigm for UML Community Edition [evaluation copy] </text>
      <text x="0" y="0" transform="translate(-690,-689) rotate(45) translate(1380,1378) rotate(-45) translate(-204.9247,0)" style="stroke:none;" xml:space="preserve">Visual Paradigm for UML Community Edition [evaluation copy] </text>
      <text x="312" y="0" transform="translate(-690,-689) rotate(45) translate(1380,1378) rotate(-45) translate(-204.9247,0)" style="stroke:none;" xml:space="preserve">Visual Paradigm for UML Community Edition [evaluation copy] </text>
      <text x="624" y="0" transform="translate(-690,-689) rotate(45) translate(1380,1378) rotate(-45) translate(-204.9247,0)" style="stroke:none;" xml:space="preserve">Visual Paradigm for UML Community Edition [evaluation copy] </text>
      <text x="100" y="56" transform="translate(-690,-689) rotate(45) translate(1380,1378) rotate(-45) translate(-204.9247,0)" style="stroke:none;" xml:space="preserve">Visual Paradigm for UML Community Edition [evaluation copy] </text>
      <text x="412" y="56" transform="translate(-690,-689) rotate(45) translate(1380,1378) rotate(-45) translate(-204.9247,0)" style="stroke:none;" xml:space="preserve">Visual Paradigm for UML Community Edition [evaluation copy] </text>
      <text x="0" y="112" transform="translate(-690,-689) rotate(45) translate(1380,1378) rotate(-45) translate(-204.9247,0)" style="stroke:none;" xml:space="preserve">Visual Paradigm for UML Community Edition [evaluation copy] </text>
      <text x="312" y="112" transform="translate(-690,-689) rotate(45) translate(1380,1378) rotate(-45) translate(-204.9247,0)" style="stroke:none;" xml:space="preserve">Visual Paradigm for UML Community Edition [evaluation copy] </text>
      <text x="624" y="112" transform="translate(-690,-689) rotate(45) translate(1380,1378) rotate(-45) translate(-204.9247,0)" style="stroke:none;" xml:space="preserve">Visual Paradigm for UML Community Edition [evaluation copy] </text>
      <text x="100" y="168" transform="translate(-690,-689) rotate(45) translate(1380,1378) rotate(-45) translate(-204.9247,0)" style="stroke:none;" xml:space="preserve">Visual Paradigm for UML Community Edition [evaluation copy] </text>
      <text x="412" y="168" transform="translate(-690,-689) rotate(45) translate(1380,1378) rotate(-45) translate(-204.9247,0)" style="stroke:none;" xml:space="preserve">Visual Paradigm for UML Community Edition [evaluation copy] </text>
      <text x="0" y="224" transform="translate(-690,-689) rotate(45) translate(1380,1378) rotate(-45) translate(-204.9247,0)" style="stroke:none;" xml:space="preserve">Visual Paradigm for UML Community Edition [evaluation copy] </text>
      <text x="312" y="224" transform="translate(-690,-689) rotate(45) translate(1380,1378) rotate(-45) translate(-204.9247,0)" style="stroke:none;" xml:space="preserve">Visual Paradigm for UML Community Edition [evaluation copy] </text>
      <text x="624" y="224" transform="translate(-690,-689) rotate(45) translate(1380,1378) rotate(-45) translate(-204.9247,0)" style="stroke:none;" xml:space="preserve">Visual Paradigm for UML Community Edition [evaluation copy] </text>
      <text x="100" y="280" transform="translate(-690,-689) rotate(45) translate(1380,1378) rotate(-45) translate(-204.9247,0)" style="stroke:none;" xml:space="preserve">Visual Paradigm for UML Community Edition [evaluation copy] </text>
      <text x="412" y="280" transform="translate(-690,-689) rotate(45) translate(1380,1378) rotate(-45) translate(-204.9247,0)" style="stroke:none;" xml:space="preserve">Visual Paradigm for UML Community Edition [evaluation copy] </text>
      <text x="0" y="336" transform="translate(-690,-689) rotate(45) translate(1380,1378) rotate(-45) translate(-204.9247,0)" style="stroke:none;" xml:space="preserve">Visual Paradigm for UML Community Edition [evaluation copy] </text>
      <text x="312" y="336" transform="translate(-690,-689) rotate(45) translate(1380,1378) rotate(-45) translate(-204.9247,0)" style="stroke:none;" xml:space="preserve">Visual Paradigm for UML Community Edition [evaluation copy] </text>
      <text x="624" y="336" transform="translate(-690,-689) rotate(45) translate(1380,1378) rotate(-45) translate(-204.9247,0)" style="stroke:none;" xml:space="preserve">Visual Paradigm for UML Community Edition [evaluation copy] </text>
      <text x="100" y="392" transform="translate(-690,-689) rotate(45) translate(1380,1378) rotate(-45) translate(-204.9247,0)" style="stroke:none;" xml:space="preserve">Visual Paradigm for UML Community Edition [evaluation copy] </text>
      <text x="412" y="392" transform="translate(-690,-689) rotate(45) translate(1380,1378) rotate(-45) translate(-204.9247,0)" style="stroke:none;" xml:space="preserve">Visual Paradigm for UML Community Edition [evaluation copy] </text>
      <text x="0" y="448" transform="translate(-690,-689) rotate(45) translate(1380,1378) rotate(-45) translate(-204.9247,0)" style="stroke:none;" xml:space="preserve">Visual Paradigm for UML Community Edition [evaluation copy] </text>
      <text x="312" y="448" transform="translate(-690,-689) rotate(45) translate(1380,1378) rotate(-45) translate(-204.9247,0)" style="stroke:none;" xml:space="preserve">Visual Paradigm for UML Community Edition [evaluation copy] </text>
      <text x="624" y="448" transform="translate(-690,-689) rotate(45) translate(1380,1378) rotate(-45) translate(-204.9247,0)" style="stroke:none;" xml:space="preserve">Visual Paradigm for UML Community Edition [evaluation copy] </text>
      <text x="100" y="504" transform="translate(-690,-689) rotate(45) translate(1380,1378) rotate(-45) translate(-204.9247,0)" style="stroke:none;" xml:space="preserve">Visual Paradigm for UML Community Edition [evaluation copy] </text>
      <text x="412" y="504" transform="translate(-690,-689) rotate(45) translate(1380,1378) rotate(-45) translate(-204.9247,0)" style="stroke:none;" xml:space="preserve">Visual Paradigm for UML Community Edition [evaluation copy] </text>
      <text x="0" y="560" transform="translate(-690,-689) rotate(45) translate(1380,1378) rotate(-45) translate(-204.9247,0)" style="stroke:none;" xml:space="preserve">Visual Paradigm for UML Community Edition [evaluation copy] </text>
      <text x="312" y="560" transform="translate(-690,-689) rotate(45) translate(1380,1378) rotate(-45) translate(-204.9247,0)" style="stroke:none;" xml:space="preserve">Visual Paradigm for UML Community Edition [evaluation copy] </text>
      <text x="624" y="560" transform="translate(-690,-689) rotate(45) translate(1380,1378) rotate(-45) translate(-204.9247,0)" style="stroke:none;" xml:space="preserve">Visual Paradigm for UML Community Edition [evaluation copy] </text>
      <text x="100" y="616" transform="translate(-690,-689) rotate(45) translate(1380,1378) rotate(-45) translate(-204.9247,0)" style="stroke:none;" xml:space="preserve">Visual Paradigm for UML Community Edition [evaluation copy] </text>
      <text x="412" y="616" transform="translate(-690,-689) rotate(45) translate(1380,1378) rotate(-45) translate(-204.9247,0)" style="stroke:none;" xml:space="preserve">Visual Paradigm for UML Community Edition [evaluation copy] </text>
    </g>
  </g>
</svg>
