<?xml version="1.0" encoding="UTF-8"?>

<!DOCTYPE svg PUBLIC '-//W3C//DTD SVG 1.0//EN' 'http://www.w3.org/TR/2001/REC-SVG-20010904/DTD/svg10.dtd'>
<svg style="fill-opacity:1; color-rendering:auto; color-interpolation:auto; text-rendering:auto; stroke:black; stroke-linecap:square; stroke-miterlimit:10; shape-rendering:auto; stroke-opacity:1; fill:black; stroke-dasharray:none; font-weight:normal; stroke-width:1; font-family:&apos;Dialog&apos;; font-style:normal; stroke-linejoin:miter; font-size:12; stroke-dashoffset:0; image-rendering:auto;" xmlns="http://www.w3.org/2000/svg" width="396" xmlns:xlink="http://www.w3.org/1999/xlink" height="375">
  <!--Generated by the Batik Graphics2D SVG Generator-->
  <defs id="genericDefs" />
  <g>
    <defs id="defs1">
      <clipPath clipPathUnits="userSpaceOnUse" id="clipPath1">
        <path d="M-3 -3 L157 -3 L157 77 L-3 77 L-3 -3 Z" />
      </clipPath>
      <clipPath clipPathUnits="userSpaceOnUse" id="clipPath2">
        <path d="M-3 -3 L117 -3 L117 47 L-3 47 L-3 -3 Z" />
      </clipPath>
      <clipPath clipPathUnits="userSpaceOnUse" id="clipPath3">
        <path d="M-3 -3 L127 -3 L127 47 L-3 47 L-3 -3 Z" />
      </clipPath>
      <clipPath clipPathUnits="userSpaceOnUse" id="clipPath4">
        <path d="M-3 -3 L137 -3 L137 47 L-3 47 L-3 -3 Z" />
      </clipPath>
      <clipPath clipPathUnits="userSpaceOnUse" id="clipPath5">
        <path d="M-3 -3 L157 -3 L157 47 L-3 47 L-3 -3 Z" />
      </clipPath>
      <clipPath clipPathUnits="userSpaceOnUse" id="clipPath6">
        <path d="M0 0 L114 0 L114 16 L0 16 L0 0 Z" />
      </clipPath>
      <clipPath clipPathUnits="userSpaceOnUse" id="clipPath7">
        <path d="M0 0 L154 0 L154 60 L0 60 L0 0 Z" />
      </clipPath>
      <clipPath clipPathUnits="userSpaceOnUse" id="clipPath8">
        <path d="M0 0 L134 0 L134 30 L0 30 L0 0 Z" />
      </clipPath>
      <clipPath clipPathUnits="userSpaceOnUse" id="clipPath9">
        <path d="M0 0 L124 0 L124 16 L0 16 L0 0 Z" />
      </clipPath>
      <clipPath clipPathUnits="userSpaceOnUse" id="clipPath10">
        <path d="M0 0 L154 0 L154 30 L0 30 L0 0 Z" />
      </clipPath>
      <clipPath clipPathUnits="userSpaceOnUse" id="clipPath11">
        <path d="M0 0 L154 0 L154 18 L0 18 L0 0 Z" />
      </clipPath>
      <clipPath clipPathUnits="userSpaceOnUse" id="clipPath12">
        <path d="M0 0 L114 0 L114 32 L0 32 L0 0 Z" />
      </clipPath>
      <clipPath clipPathUnits="userSpaceOnUse" id="clipPath13">
        <path d="M0 0 L124 0 L124 32 L0 32 L0 0 Z" />
      </clipPath>
      <clipPath clipPathUnits="userSpaceOnUse" id="clipPath14">
        <path d="M0 0 L134 0 L134 18 L0 18 L0 0 Z" />
      </clipPath>
      <clipPath clipPathUnits="userSpaceOnUse" id="clipPath15">
        <path d="M0 0 L104 0 L104 163 L0 163 L0 0 Z" />
      </clipPath>
      <clipPath clipPathUnits="userSpaceOnUse" id="clipPath16">
        <path d="M0 0 L104 0 L104 243 L0 243 L0 0 Z" />
      </clipPath>
      <clipPath clipPathUnits="userSpaceOnUse" id="clipPath17">
        <path d="M0 0 L104 0 L104 164 L0 164 L0 0 Z" />
      </clipPath>
      <clipPath clipPathUnits="userSpaceOnUse" id="clipPath18">
        <path d="M0 0 L104 0 L104 273 L0 273 L0 0 Z" />
      </clipPath>
    </defs>
    <g style="fill:white; text-rendering:optimizeLegibility; stroke:white;">
      <rect x="0" y="0" width="396" style="stroke:none;" height="375" />
    </g>
    <g transform="translate(122,192)" style="font-size:11; fill:white; text-rendering:optimizeLegibility; font-family:sans-serif; stroke:white; font-weight:bold;">
      <rect x="0" y="0" width="150" style="clip-path:url(#clipPath1); stroke:none;" height="70" />
    </g>
    <g transform="translate(122,192)" style="stroke-linecap:butt; font-size:11; text-rendering:optimizeLegibility; stroke-linejoin:bevel; font-family:sans-serif; font-weight:bold; stroke-miterlimit:0;">
      <rect x="0" y="0" width="150" style="clip-path:url(#clipPath1); fill:none;" height="70" />
      <line x1="0" x2="150" y1="14" style="clip-path:url(#clipPath1); fill:none;" y2="14" />
    </g>
    <g transform="translate(252,112)" style="font-size:11; fill:white; text-rendering:optimizeLegibility; font-family:sans-serif; stroke:white; font-weight:bold;">
      <rect x="0" y="0" width="110" style="clip-path:url(#clipPath2); stroke:none;" height="40" />
    </g>
    <g transform="translate(252,112)" style="stroke-linecap:butt; font-size:11; text-rendering:optimizeLegibility; stroke-linejoin:bevel; font-family:sans-serif; font-weight:bold; stroke-miterlimit:0;">
      <rect x="0" y="0" width="110" style="clip-path:url(#clipPath2); fill:none;" height="40" />
      <line x1="0" x2="110" y1="28" style="clip-path:url(#clipPath2); fill:none;" y2="28" />
    </g>
    <g transform="translate(22,112)" style="font-size:11; fill:white; text-rendering:optimizeLegibility; font-family:sans-serif; stroke:white; font-weight:bold;">
      <rect x="0" y="0" width="120" style="clip-path:url(#clipPath3); stroke:none;" height="40" />
    </g>
    <g transform="translate(22,112)" style="stroke-linecap:butt; font-size:11; text-rendering:optimizeLegibility; stroke-linejoin:bevel; font-family:sans-serif; font-weight:bold; stroke-miterlimit:0;">
      <rect x="0" y="0" width="120" style="clip-path:url(#clipPath3); fill:none;" height="40" />
      <line x1="0" x2="120" y1="28" style="clip-path:url(#clipPath3); fill:none;" y2="28" />
    </g>
    <g transform="translate(232,322)" style="font-size:11; fill:white; text-rendering:optimizeLegibility; font-family:sans-serif; stroke:white; font-weight:bold;">
      <rect x="0" y="0" width="130" style="clip-path:url(#clipPath4); stroke:none;" height="40" />
    </g>
    <g transform="translate(232,322)" style="stroke-linecap:butt; font-size:11; text-rendering:optimizeLegibility; stroke-linejoin:bevel; font-family:sans-serif; font-weight:bold; stroke-miterlimit:0;">
      <rect x="0" y="0" width="130" style="clip-path:url(#clipPath4); fill:none;" height="40" />
      <line x1="0" x2="130" y1="14" style="clip-path:url(#clipPath4); fill:none;" y2="14" />
    </g>
    <g transform="translate(12,322)" style="font-size:11; fill:white; text-rendering:optimizeLegibility; font-family:sans-serif; stroke:white; font-weight:bold;">
      <rect x="0" y="0" width="150" style="clip-path:url(#clipPath5); stroke:none;" height="40" />
    </g>
    <g transform="translate(12,322)" style="stroke-linecap:butt; font-size:11; text-rendering:optimizeLegibility; stroke-linejoin:bevel; font-family:sans-serif; font-weight:bold; stroke-miterlimit:0;">
      <rect x="0" y="0" width="150" style="clip-path:url(#clipPath5); fill:none;" height="40" />
      <line x1="0" x2="150" y1="14" style="clip-path:url(#clipPath5); fill:none;" y2="14" />
    </g>
    <g transform="translate(142,12)" style="font-size:11; fill:white; text-rendering:optimizeLegibility; font-family:sans-serif; stroke:white; font-weight:bold;">
      <rect x="0" y="0" width="110" style="clip-path:url(#clipPath2); stroke:none;" height="40" />
    </g>
    <g transform="translate(142,12)" style="stroke-linecap:butt; font-size:11; text-rendering:optimizeLegibility; stroke-linejoin:bevel; font-family:sans-serif; font-weight:bold; stroke-miterlimit:0;">
      <rect x="0" y="0" width="110" style="clip-path:url(#clipPath2); fill:none;" height="40" />
      <line x1="0" x2="110" y1="28" style="clip-path:url(#clipPath2); fill:none;" y2="28" />
    </g>
    <g style="text-rendering:optimizeLegibility; font-size:11; font-family:sans-serif;" transform="translate(122,206)">
      <text x="2" y="13" style="clip-path:url(#clipPath7); stroke:none;" xml:space="preserve">-id : URI</text>
      <text x="2" y="27" style="clip-path:url(#clipPath7); stroke:none;" xml:space="preserve">-dataSource : DataSource</text>
      <text x="2" y="41" style="clip-path:url(#clipPath7); stroke:none;" xml:space="preserve">-metadata : RDFContainer</text>
    </g>
    <g style="text-rendering:optimizeLegibility; font-size:11; font-family:sans-serif;" transform="translate(232,336)">
      <text x="2" y="13" style="clip-path:url(#clipPath8); stroke:none;" xml:space="preserve">-content : InputStream</text>
    </g>
    <g transform="translate(122,192)" style="text-rendering:optimizeLegibility; font-size:11; font-weight:bold; font-family:sans-serif;">
      <text x="32" y="11" style="clip-path:url(#clipPath11); stroke:none;" xml:space="preserve">DataObjectBase</text>
    </g>
    <g style="text-rendering:optimizeLegibility; font-size:11; font-family:sans-serif;" transform="translate(252,112)">
      <text x="13" y="11" style="clip-path:url(#clipPath12); stroke:none;" xml:space="preserve">&lt;&lt;interface&gt;&gt;</text>
      <text x="14" y="25" style="clip-path:url(#clipPath12); stroke:none; font-weight:bold;" xml:space="preserve">FileDataObject</text>
    </g>
    <g style="text-rendering:optimizeLegibility; font-size:11; font-family:sans-serif;" transform="translate(22,112)">
      <text x="18" y="11" style="clip-path:url(#clipPath13); stroke:none;" xml:space="preserve">&lt;&lt;interface&gt;&gt;</text>
      <text x="12" y="25" style="clip-path:url(#clipPath13); stroke:none; font-weight:bold;" xml:space="preserve">FolderDataObject</text>
    </g>
    <g transform="translate(232,322)" style="text-rendering:optimizeLegibility; font-size:11; font-weight:bold; font-family:sans-serif;">
      <text x="24" y="11" style="clip-path:url(#clipPath14); stroke:none;" xml:space="preserve">FileObjectBase</text>
    </g>
    <g transform="translate(12,322)" style="text-rendering:optimizeLegibility; font-size:11; font-weight:bold; font-family:sans-serif;">
      <text x="14" y="11" style="clip-path:url(#clipPath11); stroke:none;" xml:space="preserve">FolderDataObjectBase</text>
    </g>
    <g style="text-rendering:optimizeLegibility; font-size:11; font-family:sans-serif;" transform="translate(142,12)">
      <text x="13" y="11" style="clip-path:url(#clipPath12); stroke:none;" xml:space="preserve">&lt;&lt;interface&gt;&gt;</text>
      <text x="24" y="25" style="clip-path:url(#clipPath12); stroke:none; font-weight:bold;" xml:space="preserve">DataObject</text>
    </g>
    <g transform="translate(202,2)" style="stroke-linecap:butt; font-size:11; fill-opacity:0.9961; fill:rgb(0,0,0); text-rendering:optimizeLegibility; stroke-linejoin:round; font-family:sans-serif; stroke:rgb(0,0,0); stroke-opacity:0.9961;">
      <line x1="50" x2="50" y1="50" style="clip-path:url(#clipPath15); fill:none;" y2="109" />
    </g>
    <g transform="translate(202,2)" style="stroke-linecap:butt; font-size:11; fill:white; text-rendering:optimizeLegibility; font-family:sans-serif; stroke-linejoin:round; stroke:white;">
      <polygon style="clip-path:url(#clipPath15); stroke:none;" points=" 50 50 44 62 56 62" />
    </g>
    <g transform="translate(202,2)" style="stroke-linecap:butt; font-size:11; fill-opacity:0.9961; fill:rgb(0,0,0); text-rendering:optimizeLegibility; stroke-linejoin:round; font-family:sans-serif; stroke:rgb(0,0,0); stroke-opacity:0.9961;">
      <polygon style="fill:none; clip-path:url(#clipPath15);" points=" 50 50 44 62 56 62" />
    </g>
    <g transform="translate(147,2)" style="stroke-linecap:butt; font-size:11; fill-opacity:0.9961; fill:rgb(0,0,0); text-rendering:optimizeLegibility; stroke-linejoin:round; font-family:sans-serif; stroke:rgb(0,0,0); stroke-opacity:0.9961;">
      <line x1="50" x2="50" y1="50" style="clip-path:url(#clipPath16); fill:none;" y2="189" />
    </g>
    <g transform="translate(147,2)" style="stroke-linecap:butt; font-size:11; fill:white; text-rendering:optimizeLegibility; font-family:sans-serif; stroke-linejoin:round; stroke:white;">
      <polygon style="clip-path:url(#clipPath16); stroke:none;" points=" 50 50 44 62 56 62" />
    </g>
    <g transform="translate(147,2)" style="stroke-linecap:butt; font-size:11; fill-opacity:0.9961; fill:rgb(0,0,0); text-rendering:optimizeLegibility; stroke-linejoin:round; font-family:sans-serif; stroke:rgb(0,0,0); stroke-opacity:0.9961;">
      <polygon style="fill:none; clip-path:url(#clipPath16);" points=" 50 50 44 62 56 62" />
    </g>
    <g transform="translate(92,2)" style="stroke-linecap:butt; font-size:11; fill-opacity:0.9961; fill:rgb(0,0,0); text-rendering:optimizeLegibility; stroke-linejoin:round; font-family:sans-serif; stroke:rgb(0,0,0); stroke-opacity:0.9961;">
      <line x1="50" x2="50" y1="50" style="clip-path:url(#clipPath17); fill:none;" y2="110" />
    </g>
    <g transform="translate(92,2)" style="stroke-linecap:butt; font-size:11; fill:white; text-rendering:optimizeLegibility; font-family:sans-serif; stroke-linejoin:round; stroke:white;">
      <polygon style="clip-path:url(#clipPath17); stroke:none;" points=" 50 50 44 62 56 62" />
    </g>
    <g transform="translate(92,2)" style="stroke-linecap:butt; font-size:11; fill-opacity:0.9961; fill:rgb(0,0,0); text-rendering:optimizeLegibility; stroke-linejoin:round; font-family:sans-serif; stroke:rgb(0,0,0); stroke-opacity:0.9961;">
      <polygon style="fill:none; clip-path:url(#clipPath17);" points=" 50 50 44 62 56 62" />
    </g>
    <g transform="translate(92,212)" style="stroke-linecap:butt; font-size:11; fill-opacity:0.9961; fill:rgb(0,0,0); text-rendering:optimizeLegibility; stroke-linejoin:round; font-family:sans-serif; stroke:rgb(0,0,0); stroke-opacity:0.9961;">
      <line x1="50" x2="50" y1="50" style="clip-path:url(#clipPath15); fill:none;" y2="109" />
    </g>
    <g transform="translate(92,212)" style="stroke-linecap:butt; font-size:11; fill:white; text-rendering:optimizeLegibility; font-family:sans-serif; stroke-linejoin:round; stroke:white;">
      <polygon style="clip-path:url(#clipPath15); stroke:none;" points=" 50 50 44 62 56 62" />
    </g>
    <g transform="translate(92,212)" style="stroke-linecap:butt; font-size:11; fill-opacity:0.9961; fill:rgb(0,0,0); text-rendering:optimizeLegibility; stroke-linejoin:round; font-family:sans-serif; stroke:rgb(0,0,0); stroke-opacity:0.9961;">
      <polygon style="fill:none; clip-path:url(#clipPath15);" points=" 50 50 44 62 56 62" />
    </g>
    <g transform="translate(2,102)" style="stroke-linecap:butt; font-size:11; fill-opacity:0.9961; fill:rgb(0,0,0); text-rendering:optimizeLegibility; stroke-linejoin:round; font-family:sans-serif; stroke:rgb(0,0,0); stroke-opacity:0.9961;">
      <line x1="50" x2="50" y1="50" style="clip-path:url(#clipPath18); fill:none;" y2="219" />
    </g>
    <g transform="translate(2,102)" style="stroke-linecap:butt; font-size:11; fill:white; text-rendering:optimizeLegibility; font-family:sans-serif; stroke-linejoin:round; stroke:white;">
      <polygon style="clip-path:url(#clipPath18); stroke:none;" points=" 50 50 44 62 56 62" />
    </g>
    <g transform="translate(2,102)" style="stroke-linecap:butt; font-size:11; fill-opacity:0.9961; fill:rgb(0,0,0); text-rendering:optimizeLegibility; stroke-linejoin:round; font-family:sans-serif; stroke:rgb(0,0,0); stroke-opacity:0.9961;">
      <polygon style="fill:none; clip-path:url(#clipPath18);" points=" 50 50 44 62 56 62" />
    </g>
    <g transform="translate(222,212)" style="stroke-linecap:butt; font-size:11; fill-opacity:0.9961; fill:rgb(0,0,0); text-rendering:optimizeLegibility; stroke-linejoin:round; font-family:sans-serif; stroke:rgb(0,0,0); stroke-opacity:0.9961;">
      <line x1="50" x2="50" y1="50" style="clip-path:url(#clipPath15); fill:none;" y2="109" />
    </g>
    <g transform="translate(222,212)" style="stroke-linecap:butt; font-size:11; fill:white; text-rendering:optimizeLegibility; font-family:sans-serif; stroke-linejoin:round; stroke:white;">
      <polygon style="clip-path:url(#clipPath15); stroke:none;" points=" 50 50 44 62 56 62" />
    </g>
    <g transform="translate(222,212)" style="stroke-linecap:butt; font-size:11; fill-opacity:0.9961; fill:rgb(0,0,0); text-rendering:optimizeLegibility; stroke-linejoin:round; font-family:sans-serif; stroke:rgb(0,0,0); stroke-opacity:0.9961;">
      <polygon style="fill:none; clip-path:url(#clipPath15);" points=" 50 50 44 62 56 62" />
    </g>
    <g transform="translate(292,102)" style="stroke-linecap:butt; font-size:11; fill-opacity:0.9961; fill:rgb(0,0,0); text-rendering:optimizeLegibility; stroke-linejoin:round; font-family:sans-serif; stroke:rgb(0,0,0); stroke-opacity:0.9961;">
      <line x1="50" x2="50" y1="50" style="clip-path:url(#clipPath18); fill:none;" y2="219" />
    </g>
    <g transform="translate(292,102)" style="stroke-linecap:butt; font-size:11; fill:white; text-rendering:optimizeLegibility; font-family:sans-serif; stroke-linejoin:round; stroke:white;">
      <polygon style="clip-path:url(#clipPath18); stroke:none;" points=" 50 50 44 62 56 62" />
    </g>
    <g transform="translate(292,102)" style="stroke-linecap:butt; font-size:11; fill-opacity:0.9961; fill:rgb(0,0,0); text-rendering:optimizeLegibility; stroke-linejoin:round; font-family:sans-serif; stroke:rgb(0,0,0); stroke-opacity:0.9961;">
      <polygon style="fill:none; clip-path:url(#clipPath18);" points=" 50 50 44 62 56 62" />
    </g>
    <g style="fill:rgb(120,120,120); text-rendering:optimizeLegibility; font-size:8; stroke:rgb(120,120,120);">
      <text xml:space="preserve" x="0" y="10" style="stroke:none;"></text>
      <text xml:space="preserve" x="0" y="10" style="stroke:none;"></text>
    </g>
  </g>
</svg>
