<?xml version="1.0" encoding="UTF-8"?>

<!DOCTYPE svg PUBLIC '-//W3C//DTD SVG 1.0//EN' 'http://www.w3.org/TR/2001/REC-SVG-20010904/DTD/svg10.dtd'>
<svg style="fill-opacity:1; color-rendering:auto; color-interpolation:auto; text-rendering:auto; stroke:black; stroke-linecap:square; stroke-miterlimit:10; shape-rendering:auto; stroke-opacity:1; fill:black; stroke-dasharray:none; font-weight:normal; stroke-width:1; font-family:&apos;Dialog&apos;; font-style:normal; stroke-linejoin:miter; font-size:12; stroke-dashoffset:0; image-rendering:auto;" xmlns="http://www.w3.org/2000/svg" width="616" xmlns:xlink="http://www.w3.org/1999/xlink" height="606">
  <!--Generated by the Batik Graphics2D SVG Generator update test-->
  <defs id="genericDefs" />
  <g>
    <defs id="defs1">
      <clipPath clipPathUnits="userSpaceOnUse" id="clipPath1">
        <path d="M-3 -3 L617 -3 L617 57 L-3 57 L-3 -3 Z" />
      </clipPath>
      <clipPath clipPathUnits="userSpaceOnUse" id="clipPath2">
        <path d="M0 0 L0 27 L610 27 L610 0 Z" />
      </clipPath>
      <clipPath clipPathUnits="userSpaceOnUse" id="clipPath3">
        <path d="M0 0 L0 30 L610 30 L610 0 Z" />
      </clipPath>
      <clipPath clipPathUnits="userSpaceOnUse" id="clipPath4">
        <path d="M-3 -3 L267 -3 L267 77 L-3 77 L-3 -3 Z" />
      </clipPath>
      <clipPath clipPathUnits="userSpaceOnUse" id="clipPath5">
        <path d="M0 0 L0 47 L260 47 L260 0 Z" />
      </clipPath>
      <clipPath clipPathUnits="userSpaceOnUse" id="clipPath6">
        <path d="M0 0 L0 30 L260 30 L260 0 Z" />
      </clipPath>
      <clipPath clipPathUnits="userSpaceOnUse" id="clipPath7">
        <path d="M-3 -3 L267 -3 L267 167 L-3 167 L-3 -3 Z" />
      </clipPath>
      <clipPath clipPathUnits="userSpaceOnUse" id="clipPath8">
        <path d="M0 0 L0 137 L260 137 L260 0 Z" />
      </clipPath>
      <clipPath clipPathUnits="userSpaceOnUse" id="clipPath9">
        <path d="M-3 -3 L117 -3 L117 47 L-3 47 L-3 -3 Z" />
      </clipPath>
      <clipPath clipPathUnits="userSpaceOnUse" id="clipPath10">
        <path d="M0 0 L0 32 L110 32 L110 0 Z" />
      </clipPath>
      <clipPath clipPathUnits="userSpaceOnUse" id="clipPath11">
        <path d="M0 0 L0 15 L110 15 L110 0 Z" />
      </clipPath>
      <clipPath clipPathUnits="userSpaceOnUse" id="clipPath12">
        <path d="M-3 -3 L157 -3 L157 47 L-3 47 L-3 -3 Z" />
      </clipPath>
      <clipPath clipPathUnits="userSpaceOnUse" id="clipPath13">
        <path d="M0 0 L0 32 L150 32 L150 0 Z" />
      </clipPath>
      <clipPath clipPathUnits="userSpaceOnUse" id="clipPath14">
        <path d="M0 0 L0 15 L150 15 L150 0 Z" />
      </clipPath>
      <clipPath clipPathUnits="userSpaceOnUse" id="clipPath15">
        <path d="M-3 -3 L277 -3 L277 67 L-3 67 L-3 -3 Z" />
      </clipPath>
      <clipPath clipPathUnits="userSpaceOnUse" id="clipPath16">
        <path d="M0 0 L0 60 L270 60 L270 0 Z" />
      </clipPath>
      <clipPath clipPathUnits="userSpaceOnUse" id="clipPath17">
        <path d="M-3 -3 L127 -3 L127 47 L-3 47 L-3 -3 Z" />
      </clipPath>
      <clipPath clipPathUnits="userSpaceOnUse" id="clipPath18">
        <path d="M0 0 L0 32 L120 32 L120 0 Z" />
      </clipPath>
      <clipPath clipPathUnits="userSpaceOnUse" id="clipPath19">
        <path d="M0 0 L0 15 L120 15 L120 0 Z" />
      </clipPath>
      <clipPath clipPathUnits="userSpaceOnUse" id="clipPath20">
        <path d="M0 0 L88 0 L88 15 L0 15 L0 0 Z" />
      </clipPath>
      <clipPath clipPathUnits="userSpaceOnUse" id="clipPath21">
        <path d="M0 0 L104 0 L104 193 L0 193 L0 0 Z" />
      </clipPath>
      <clipPath clipPathUnits="userSpaceOnUse" id="clipPath22">
        <path d="M0 0 L104 0 L104 153 L0 153 L0 0 Z" />
      </clipPath>
      <clipPath clipPathUnits="userSpaceOnUse" id="clipPath23">
        <path d="M0 0 L113 0 L113 104 L0 104 L0 0 Z" />
      </clipPath>
      <clipPath clipPathUnits="userSpaceOnUse" id="clipPath24">
        <path d="M0 0 L143 0 L143 104 L0 104 L0 0 Z" />
      </clipPath>
      <clipPath clipPathUnits="userSpaceOnUse" id="clipPath25">
        <path d="M0 0 L124 0 L124 163 L0 163 L0 0 Z" />
      </clipPath>
      <clipPath clipPathUnits="userSpaceOnUse" id="clipPath26">
        <path d="M0 0 L104 0 L104 133 L0 133 L0 0 Z" />
      </clipPath>
      <clipPath clipPathUnits="userSpaceOnUse" id="clipPath27">
        <path d="M0 0 L153 0 L153 184 L0 184 L0 0 Z" />
      </clipPath>
      <clipPath clipPathUnits="userSpaceOnUse" id="clipPath28">
        <path d="M0 0 L153 0 L153 134 L0 134 L0 0 Z" />
      </clipPath>
      <clipPath clipPathUnits="userSpaceOnUse" id="clipPath29">
        <path d="M0 0 L153 0 L153 124 L0 124 L0 0 Z" />
      </clipPath>
      <clipPath clipPathUnits="userSpaceOnUse" id="clipPath30">
        <path d="M0 0 L153 0 L153 174 L0 174 L0 0 Z" />
      </clipPath>
      <clipPath clipPathUnits="userSpaceOnUse" id="clipPath31">
        <path d="M0 0 L153 0 L153 224 L0 224 L0 0 Z" />
      </clipPath>
      <clipPath clipPathUnits="userSpaceOnUse" id="clipPath32">
        <path d="M0 0 L124 0 L124 154 L0 154 L0 0 Z" />
      </clipPath>
      <clipPath clipPathUnits="userSpaceOnUse" id="clipPath33">
        <path d="M0 0 L124 0 L124 204 L0 204 L0 0 Z" />
      </clipPath>
      <clipPath clipPathUnits="userSpaceOnUse" id="clipPath34">
        <path d="M0 0 L124 0 L124 254 L0 254 L0 0 Z" />
      </clipPath>
      <clipPath clipPathUnits="userSpaceOnUse" id="clipPath35">
        <path d="M0 0 L124 0 L124 304 L0 304 L0 0 Z" />
      </clipPath>
      <clipPath clipPathUnits="userSpaceOnUse" id="clipPath36">
        <path d="M0 0 L124 0 L124 354 L0 354 L0 0 Z" />
      </clipPath>
    </defs>
    <g style="fill:white; text-rendering:geometricPrecision; stroke:white;">
      <rect x="0" y="0" width="616" style="stroke:none;" height="606" />
    </g>
    <g transform="translate(2,2)" style="font-size:11; fill:white; text-rendering:geometricPrecision; font-family:sans-serif; stroke:white; font-weight:bold;">
      <rect x="0" y="0" width="610" style="clip-path:url(#clipPath1); stroke:none;" height="50" />
    </g>
    <g transform="translate(2,2)" style="stroke-linecap:butt; font-size:11; text-rendering:geometricPrecision; stroke-linejoin:round; font-family:sans-serif; font-weight:bold; stroke-miterlimit:0;">
      <rect x="0" y="0" width="610" style="clip-path:url(#clipPath1); fill:none;" height="50" />
      <line x1="0" x2="610" y1="30" style="clip-path:url(#clipPath1); fill:none;" y2="30" />
    </g>
    <g style="text-rendering:geometricPrecision; font-size:11; font-family:sans-serif;" transform="translate(2,32)">
      <text x="2" y="14" style="clip-path:url(#clipPath2); stroke:none;" xml:space="preserve">+extract(id : URI, stream : InputStream, charset : Charset, mimeType : String, result : RDFContainer)</text>
    </g>
    <g style="text-rendering:geometricPrecision; font-size:11; font-family:sans-serif;" transform="translate(2,2)">
      <text x="271" y="12" style="clip-path:url(#clipPath3); stroke:none;" xml:space="preserve">&lt;&lt;interface&gt;&gt;</text>
      <text x="280" y="27" style="clip-path:url(#clipPath3); stroke:none; font-weight:bold;" xml:space="preserve">Extractor</text>
    </g>
    <g transform="translate(2,142)" style="font-size:11; fill:white; text-rendering:geometricPrecision; font-family:sans-serif; stroke:white; font-weight:bold;">
      <rect x="0" y="0" width="260" style="clip-path:url(#clipPath4); stroke:none;" height="70" />
    </g>
    <g transform="translate(2,142)" style="stroke-linecap:butt; font-size:11; text-rendering:geometricPrecision; stroke-linejoin:round; font-family:sans-serif; font-weight:bold; stroke-miterlimit:0;">
      <rect x="0" y="0" width="260" style="clip-path:url(#clipPath4); fill:none;" height="70" />
      <line x1="0" x2="260" y1="30" style="clip-path:url(#clipPath4); fill:none;" y2="30" />
    </g>
    <g style="text-rendering:geometricPrecision; font-size:11; font-family:sans-serif;" transform="translate(2,172)">
      <text x="2" y="14" style="clip-path:url(#clipPath5); stroke:none;" xml:space="preserve">+get() : Extractor</text>
      <text x="2" y="29" style="clip-path:url(#clipPath5); stroke:none;" xml:space="preserve">+getSupportedMimeTypes() : Set</text>
    </g>
    <g style="text-rendering:geometricPrecision; font-size:11; font-family:sans-serif;" transform="translate(2,142)">
      <text x="96" y="12" style="clip-path:url(#clipPath6); stroke:none;" xml:space="preserve">&lt;&lt;interface&gt;&gt;</text>
      <text x="85" y="27" style="clip-path:url(#clipPath6); stroke:none; font-weight:bold;" xml:space="preserve">ExtractorFactory</text>
    </g>
    <g transform="translate(2,262)" style="font-size:11; fill:white; text-rendering:geometricPrecision; font-family:sans-serif; stroke:white; font-weight:bold;">
      <rect x="0" y="0" width="260" style="clip-path:url(#clipPath7); stroke:none;" height="160" />
    </g>
    <g transform="translate(2,262)" style="stroke-linecap:butt; font-size:11; text-rendering:geometricPrecision; stroke-linejoin:round; font-family:sans-serif; font-weight:bold; stroke-miterlimit:0;">
      <rect x="0" y="0" width="260" style="clip-path:url(#clipPath7); fill:none;" height="160" />
      <line x1="0" x2="260" y1="30" style="clip-path:url(#clipPath7); fill:none;" y2="30" />
    </g>
    <g style="text-rendering:geometricPrecision; font-size:11; font-family:sans-serif;" transform="translate(2,292)">
      <text x="2" y="14" style="clip-path:url(#clipPath8); stroke:none;" xml:space="preserve">+add(factory : ExtractorFactory)</text>
      <text x="2" y="29" style="clip-path:url(#clipPath8); stroke:none;" xml:space="preserve">+add(factory : FileExtractorFactory)</text>
      <text x="2" y="44" style="clip-path:url(#clipPath8); stroke:none;" xml:space="preserve">+remove(factory : ExtractorFactory)</text>
      <text x="2" y="59" style="clip-path:url(#clipPath8); stroke:none;" xml:space="preserve">+remove(factory : FileExtractorFactory)</text>
      <text x="2" y="74" style="clip-path:url(#clipPath8); stroke:none;" xml:space="preserve">+getExtractorFactories(mimeType : String) : Set</text>
      <text x="2" y="89" style="clip-path:url(#clipPath8); stroke:none;" xml:space="preserve">+getAllExtractorFactoriesl() : Set</text>
      <text x="2" y="104" style="clip-path:url(#clipPath8); stroke:none;" xml:space="preserve">+getFileExtractorFactories(mimeType : String) : Set</text>
      <text x="2" y="119" style="clip-path:url(#clipPath8); stroke:none;" xml:space="preserve">+getAllFileExtractorFactories() : Set</text>
    </g>
    <g style="text-rendering:geometricPrecision; font-size:11; font-family:sans-serif;" transform="translate(2,262)">
      <text x="96" y="12" style="clip-path:url(#clipPath6); stroke:none;" xml:space="preserve">&lt;&lt;interface&gt;&gt;</text>
      <text x="82" y="27" style="clip-path:url(#clipPath6); stroke:none; font-weight:bold;" xml:space="preserve">ExtractorRegistry</text>
    </g>
    <g transform="translate(472,82)" style="font-size:11; fill:white; text-rendering:geometricPrecision; font-family:sans-serif; stroke:white; font-weight:bold;">
      <rect x="0" y="0" width="110" style="clip-path:url(#clipPath9); stroke:none;" height="40" />
    </g>
    <g transform="translate(472,82)" style="stroke-linecap:butt; font-size:11; text-rendering:geometricPrecision; stroke-linejoin:round; font-family:sans-serif; font-weight:bold; stroke-miterlimit:0;">
      <rect x="0" y="0" width="110" style="clip-path:url(#clipPath9); fill:none;" height="40" />
      <line x1="0" x2="110" y1="15" style="clip-path:url(#clipPath9); fill:none;" y2="15" />
    </g>
    <g transform="translate(472,82)" style="text-rendering:geometricPrecision; font-size:11; font-weight:bold; font-family:sans-serif;">
      <text x="19" y="12" style="clip-path:url(#clipPath11); stroke:none;" xml:space="preserve">ExcelExtrator</text>
    </g>
    <g transform="translate(312,82)" style="font-size:11; fill:white; text-rendering:geometricPrecision; font-family:sans-serif; stroke:white; font-weight:bold;">
      <rect x="0" y="0" width="150" style="clip-path:url(#clipPath12); stroke:none;" height="40" />
    </g>
    <g transform="translate(312,82)" style="stroke-linecap:butt; font-size:11; text-rendering:geometricPrecision; stroke-linejoin:round; font-family:sans-serif; font-weight:bold; stroke-miterlimit:0;">
      <rect x="0" y="0" width="150" style="clip-path:url(#clipPath12); fill:none;" height="40" />
      <line x1="0" x2="150" y1="15" style="clip-path:url(#clipPath12); fill:none;" y2="15" />
    </g>
    <g transform="translate(312,82)" style="text-rendering:geometricPrecision; font-size:11; font-weight:bold; font-family:sans-serif;">
      <text x="16" y="12" style="clip-path:url(#clipPath14); stroke:none;" xml:space="preserve">ExcelExtractorFactory</text>
    </g>
    <g transform="translate(312,132)" style="font-size:11; fill:white; text-rendering:geometricPrecision; font-family:sans-serif; stroke:white; font-weight:bold;">
      <rect x="0" y="0" width="150" style="clip-path:url(#clipPath12); stroke:none;" height="40" />
    </g>
    <g transform="translate(312,132)" style="stroke-linecap:butt; font-size:11; text-rendering:geometricPrecision; stroke-linejoin:round; font-family:sans-serif; font-weight:bold; stroke-miterlimit:0;">
      <rect x="0" y="0" width="150" style="clip-path:url(#clipPath12); fill:none;" height="40" />
      <line x1="0" x2="150" y1="15" style="clip-path:url(#clipPath12); fill:none;" y2="15" />
    </g>
    <g transform="translate(312,132)" style="text-rendering:geometricPrecision; font-size:11; font-weight:bold; font-family:sans-serif;">
      <text x="18" y="12" style="clip-path:url(#clipPath14); stroke:none;" xml:space="preserve">HtmlExtractorFactory</text>
    </g>
    <g transform="translate(312,182)" style="font-size:11; fill:white; text-rendering:geometricPrecision; font-family:sans-serif; stroke:white; font-weight:bold;">
      <rect x="0" y="0" width="150" style="clip-path:url(#clipPath12); stroke:none;" height="40" />
    </g>
    <g transform="translate(312,182)" style="stroke-linecap:butt; font-size:11; text-rendering:geometricPrecision; stroke-linejoin:round; font-family:sans-serif; font-weight:bold; stroke-miterlimit:0;">
      <rect x="0" y="0" width="150" style="clip-path:url(#clipPath12); fill:none;" height="40" />
      <line x1="0" x2="150" y1="15" style="clip-path:url(#clipPath12); fill:none;" y2="15" />
    </g>
    <g transform="translate(312,182)" style="text-rendering:geometricPrecision; font-size:11; font-weight:bold; font-family:sans-serif;">
      <text x="15" y="12" style="clip-path:url(#clipPath14); stroke:none;" xml:space="preserve">MimeExtractorFactory</text>
    </g>
    <g transform="translate(312,232)" style="font-size:11; fill:white; text-rendering:geometricPrecision; font-family:sans-serif; stroke:white; font-weight:bold;">
      <rect x="0" y="0" width="150" style="clip-path:url(#clipPath12); stroke:none;" height="40" />
    </g>
    <g transform="translate(312,232)" style="stroke-linecap:butt; font-size:11; text-rendering:geometricPrecision; stroke-linejoin:round; font-family:sans-serif; font-weight:bold; stroke-miterlimit:0;">
      <rect x="0" y="0" width="150" style="clip-path:url(#clipPath12); fill:none;" height="40" />
      <line x1="0" x2="150" y1="15" style="clip-path:url(#clipPath12); fill:none;" y2="15" />
    </g>
    <g transform="translate(312,232)" style="text-rendering:geometricPrecision; font-size:11; font-weight:bold; font-family:sans-serif;">
      <text x="14" y="12" style="clip-path:url(#clipPath14); stroke:none;" xml:space="preserve">OfficeExtractorFactory</text>
    </g>
    <g transform="translate(312,282)" style="font-size:11; fill:white; text-rendering:geometricPrecision; font-family:sans-serif; stroke:white; font-weight:bold;">
      <rect x="0" y="0" width="150" style="clip-path:url(#clipPath12); stroke:none;" height="40" />
    </g>
    <g transform="translate(312,282)" style="stroke-linecap:butt; font-size:11; text-rendering:geometricPrecision; stroke-linejoin:round; font-family:sans-serif; font-weight:bold; stroke-miterlimit:0;">
      <rect x="0" y="0" width="150" style="clip-path:url(#clipPath12); fill:none;" height="40" />
      <line x1="0" x2="150" y1="15" style="clip-path:url(#clipPath12); fill:none;" y2="15" />
    </g>
    <g transform="translate(312,282)" style="text-rendering:geometricPrecision; font-size:11; font-weight:bold; font-family:sans-serif;">
      <text x="21" y="12" style="clip-path:url(#clipPath14); stroke:none;" xml:space="preserve">PdfExtractorFactory</text>
    </g>
    <g transform="translate(472,132)" style="font-size:11; fill:white; text-rendering:geometricPrecision; font-family:sans-serif; stroke:white; font-weight:bold;">
      <rect x="0" y="0" width="110" style="clip-path:url(#clipPath9); stroke:none;" height="40" />
    </g>
    <g transform="translate(472,132)" style="stroke-linecap:butt; font-size:11; text-rendering:geometricPrecision; stroke-linejoin:round; font-family:sans-serif; font-weight:bold; stroke-miterlimit:0;">
      <rect x="0" y="0" width="110" style="clip-path:url(#clipPath9); fill:none;" height="40" />
      <line x1="0" x2="110" y1="15" style="clip-path:url(#clipPath9); fill:none;" y2="15" />
    </g>
    <g transform="translate(472,132)" style="text-rendering:geometricPrecision; font-size:11; font-weight:bold; font-family:sans-serif;">
      <text x="18" y="12" style="clip-path:url(#clipPath11); stroke:none;" xml:space="preserve">HtmlExtractor</text>
    </g>
    <g transform="translate(472,182)" style="font-size:11; fill:white; text-rendering:geometricPrecision; font-family:sans-serif; stroke:white; font-weight:bold;">
      <rect x="0" y="0" width="110" style="clip-path:url(#clipPath9); stroke:none;" height="40" />
    </g>
    <g transform="translate(472,182)" style="stroke-linecap:butt; font-size:11; text-rendering:geometricPrecision; stroke-linejoin:round; font-family:sans-serif; font-weight:bold; stroke-miterlimit:0;">
      <rect x="0" y="0" width="110" style="clip-path:url(#clipPath9); fill:none;" height="40" />
      <line x1="0" x2="110" y1="15" style="clip-path:url(#clipPath9); fill:none;" y2="15" />
    </g>
    <g transform="translate(472,182)" style="text-rendering:geometricPrecision; font-size:11; font-weight:bold; font-family:sans-serif;">
      <text x="15" y="12" style="clip-path:url(#clipPath11); stroke:none;" xml:space="preserve">MimeExtractor</text>
    </g>
    <g transform="translate(472,232)" style="font-size:11; fill:white; text-rendering:geometricPrecision; font-family:sans-serif; stroke:white; font-weight:bold;">
      <rect x="0" y="0" width="110" style="clip-path:url(#clipPath9); stroke:none;" height="40" />
    </g>
    <g transform="translate(472,232)" style="stroke-linecap:butt; font-size:11; text-rendering:geometricPrecision; stroke-linejoin:round; font-family:sans-serif; font-weight:bold; stroke-miterlimit:0;">
      <rect x="0" y="0" width="110" style="clip-path:url(#clipPath9); fill:none;" height="40" />
      <line x1="0" x2="110" y1="15" style="clip-path:url(#clipPath9); fill:none;" y2="15" />
    </g>
    <g transform="translate(472,232)" style="text-rendering:geometricPrecision; font-size:11; font-weight:bold; font-family:sans-serif;">
      <text x="14" y="12" style="clip-path:url(#clipPath11); stroke:none;" xml:space="preserve">OfficeExtractor</text>
    </g>
    <g transform="translate(472,282)" style="font-size:11; fill:white; text-rendering:geometricPrecision; font-family:sans-serif; stroke:white; font-weight:bold;">
      <rect x="0" y="0" width="110" style="clip-path:url(#clipPath9); stroke:none;" height="40" />
    </g>
    <g transform="translate(472,282)" style="stroke-linecap:butt; font-size:11; text-rendering:geometricPrecision; stroke-linejoin:round; font-family:sans-serif; font-weight:bold; stroke-miterlimit:0;">
      <rect x="0" y="0" width="110" style="clip-path:url(#clipPath9); fill:none;" height="40" />
      <line x1="0" x2="110" y1="15" style="clip-path:url(#clipPath9); fill:none;" y2="15" />
    </g>
    <g transform="translate(472,282)" style="text-rendering:geometricPrecision; font-size:11; font-weight:bold; font-family:sans-serif;">
      <text x="21" y="12" style="clip-path:url(#clipPath11); stroke:none;" xml:space="preserve">PdfExtractor</text>
    </g>
    <g transform="translate(312,362)" style="font-size:11; fill:white; text-rendering:geometricPrecision; font-family:sans-serif; stroke:white;">
      <polygon style="clip-path:url(#clipPath15); stroke:none;" points=" 0 0 254 0 269 15 254 15 254 0 269 15 269 59 0 59" />
    </g>
    <g transform="translate(312,362)" style="stroke-linecap:butt; font-size:11; text-rendering:geometricPrecision; font-family:sans-serif; stroke-linejoin:round; stroke-miterlimit:0;">
      <polygon style="fill:none; clip-path:url(#clipPath15);" points=" 0 0 254 0 269 15 254 15 254 0 269 15 269 59 0 59" />
    </g>
    <g style="text-rendering:geometricPrecision; font-family:sans-serif;" transform="translate(312,362)">
      <text x="3" y="16" style="clip-path:url(#clipPath16); stroke:none;" xml:space="preserve">... and all other Extractor and FIleExtractor </text>
      <text x="3" y="32" style="clip-path:url(#clipPath16); stroke:none;" xml:space="preserve">implementations, this diagram can't include </text>
      <text x="3" y="48" style="clip-path:url(#clipPath16); stroke:none;" xml:space="preserve">them all</text>
    </g>
    <g transform="translate(2,552)" style="font-size:11; fill:white; text-rendering:geometricPrecision; font-family:sans-serif; stroke:white; font-weight:bold;">
      <rect x="0" y="0" width="610" style="clip-path:url(#clipPath1); stroke:none;" height="50" />
    </g>
    <g transform="translate(2,552)" style="stroke-linecap:butt; font-size:11; text-rendering:geometricPrecision; stroke-linejoin:round; font-family:sans-serif; font-weight:bold; stroke-miterlimit:0;">
      <rect x="0" y="0" width="610" style="clip-path:url(#clipPath1); fill:none;" height="50" />
      <line x1="0" x2="610" y1="30" style="clip-path:url(#clipPath1); fill:none;" y2="30" />
    </g>
    <g style="text-rendering:geometricPrecision; font-size:11; font-family:sans-serif;" transform="translate(2,582)">
      <text x="2" y="14" style="clip-path:url(#clipPath2); stroke:none;" xml:space="preserve">+extractor(id : URI, file : File, charset : Charset, mimeType : String, result : RDFContainer)</text>
    </g>
    <g style="text-rendering:geometricPrecision; font-size:11; font-family:sans-serif;" transform="translate(2,552)">
      <text x="271" y="12" style="clip-path:url(#clipPath3); stroke:none;" xml:space="preserve">&lt;&lt;Interface&gt;&gt;</text>
      <text x="271" y="27" style="clip-path:url(#clipPath3); stroke:none; font-weight:bold;" xml:space="preserve">FileExtractor</text>
    </g>
    <g transform="translate(2,452)" style="font-size:11; fill:white; text-rendering:geometricPrecision; font-family:sans-serif; stroke:white; font-weight:bold;">
      <rect x="0" y="0" width="260" style="clip-path:url(#clipPath4); stroke:none;" height="70" />
    </g>
    <g transform="translate(2,452)" style="stroke-linecap:butt; font-size:11; text-rendering:geometricPrecision; stroke-linejoin:round; font-family:sans-serif; font-weight:bold; stroke-miterlimit:0;">
      <rect x="0" y="0" width="260" style="clip-path:url(#clipPath4); fill:none;" height="70" />
      <line x1="0" x2="260" y1="30" style="clip-path:url(#clipPath4); fill:none;" y2="30" />
    </g>
    <g style="text-rendering:geometricPrecision; font-size:11; font-family:sans-serif;" transform="translate(2,482)">
      <text x="2" y="14" style="clip-path:url(#clipPath5); stroke:none;" xml:space="preserve">+get() : FileExtractor</text>
      <text x="2" y="29" style="clip-path:url(#clipPath5); stroke:none;" xml:space="preserve">+getSupportedMimeTypes() : Set</text>
    </g>
    <g style="text-rendering:geometricPrecision; font-size:11; font-family:sans-serif;" transform="translate(2,452)">
      <text x="96" y="12" style="clip-path:url(#clipPath6); stroke:none;" xml:space="preserve">&lt;&lt;Interface&gt;&gt;</text>
      <text x="76" y="27" style="clip-path:url(#clipPath6); stroke:none; font-weight:bold;" xml:space="preserve">FileExtractorFactory</text>
    </g>
    <g transform="translate(462,472)" style="font-size:11; fill:white; text-rendering:geometricPrecision; font-family:sans-serif; stroke:white; font-weight:bold;">
      <rect x="0" y="0" width="120" style="clip-path:url(#clipPath17); stroke:none;" height="40" />
    </g>
    <g transform="translate(462,472)" style="stroke-linecap:butt; font-size:11; text-rendering:geometricPrecision; stroke-linejoin:round; font-family:sans-serif; font-weight:bold; stroke-miterlimit:0;">
      <rect x="0" y="0" width="120" style="clip-path:url(#clipPath17); fill:none;" height="40" />
      <line x1="0" x2="120" y1="15" style="clip-path:url(#clipPath17); fill:none;" y2="15" />
    </g>
    <g transform="translate(462,472)" style="text-rendering:geometricPrecision; font-size:11; font-weight:bold; font-family:sans-serif;">
      <text x="14" y="12" style="clip-path:url(#clipPath19); stroke:none;" xml:space="preserve">MP3FileExtractor</text>
    </g>
    <g transform="translate(302,472)" style="font-size:11; fill:white; text-rendering:geometricPrecision; font-family:sans-serif; stroke:white; font-weight:bold;">
      <rect x="0" y="0" width="150" style="clip-path:url(#clipPath12); stroke:none;" height="40" />
    </g>
    <g transform="translate(302,472)" style="stroke-linecap:butt; font-size:11; text-rendering:geometricPrecision; stroke-linejoin:round; font-family:sans-serif; font-weight:bold; stroke-miterlimit:0;">
      <rect x="0" y="0" width="150" style="clip-path:url(#clipPath12); fill:none;" height="40" />
      <line x1="0" x2="150" y1="15" style="clip-path:url(#clipPath12); fill:none;" y2="15" />
    </g>
    <g transform="translate(302,472)" style="text-rendering:geometricPrecision; font-size:11; font-weight:bold; font-family:sans-serif;">
      <text x="9" y="12" style="clip-path:url(#clipPath14); stroke:none;" xml:space="preserve">MP3FileExtractorFactory</text>
    </g>
    <g style="text-rendering:geometricPrecision; font-size:11; font-family:sans-serif;" transform="translate(132,92)">
      <text x="10" y="12" style="clip-path:url(#clipPath20); stroke:none;" xml:space="preserve">isProducedBy</text>
    </g>
    <g style="text-rendering:geometricPrecision; font-size:11; font-family:sans-serif;" transform="translate(132,525)">
      <text x="10" y="12" style="clip-path:url(#clipPath20); stroke:none;" xml:space="preserve">isProducedBy</text>
    </g>
    <g transform="translate(82,2)" style="font-size:11; stroke-linecap:butt; text-rendering:geometricPrecision; font-family:sans-serif; stroke-linejoin:round;">
      <line x1="50" x2="50" y1="50" style="clip-path:url(#clipPath21); fill:none;" y2="139" />
    </g>
    <g transform="translate(82,162)" style="font-size:11; stroke-linecap:butt; text-rendering:geometricPrecision; font-family:sans-serif; stroke-linejoin:round;">
      <line x1="50" x2="50" y1="75" style="clip-path:url(#clipPath22); fill:none;" y2="50" />
      <polygon style="fill:none; clip-path:url(#clipPath22);" points=" 50 99 56 87 50 75 44 87" />
    </g>
    <g transform="translate(412,52)" style="font-size:11; stroke-linecap:butt; text-rendering:geometricPrecision; font-family:sans-serif; stroke-linejoin:round;">
      <line x1="50" x2="59" y1="50" style="clip-path:url(#clipPath23); fill:none;" y2="50" />
    </g>
    <g transform="translate(412,102)" style="font-size:11; stroke-linecap:butt; text-rendering:geometricPrecision; font-family:sans-serif; stroke-linejoin:round;">
      <line x1="50" x2="59" y1="50" style="clip-path:url(#clipPath23); fill:none;" y2="50" />
    </g>
    <g transform="translate(412,152)" style="font-size:11; stroke-linecap:butt; text-rendering:geometricPrecision; font-family:sans-serif; stroke-linejoin:round;">
      <line x1="50" x2="59" y1="50" style="clip-path:url(#clipPath23); fill:none;" y2="50" />
    </g>
    <g transform="translate(412,202)" style="font-size:11; stroke-linecap:butt; text-rendering:geometricPrecision; font-family:sans-serif; stroke-linejoin:round;">
      <line x1="50" x2="59" y1="50" style="clip-path:url(#clipPath23); fill:none;" y2="50" />
    </g>
    <g transform="translate(412,252)" style="font-size:11; stroke-linecap:butt; text-rendering:geometricPrecision; font-family:sans-serif; stroke-linejoin:round;">
      <line x1="50" x2="59" y1="50" style="clip-path:url(#clipPath23); fill:none;" y2="50" />
    </g>
    <g transform="translate(402,442)" style="font-size:11; stroke-linecap:butt; text-rendering:geometricPrecision; font-family:sans-serif; stroke-linejoin:round;">
      <line x1="50" x2="59" y1="50" style="clip-path:url(#clipPath23); fill:none;" y2="50" />
    </g>
    <g transform="translate(212,442)" style="stroke-linecap:butt; font-size:11; stroke-dashoffset:1; text-rendering:geometricPrecision; stroke-linejoin:round; font-family:sans-serif; stroke-dasharray:5;">
      <line x1="50" x2="89" y1="50" style="clip-path:url(#clipPath24); fill:none;" y2="50" />
    </g>
    <g transform="translate(212,442)" style="stroke-linecap:butt; font-size:11; fill:white; text-rendering:geometricPrecision; font-family:sans-serif; stroke-linejoin:round; stroke:white;">
      <polygon style="clip-path:url(#clipPath24); stroke:none;" points=" 50 50 62 56 62 44" />
      <polygon style="fill:none; clip-path:url(#clipPath24); stroke:black;" points=" 50 50 62 56 62 44" />
    </g>
    <g transform="translate(532,442)" style="stroke-linecap:butt; font-size:11; stroke-dashoffset:1; text-rendering:geometricPrecision; stroke-linejoin:round; font-family:sans-serif; stroke-dasharray:5;">
      <line x1="70" x2="70" y1="109" style="clip-path:url(#clipPath25); fill:none;" y2="50" />
      <line x1="70" x2="50" y1="50" style="clip-path:url(#clipPath25); fill:none;" y2="50" />
    </g>
    <g transform="translate(532,442)" style="stroke-linecap:butt; font-size:11; fill:white; text-rendering:geometricPrecision; font-family:sans-serif; stroke-linejoin:round; stroke:white;">
      <polygon style="clip-path:url(#clipPath25); stroke:none;" points=" 70 109 76 97 64 97" />
      <polygon style="fill:none; clip-path:url(#clipPath25); stroke:black;" points=" 70 109 76 97 64 97" />
    </g>
    <g transform="translate(82,472)" style="font-size:11; stroke-linecap:butt; text-rendering:geometricPrecision; font-family:sans-serif; stroke-linejoin:round;">
      <line x1="50" x2="50" y1="50" style="clip-path:url(#clipPath26); fill:none;" y2="79" />
    </g>
    <g transform="translate(82,372)" style="font-size:11; stroke-linecap:butt; text-rendering:geometricPrecision; font-family:sans-serif; stroke-linejoin:round;">
      <line x1="50" x2="50" y1="74" style="clip-path:url(#clipPath26); fill:none;" y2="79" />
      <polygon style="fill:none; clip-path:url(#clipPath26);" points=" 50 50 44 62 50 74 56 62" />
    </g>
    <g transform="translate(212,52)" style="stroke-linecap:butt; font-size:11; stroke-dashoffset:1; text-rendering:geometricPrecision; stroke-linejoin:round; font-family:sans-serif; stroke-dasharray:5;">
      <line x1="50" x2="80" y1="130" style="clip-path:url(#clipPath27); fill:none;" y2="130" />
      <line x1="80" x2="80" y1="130" style="clip-path:url(#clipPath27); fill:none;" y2="50" />
      <line x1="80" x2="99" y1="50" style="clip-path:url(#clipPath27); fill:none;" y2="50" />
    </g>
    <g transform="translate(212,52)" style="stroke-linecap:butt; font-size:11; fill:rgb(122,207,245); text-rendering:geometricPrecision; font-family:sans-serif; stroke-linejoin:round; stroke:rgb(122,207,245);">
      <polygon style="clip-path:url(#clipPath27); stroke:none;" points=" 50 130 62 136 62 124" />
      <polygon style="fill:none; clip-path:url(#clipPath27); stroke:black;" points=" 50 130 62 136 62 124" />
    </g>
    <g transform="translate(212,102)" style="stroke-linecap:butt; font-size:11; stroke-dashoffset:1; text-rendering:geometricPrecision; stroke-linejoin:round; font-family:sans-serif; stroke-dasharray:5;">
      <line x1="50" x2="80" y1="80" style="clip-path:url(#clipPath28); fill:none;" y2="80" />
      <line x1="80" x2="80" y1="80" style="clip-path:url(#clipPath28); fill:none;" y2="50" />
      <line x1="80" x2="99" y1="50" style="clip-path:url(#clipPath28); fill:none;" y2="50" />
    </g>
    <g transform="translate(212,102)" style="stroke-linecap:butt; font-size:11; fill:rgb(122,207,245); text-rendering:geometricPrecision; font-family:sans-serif; stroke-linejoin:round; stroke:rgb(122,207,245);">
      <polygon style="clip-path:url(#clipPath28); stroke:none;" points=" 50 80 62 86 62 74" />
      <polygon style="fill:none; clip-path:url(#clipPath28); stroke:black;" points=" 50 80 62 86 62 74" />
    </g>
    <g transform="translate(212,132)" style="stroke-linecap:butt; font-size:11; stroke-dashoffset:1; text-rendering:geometricPrecision; stroke-linejoin:round; font-family:sans-serif; stroke-dasharray:5;">
      <line x1="50" x2="80" y1="50" style="clip-path:url(#clipPath29); fill:none;" y2="50" />
      <line x1="80" x2="80" y1="50" style="clip-path:url(#clipPath29); fill:none;" y2="70" />
      <line x1="80" x2="99" y1="70" style="clip-path:url(#clipPath29); fill:none;" y2="70" />
    </g>
    <g transform="translate(212,132)" style="stroke-linecap:butt; font-size:11; fill:rgb(122,207,245); text-rendering:geometricPrecision; font-family:sans-serif; stroke-linejoin:round; stroke:rgb(122,207,245);">
      <polygon style="clip-path:url(#clipPath29); stroke:none;" points=" 50 50 62 56 62 44" />
      <polygon style="fill:none; clip-path:url(#clipPath29); stroke:black;" points=" 50 50 62 56 62 44" />
    </g>
    <g transform="translate(212,132)" style="stroke-linecap:butt; font-size:11; stroke-dashoffset:1; text-rendering:geometricPrecision; stroke-linejoin:round; font-family:sans-serif; stroke-dasharray:5;">
      <line x1="50" x2="80" y1="50" style="clip-path:url(#clipPath30); fill:none;" y2="50" />
      <line x1="80" x2="80" y1="50" style="clip-path:url(#clipPath30); fill:none;" y2="120" />
      <line x1="80" x2="99" y1="120" style="clip-path:url(#clipPath30); fill:none;" y2="120" />
    </g>
    <g transform="translate(212,132)" style="stroke-linecap:butt; font-size:11; fill:rgb(122,207,245); text-rendering:geometricPrecision; font-family:sans-serif; stroke-linejoin:round; stroke:rgb(122,207,245);">
      <polygon style="clip-path:url(#clipPath30); stroke:none;" points=" 50 50 62 56 62 44" />
      <polygon style="fill:none; clip-path:url(#clipPath30); stroke:black;" points=" 50 50 62 56 62 44" />
    </g>
    <g transform="translate(212,132)" style="stroke-linecap:butt; font-size:11; stroke-dashoffset:1; text-rendering:geometricPrecision; stroke-linejoin:round; font-family:sans-serif; stroke-dasharray:5;">
      <line x1="50" x2="80" y1="50" style="clip-path:url(#clipPath31); fill:none;" y2="50" />
      <line x1="80" x2="80" y1="50" style="clip-path:url(#clipPath31); fill:none;" y2="170" />
      <line x1="80" x2="99" y1="170" style="clip-path:url(#clipPath31); fill:none;" y2="170" />
    </g>
    <g transform="translate(212,132)" style="stroke-linecap:butt; font-size:11; fill:white; text-rendering:geometricPrecision; font-family:sans-serif; stroke-linejoin:round; stroke:white;">
      <polygon style="clip-path:url(#clipPath31); stroke:none;" points=" 50 50 62 56 62 44" />
      <polygon style="fill:none; clip-path:url(#clipPath31); stroke:black;" points=" 50 50 62 56 62 44" />
    </g>
    <g transform="translate(532,2)" style="stroke-linecap:butt; font-size:11; stroke-dashoffset:1; text-rendering:geometricPrecision; stroke-linejoin:round; font-family:sans-serif; stroke-dasharray:5;">
      <line x1="70" x2="70" y1="50" style="clip-path:url(#clipPath32); fill:none;" y2="100" />
      <line x1="70" x2="50" y1="100" style="clip-path:url(#clipPath32); fill:none;" y2="100" />
    </g>
    <g transform="translate(532,2)" style="stroke-linecap:butt; font-size:11; fill:rgb(122,207,245); text-rendering:geometricPrecision; font-family:sans-serif; stroke-linejoin:round; stroke:rgb(122,207,245);">
      <polygon style="clip-path:url(#clipPath32); stroke:none;" points=" 70 50 64 62 76 62" />
      <polygon style="fill:none; clip-path:url(#clipPath32); stroke:black;" points=" 70 50 64 62 76 62" />
    </g>
    <g transform="translate(532,2)" style="stroke-linecap:butt; font-size:11; stroke-dashoffset:1; text-rendering:geometricPrecision; stroke-linejoin:round; font-family:sans-serif; stroke-dasharray:5;">
      <line x1="70" x2="70" y1="50" style="clip-path:url(#clipPath33); fill:none;" y2="150" />
      <line x1="70" x2="50" y1="150" style="clip-path:url(#clipPath33); fill:none;" y2="150" />
    </g>
    <g transform="translate(532,2)" style="stroke-linecap:butt; font-size:11; fill:rgb(122,207,245); text-rendering:geometricPrecision; font-family:sans-serif; stroke-linejoin:round; stroke:rgb(122,207,245);">
      <polygon style="clip-path:url(#clipPath33); stroke:none;" points=" 70 50 64 62 76 62" />
      <polygon style="fill:none; clip-path:url(#clipPath33); stroke:black;" points=" 70 50 64 62 76 62" />
    </g>
    <g transform="translate(532,2)" style="stroke-linecap:butt; font-size:11; stroke-dashoffset:1; text-rendering:geometricPrecision; stroke-linejoin:round; font-family:sans-serif; stroke-dasharray:5;">
      <line x1="70" x2="70" y1="50" style="clip-path:url(#clipPath34); fill:none;" y2="200" />
      <line x1="70" x2="50" y1="200" style="clip-path:url(#clipPath34); fill:none;" y2="200" />
    </g>
    <g transform="translate(532,2)" style="stroke-linecap:butt; font-size:11; fill:rgb(122,207,245); text-rendering:geometricPrecision; font-family:sans-serif; stroke-linejoin:round; stroke:rgb(122,207,245);">
      <polygon style="clip-path:url(#clipPath34); stroke:none;" points=" 70 50 64 62 76 62" />
      <polygon style="fill:none; clip-path:url(#clipPath34); stroke:black;" points=" 70 50 64 62 76 62" />
    </g>
    <g transform="translate(532,2)" style="stroke-linecap:butt; font-size:11; stroke-dashoffset:1; text-rendering:geometricPrecision; stroke-linejoin:round; font-family:sans-serif; stroke-dasharray:5;">
      <line x1="70" x2="70" y1="50" style="clip-path:url(#clipPath35); fill:none;" y2="250" />
      <line x1="70" x2="50" y1="250" style="clip-path:url(#clipPath35); fill:none;" y2="250" />
    </g>
    <g transform="translate(532,2)" style="stroke-linecap:butt; font-size:11; fill:rgb(122,207,245); text-rendering:geometricPrecision; font-family:sans-serif; stroke-linejoin:round; stroke:rgb(122,207,245);">
      <polygon style="clip-path:url(#clipPath35); stroke:none;" points=" 70 50 64 62 76 62" />
      <polygon style="fill:none; clip-path:url(#clipPath35); stroke:black;" points=" 70 50 64 62 76 62" />
    </g>
    <g transform="translate(532,2)" style="stroke-linecap:butt; font-size:11; stroke-dashoffset:1; text-rendering:geometricPrecision; stroke-linejoin:round; font-family:sans-serif; stroke-dasharray:5;">
      <line x1="70" x2="70" y1="50" style="clip-path:url(#clipPath36); fill:none;" y2="300" />
      <line x1="70" x2="50" y1="300" style="clip-path:url(#clipPath36); fill:none;" y2="300" />
    </g>
    <g transform="translate(532,2)" style="stroke-linecap:butt; font-size:11; fill:white; text-rendering:geometricPrecision; font-family:sans-serif; stroke-linejoin:round; stroke:white;">
      <polygon style="clip-path:url(#clipPath36); stroke:none;" points=" 70 50 64 62 76 62" />
      <polygon style="fill:none; clip-path:url(#clipPath36); stroke:black;" points=" 70 50 64 62 76 62" />
    </g>
  </g>
</svg>
