<?xml version="1.0" encoding="UTF-8"?>

<!DOCTYPE svg PUBLIC '-//W3C//DTD SVG 1.0//EN' 'http://www.w3.org/TR/2001/REC-SVG-20010904/DTD/svg10.dtd'>
<svg style="fill-opacity:1; color-rendering:auto; color-interpolation:auto; text-rendering:auto; stroke:black; stroke-linecap:square; stroke-miterlimit:10; shape-rendering:auto; stroke-opacity:1; fill:black; stroke-dasharray:none; font-weight:normal; stroke-width:1; font-family:&apos;Dialog&apos;; font-style:normal; stroke-linejoin:miter; font-size:12; stroke-dashoffset:0; image-rendering:auto;" xmlns="http://www.w3.org/2000/svg" width="646" xmlns:xlink="http://www.w3.org/1999/xlink" height="396">
  <!--Generated by the Batik Graphics2D SVG Generator-->
  <defs id="genericDefs" />
  <g>
    <defs id="defs1">
      <clipPath clipPathUnits="userSpaceOnUse" id="clipPath1">
        <path d="M-3 -3 L617 -3 L617 57 L-3 57 L-3 -3 Z" />
      </clipPath>
      <clipPath clipPathUnits="userSpaceOnUse" id="clipPath2">
        <path d="M-3 -3 L217 -3 L217 77 L-3 77 L-3 -3 Z" />
      </clipPath>
      <clipPath clipPathUnits="userSpaceOnUse" id="clipPath3">
        <path d="M-3 -3 L217 -3 L217 107 L-3 107 L-3 -3 Z" />
      </clipPath>
      <clipPath clipPathUnits="userSpaceOnUse" id="clipPath4">
        <path d="M-3 -3 L117 -3 L117 47 L-3 47 L-3 -3 Z" />
      </clipPath>
      <clipPath clipPathUnits="userSpaceOnUse" id="clipPath5">
        <path d="M-3 -3 L157 -3 L157 47 L-3 47 L-3 -3 Z" />
      </clipPath>
      <clipPath clipPathUnits="userSpaceOnUse" id="clipPath6">
        <path d="M-3 -3 L287 -3 L287 47 L-3 47 L-3 -3 Z" />
      </clipPath>
      <clipPath clipPathUnits="userSpaceOnUse" id="clipPath7">
        <path d="M0 0 L0 40 L280 40 L280 0 Z" />
      </clipPath>
      <clipPath clipPathUnits="userSpaceOnUse" id="clipPath8">
        <path d="M0 0 L154 0 L154 30 L0 30 L0 0 Z" />
      </clipPath>
      <clipPath clipPathUnits="userSpaceOnUse" id="clipPath9">
        <path d="M0 0 L214 0 L214 76 L0 76 L0 0 Z" />
      </clipPath>
      <clipPath clipPathUnits="userSpaceOnUse" id="clipPath10">
        <path d="M0 0 L614 0 L614 26 L0 26 L0 0 Z" />
      </clipPath>
      <clipPath clipPathUnits="userSpaceOnUse" id="clipPath11">
        <path d="M0 0 L114 0 L114 30 L0 30 L0 0 Z" />
      </clipPath>
      <clipPath clipPathUnits="userSpaceOnUse" id="clipPath12">
        <path d="M0 0 L214 0 L214 46 L0 46 L0 0 Z" />
      </clipPath>
      <clipPath clipPathUnits="userSpaceOnUse" id="clipPath13">
        <path d="M0 0 L614 0 L614 32 L0 32 L0 0 Z" />
      </clipPath>
      <clipPath clipPathUnits="userSpaceOnUse" id="clipPath14">
        <path d="M0 0 L214 0 L214 32 L0 32 L0 0 Z" />
      </clipPath>
      <clipPath clipPathUnits="userSpaceOnUse" id="clipPath15">
        <path d="M0 0 L114 0 L114 18 L0 18 L0 0 Z" />
      </clipPath>
      <clipPath clipPathUnits="userSpaceOnUse" id="clipPath16">
        <path d="M0 0 L154 0 L154 18 L0 18 L0 0 Z" />
      </clipPath>
      <clipPath clipPathUnits="userSpaceOnUse" id="clipPath17">
        <path d="M0 0 L124 0 L124 354 L0 354 L0 0 Z" />
      </clipPath>
      <clipPath clipPathUnits="userSpaceOnUse" id="clipPath18">
        <path d="M0 0 L124 0 L124 304 L0 304 L0 0 Z" />
      </clipPath>
      <clipPath clipPathUnits="userSpaceOnUse" id="clipPath19">
        <path d="M0 0 L124 0 L124 254 L0 254 L0 0 Z" />
      </clipPath>
      <clipPath clipPathUnits="userSpaceOnUse" id="clipPath20">
        <path d="M0 0 L124 0 L124 204 L0 204 L0 0 Z" />
      </clipPath>
      <clipPath clipPathUnits="userSpaceOnUse" id="clipPath21">
        <path d="M0 0 L123 0 L123 104 L0 104 L0 0 Z" />
      </clipPath>
      <clipPath clipPathUnits="userSpaceOnUse" id="clipPath22">
        <path d="M0 0 L183 0 L183 204 L0 204 L0 0 Z" />
      </clipPath>
      <clipPath clipPathUnits="userSpaceOnUse" id="clipPath23">
        <path d="M0 0 L183 0 L183 154 L0 154 L0 0 Z" />
      </clipPath>
      <clipPath clipPathUnits="userSpaceOnUse" id="clipPath24">
        <path d="M0 0 L183 0 L183 104 L0 104 L0 0 Z" />
      </clipPath>
      <clipPath clipPathUnits="userSpaceOnUse" id="clipPath25">
        <path d="M0 0 L183 0 L183 144 L0 144 L0 0 Z" />
      </clipPath>
      <clipPath clipPathUnits="userSpaceOnUse" id="clipPath26">
        <path d="M0 0 L124 0 L124 154 L0 154 L0 0 Z" />
      </clipPath>
      <clipPath clipPathUnits="userSpaceOnUse" id="clipPath27">
        <path d="M0 0 L183 0 L183 184 L0 184 L0 0 Z" />
      </clipPath>
      <clipPath clipPathUnits="userSpaceOnUse" id="clipPath28">
        <path d="M0 0 L104 0 L104 173 L0 173 L0 0 Z" />
      </clipPath>
      <clipPath clipPathUnits="userSpaceOnUse" id="clipPath29">
        <path d="M0 0 L104 0 L104 203 L0 203 L0 0 Z" />
      </clipPath>
    </defs>
    <g style="fill:white; text-rendering:optimizeLegibility; stroke:white;">
      <rect x="0" y="0" width="646" style="stroke:none;" height="396" />
    </g>
    <g transform="translate(2,2)" style="font-size:11; fill:white; text-rendering:optimizeLegibility; font-family:sans-serif; stroke:white; font-weight:bold;">
      <rect x="0" y="0" width="610" style="clip-path:url(#clipPath1); stroke:none;" height="50" />
    </g>
    <g transform="translate(2,2)" style="stroke-linecap:butt; font-size:11; text-rendering:optimizeLegibility; stroke-linejoin:bevel; font-family:sans-serif; font-weight:bold; stroke-miterlimit:0;">
      <rect x="0" y="0" width="610" style="clip-path:url(#clipPath1); fill:none;" height="50" />
      <line x1="0" x2="610" y1="28" style="clip-path:url(#clipPath1); fill:none;" y2="28" />
    </g>
    <g transform="translate(2,152)" style="font-size:11; fill:white; text-rendering:optimizeLegibility; font-family:sans-serif; stroke:white; font-weight:bold;">
      <rect x="0" y="0" width="210" style="clip-path:url(#clipPath2); stroke:none;" height="70" />
    </g>
    <g transform="translate(2,152)" style="stroke-linecap:butt; font-size:11; text-rendering:optimizeLegibility; stroke-linejoin:bevel; font-family:sans-serif; font-weight:bold; stroke-miterlimit:0;">
      <rect x="0" y="0" width="210" style="clip-path:url(#clipPath2); fill:none;" height="70" />
      <line x1="0" x2="210" y1="28" style="clip-path:url(#clipPath2); fill:none;" y2="28" />
    </g>
    <g transform="translate(2,292)" style="font-size:11; fill:white; text-rendering:optimizeLegibility; font-family:sans-serif; stroke:white; font-weight:bold;">
      <rect x="0" y="0" width="210" style="clip-path:url(#clipPath3); stroke:none;" height="100" />
    </g>
    <g transform="translate(2,292)" style="stroke-linecap:butt; font-size:11; text-rendering:optimizeLegibility; stroke-linejoin:bevel; font-family:sans-serif; font-weight:bold; stroke-miterlimit:0;">
      <rect x="0" y="0" width="210" style="clip-path:url(#clipPath3); fill:none;" height="100" />
      <line x1="0" x2="210" y1="28" style="clip-path:url(#clipPath3); fill:none;" y2="28" />
    </g>
    <g transform="translate(462,82)" style="font-size:11; fill:white; text-rendering:optimizeLegibility; font-family:sans-serif; stroke:white; font-weight:bold;">
      <rect x="0" y="0" width="110" style="clip-path:url(#clipPath4); stroke:none;" height="40" />
    </g>
    <g transform="translate(462,82)" style="stroke-linecap:butt; font-size:11; text-rendering:optimizeLegibility; stroke-linejoin:bevel; font-family:sans-serif; font-weight:bold; stroke-miterlimit:0;">
      <rect x="0" y="0" width="110" style="clip-path:url(#clipPath4); fill:none;" height="40" />
      <line x1="0" x2="110" y1="14" style="clip-path:url(#clipPath4); fill:none;" y2="14" />
    </g>
    <g transform="translate(292,82)" style="font-size:11; fill:white; text-rendering:optimizeLegibility; font-family:sans-serif; stroke:white; font-weight:bold;">
      <rect x="0" y="0" width="150" style="clip-path:url(#clipPath5); stroke:none;" height="40" />
    </g>
    <g transform="translate(292,82)" style="stroke-linecap:butt; font-size:11; text-rendering:optimizeLegibility; stroke-linejoin:bevel; font-family:sans-serif; font-weight:bold; stroke-miterlimit:0;">
      <rect x="0" y="0" width="150" style="clip-path:url(#clipPath5); fill:none;" height="40" />
      <line x1="0" x2="150" y1="14" style="clip-path:url(#clipPath5); fill:none;" y2="14" />
    </g>
    <g transform="translate(292,132)" style="font-size:11; fill:white; text-rendering:optimizeLegibility; font-family:sans-serif; stroke:white; font-weight:bold;">
      <rect x="0" y="0" width="150" style="clip-path:url(#clipPath5); stroke:none;" height="40" />
    </g>
    <g transform="translate(292,132)" style="stroke-linecap:butt; font-size:11; text-rendering:optimizeLegibility; stroke-linejoin:bevel; font-family:sans-serif; font-weight:bold; stroke-miterlimit:0;">
      <rect x="0" y="0" width="150" style="clip-path:url(#clipPath5); fill:none;" height="40" />
      <line x1="0" x2="150" y1="14" style="clip-path:url(#clipPath5); fill:none;" y2="14" />
    </g>
    <g transform="translate(292,182)" style="font-size:11; fill:white; text-rendering:optimizeLegibility; font-family:sans-serif; stroke:white; font-weight:bold;">
      <rect x="0" y="0" width="150" style="clip-path:url(#clipPath5); stroke:none;" height="40" />
    </g>
    <g transform="translate(292,182)" style="stroke-linecap:butt; font-size:11; text-rendering:optimizeLegibility; stroke-linejoin:bevel; font-family:sans-serif; font-weight:bold; stroke-miterlimit:0;">
      <rect x="0" y="0" width="150" style="clip-path:url(#clipPath5); fill:none;" height="40" />
      <line x1="0" x2="150" y1="14" style="clip-path:url(#clipPath5); fill:none;" y2="14" />
    </g>
    <g transform="translate(292,232)" style="font-size:11; fill:white; text-rendering:optimizeLegibility; font-family:sans-serif; stroke:white; font-weight:bold;">
      <rect x="0" y="0" width="150" style="clip-path:url(#clipPath5); stroke:none;" height="40" />
    </g>
    <g transform="translate(292,232)" style="stroke-linecap:butt; font-size:11; text-rendering:optimizeLegibility; stroke-linejoin:bevel; font-family:sans-serif; font-weight:bold; stroke-miterlimit:0;">
      <rect x="0" y="0" width="150" style="clip-path:url(#clipPath5); fill:none;" height="40" />
      <line x1="0" x2="150" y1="14" style="clip-path:url(#clipPath5); fill:none;" y2="14" />
    </g>
    <g transform="translate(292,282)" style="font-size:11; fill:white; text-rendering:optimizeLegibility; font-family:sans-serif; stroke:white; font-weight:bold;">
      <rect x="0" y="0" width="150" style="clip-path:url(#clipPath5); stroke:none;" height="40" />
    </g>
    <g transform="translate(292,282)" style="stroke-linecap:butt; font-size:11; text-rendering:optimizeLegibility; stroke-linejoin:bevel; font-family:sans-serif; font-weight:bold; stroke-miterlimit:0;">
      <rect x="0" y="0" width="150" style="clip-path:url(#clipPath5); fill:none;" height="40" />
      <line x1="0" x2="150" y1="14" style="clip-path:url(#clipPath5); fill:none;" y2="14" />
    </g>
    <g transform="translate(462,132)" style="font-size:11; fill:white; text-rendering:optimizeLegibility; font-family:sans-serif; stroke:white; font-weight:bold;">
      <rect x="0" y="0" width="110" style="clip-path:url(#clipPath4); stroke:none;" height="40" />
    </g>
    <g transform="translate(462,132)" style="stroke-linecap:butt; font-size:11; text-rendering:optimizeLegibility; stroke-linejoin:bevel; font-family:sans-serif; font-weight:bold; stroke-miterlimit:0;">
      <rect x="0" y="0" width="110" style="clip-path:url(#clipPath4); fill:none;" height="40" />
      <line x1="0" x2="110" y1="14" style="clip-path:url(#clipPath4); fill:none;" y2="14" />
    </g>
    <g transform="translate(462,182)" style="font-size:11; fill:white; text-rendering:optimizeLegibility; font-family:sans-serif; stroke:white; font-weight:bold;">
      <rect x="0" y="0" width="110" style="clip-path:url(#clipPath4); stroke:none;" height="40" />
    </g>
    <g transform="translate(462,182)" style="stroke-linecap:butt; font-size:11; text-rendering:optimizeLegibility; stroke-linejoin:bevel; font-family:sans-serif; font-weight:bold; stroke-miterlimit:0;">
      <rect x="0" y="0" width="110" style="clip-path:url(#clipPath4); fill:none;" height="40" />
      <line x1="0" x2="110" y1="14" style="clip-path:url(#clipPath4); fill:none;" y2="14" />
    </g>
    <g transform="translate(462,232)" style="font-size:11; fill:white; text-rendering:optimizeLegibility; font-family:sans-serif; stroke:white; font-weight:bold;">
      <rect x="0" y="0" width="110" style="clip-path:url(#clipPath4); stroke:none;" height="40" />
    </g>
    <g transform="translate(462,232)" style="stroke-linecap:butt; font-size:11; text-rendering:optimizeLegibility; stroke-linejoin:bevel; font-family:sans-serif; font-weight:bold; stroke-miterlimit:0;">
      <rect x="0" y="0" width="110" style="clip-path:url(#clipPath4); fill:none;" height="40" />
      <line x1="0" x2="110" y1="14" style="clip-path:url(#clipPath4); fill:none;" y2="14" />
    </g>
    <g transform="translate(462,282)" style="font-size:11; fill:white; text-rendering:optimizeLegibility; font-family:sans-serif; stroke:white; font-weight:bold;">
      <rect x="0" y="0" width="110" style="clip-path:url(#clipPath4); stroke:none;" height="40" />
    </g>
    <g transform="translate(462,282)" style="stroke-linecap:butt; font-size:11; text-rendering:optimizeLegibility; stroke-linejoin:bevel; font-family:sans-serif; font-weight:bold; stroke-miterlimit:0;">
      <rect x="0" y="0" width="110" style="clip-path:url(#clipPath4); fill:none;" height="40" />
      <line x1="0" x2="110" y1="14" style="clip-path:url(#clipPath4); fill:none;" y2="14" />
    </g>
    <g transform="translate(292,352)" style="font-size:11; fill:white; text-rendering:optimizeLegibility; font-family:sans-serif; stroke:white;">
      <polygon style="clip-path:url(#clipPath6); stroke:none;" points=" 0 0 264 0 279 15 264 15 264 0 279 15 279 39 0 39" />
    </g>
    <g transform="translate(292,352)" style="stroke-linecap:butt; font-size:11; text-rendering:optimizeLegibility; font-family:sans-serif; stroke-linejoin:bevel; stroke-miterlimit:0;">
      <polygon style="fill:none; clip-path:url(#clipPath6);" points=" 0 0 264 0 279 15 264 15 264 0 279 15 279 39 0 39" />
    </g>
    <g style="text-rendering:optimizeLegibility; font-family:sans-serif;" transform="translate(292,352)">
      <text x="3" y="15" style="clip-path:url(#clipPath7); stroke:none;" xml:space="preserve">... and all other extractor implementations...</text>
    </g>
    <g style="text-rendering:optimizeLegibility; font-size:11; font-family:sans-serif;" transform="translate(2,320)">
      <text x="2" y="13" style="clip-path:url(#clipPath9); stroke:none;" xml:space="preserve">+add(factory : ExtractorFactory)</text>
      <text x="2" y="27" style="clip-path:url(#clipPath9); stroke:none;" xml:space="preserve">+remove(factory : ExtractorFactory)</text>
      <text x="2" y="41" style="clip-path:url(#clipPath9); stroke:none;" xml:space="preserve">+getAll() : Set</text>
      <text x="2" y="55" style="clip-path:url(#clipPath9); stroke:none;" xml:space="preserve">+get(mimeType : String)</text>
    </g>
    <g style="text-rendering:optimizeLegibility; font-size:11; font-family:sans-serif;" transform="translate(2,30)">
      <text x="2" y="13" style="clip-path:url(#clipPath10); stroke:none;" xml:space="preserve">+extract(id : URI, stream : InputStream, charset : Charset, mimeType : String, result : RDFContainer)</text>
    </g>
    <g style="text-rendering:optimizeLegibility; font-size:11; font-family:sans-serif;" transform="translate(2,180)">
      <text x="2" y="13" style="clip-path:url(#clipPath12); stroke:none;" xml:space="preserve">+get() : Extractor</text>
      <text x="2" y="27" style="clip-path:url(#clipPath12); stroke:none;" xml:space="preserve">+getSupportedMimeTypes() : Set</text>
    </g>
    <g style="text-rendering:optimizeLegibility; font-size:11; font-family:sans-serif;" transform="translate(2,2)">
      <text x="263" y="11" style="clip-path:url(#clipPath13); stroke:none;" xml:space="preserve">&lt;&lt;interface&gt;&gt;</text>
      <text x="279" y="25" style="clip-path:url(#clipPath13); stroke:none; font-weight:bold;" xml:space="preserve">Extractor</text>
    </g>
    <g style="text-rendering:optimizeLegibility; font-size:11; font-family:sans-serif;" transform="translate(2,152)">
      <text x="63" y="11" style="clip-path:url(#clipPath14); stroke:none;" xml:space="preserve">&lt;&lt;interface&gt;&gt;</text>
      <text x="59" y="25" style="clip-path:url(#clipPath14); stroke:none; font-weight:bold;" xml:space="preserve">ExtractorFactory</text>
    </g>
    <g style="text-rendering:optimizeLegibility; font-size:11; font-family:sans-serif;" transform="translate(2,292)">
      <text x="63" y="11" style="clip-path:url(#clipPath14); stroke:none;" xml:space="preserve">&lt;&lt;interface&gt;&gt;</text>
      <text x="56" y="25" style="clip-path:url(#clipPath14); stroke:none; font-weight:bold;" xml:space="preserve">ExtractorRegistry</text>
    </g>
    <g transform="translate(462,82)" style="text-rendering:optimizeLegibility; font-size:11; font-weight:bold; font-family:sans-serif;">
      <text x="17" y="11" style="clip-path:url(#clipPath15); stroke:none;" xml:space="preserve">ExcelExtrator</text>
    </g>
    <g transform="translate(292,82)" style="text-rendering:optimizeLegibility; font-size:11; font-weight:bold; font-family:sans-serif;">
      <text x="17" y="11" style="clip-path:url(#clipPath16); stroke:none;" xml:space="preserve">ExcelExtratorFactory</text>
    </g>
    <g transform="translate(292,132)" style="text-rendering:optimizeLegibility; font-size:11; font-weight:bold; font-family:sans-serif;">
      <text x="15" y="11" style="clip-path:url(#clipPath16); stroke:none;" xml:space="preserve">HtmlExtractorFactory</text>
    </g>
    <g transform="translate(292,182)" style="text-rendering:optimizeLegibility; font-size:11; font-weight:bold; font-family:sans-serif;">
      <text x="14" y="11" style="clip-path:url(#clipPath16); stroke:none;" xml:space="preserve">MimeExtractorFactory</text>
    </g>
    <g transform="translate(292,232)" style="text-rendering:optimizeLegibility; font-size:11; font-weight:bold; font-family:sans-serif;">
      <text x="12" y="11" style="clip-path:url(#clipPath16); stroke:none;" xml:space="preserve">OfficeExtractorFactory</text>
    </g>
    <g transform="translate(292,282)" style="text-rendering:optimizeLegibility; font-size:11; font-weight:bold; font-family:sans-serif;">
      <text x="20" y="11" style="clip-path:url(#clipPath16); stroke:none;" xml:space="preserve">PdfExtractorFactory</text>
    </g>
    <g transform="translate(462,132)" style="text-rendering:optimizeLegibility; font-size:11; font-weight:bold; font-family:sans-serif;">
      <text x="15" y="11" style="clip-path:url(#clipPath15); stroke:none;" xml:space="preserve">HtmlExtractor</text>
    </g>
    <g transform="translate(462,182)" style="text-rendering:optimizeLegibility; font-size:11; font-weight:bold; font-family:sans-serif;">
      <text x="14" y="11" style="clip-path:url(#clipPath15); stroke:none;" xml:space="preserve">MimeExtractor</text>
    </g>
    <g transform="translate(462,232)" style="text-rendering:optimizeLegibility; font-size:11; font-weight:bold; font-family:sans-serif;">
      <text x="12" y="11" style="clip-path:url(#clipPath15); stroke:none;" xml:space="preserve">OfficeExtractor</text>
    </g>
    <g transform="translate(462,282)" style="text-rendering:optimizeLegibility; font-size:11; font-weight:bold; font-family:sans-serif;">
      <text x="20" y="11" style="clip-path:url(#clipPath15); stroke:none;" xml:space="preserve">PdfExtractor</text>
    </g>
    <g transform="translate(522,2)" style="stroke-linecap:butt; font-size:11; fill-opacity:0.9961; fill:rgb(0,0,0); text-rendering:optimizeLegibility; stroke-linejoin:round; font-family:sans-serif; stroke:rgb(0,0,0); stroke-opacity:0.9961;">
      <line x1="70" x2="70" y1="50" style="clip-path:url(#clipPath17); fill:none;" y2="300" />
      <line x1="70" x2="50" y1="300" style="clip-path:url(#clipPath17); fill:none;" y2="300" />
    </g>
    <g transform="translate(522,2)" style="stroke-linecap:butt; font-size:11; fill:white; text-rendering:optimizeLegibility; font-family:sans-serif; stroke-linejoin:round; stroke:white;">
      <polygon style="clip-path:url(#clipPath17); stroke:none;" points=" 70 50 64 62 76 62" />
    </g>
    <g transform="translate(522,2)" style="stroke-linecap:butt; font-size:11; fill-opacity:0.9961; fill:rgb(0,0,0); text-rendering:optimizeLegibility; stroke-linejoin:round; font-family:sans-serif; stroke:rgb(0,0,0); stroke-opacity:0.9961;">
      <polygon style="fill:none; clip-path:url(#clipPath17);" points=" 70 50 64 62 76 62" />
    </g>
    <g transform="translate(522,2)" style="stroke-linecap:butt; font-size:11; fill-opacity:0.9961; fill:rgb(0,0,0); text-rendering:optimizeLegibility; stroke-linejoin:round; font-family:sans-serif; stroke:rgb(0,0,0); stroke-opacity:0.9961;">
      <line x1="70" x2="70" y1="50" style="clip-path:url(#clipPath18); fill:none;" y2="250" />
      <line x1="70" x2="50" y1="250" style="clip-path:url(#clipPath18); fill:none;" y2="250" />
    </g>
    <g transform="translate(522,2)" style="stroke-linecap:butt; font-size:11; fill:white; text-rendering:optimizeLegibility; font-family:sans-serif; stroke-linejoin:round; stroke:white;">
      <polygon style="clip-path:url(#clipPath18); stroke:none;" points=" 70 50 64 62 76 62" />
    </g>
    <g transform="translate(522,2)" style="stroke-linecap:butt; font-size:11; fill-opacity:0.9961; fill:rgb(0,0,0); text-rendering:optimizeLegibility; stroke-linejoin:round; font-family:sans-serif; stroke:rgb(0,0,0); stroke-opacity:0.9961;">
      <polygon style="fill:none; clip-path:url(#clipPath18);" points=" 70 50 64 62 76 62" />
    </g>
    <g transform="translate(522,2)" style="stroke-linecap:butt; font-size:11; fill-opacity:0.9961; fill:rgb(0,0,0); text-rendering:optimizeLegibility; stroke-linejoin:round; font-family:sans-serif; stroke:rgb(0,0,0); stroke-opacity:0.9961;">
      <line x1="70" x2="70" y1="50" style="clip-path:url(#clipPath19); fill:none;" y2="200" />
      <line x1="70" x2="50" y1="200" style="clip-path:url(#clipPath19); fill:none;" y2="200" />
    </g>
    <g transform="translate(522,2)" style="stroke-linecap:butt; font-size:11; fill:white; text-rendering:optimizeLegibility; font-family:sans-serif; stroke-linejoin:round; stroke:white;">
      <polygon style="clip-path:url(#clipPath19); stroke:none;" points=" 70 50 64 62 76 62" />
    </g>
    <g transform="translate(522,2)" style="stroke-linecap:butt; font-size:11; fill-opacity:0.9961; fill:rgb(0,0,0); text-rendering:optimizeLegibility; stroke-linejoin:round; font-family:sans-serif; stroke:rgb(0,0,0); stroke-opacity:0.9961;">
      <polygon style="fill:none; clip-path:url(#clipPath19);" points=" 70 50 64 62 76 62" />
    </g>
    <g transform="translate(522,2)" style="stroke-linecap:butt; font-size:11; fill-opacity:0.9961; fill:rgb(0,0,0); text-rendering:optimizeLegibility; stroke-linejoin:round; font-family:sans-serif; stroke:rgb(0,0,0); stroke-opacity:0.9961;">
      <line x1="70" x2="70" y1="50" style="clip-path:url(#clipPath20); fill:none;" y2="150" />
      <line x1="70" x2="50" y1="150" style="clip-path:url(#clipPath20); fill:none;" y2="150" />
    </g>
    <g transform="translate(522,2)" style="stroke-linecap:butt; font-size:11; fill:white; text-rendering:optimizeLegibility; font-family:sans-serif; stroke-linejoin:round; stroke:white;">
      <polygon style="clip-path:url(#clipPath20); stroke:none;" points=" 70 50 64 62 76 62" />
    </g>
    <g transform="translate(522,2)" style="stroke-linecap:butt; font-size:11; fill-opacity:0.9961; fill:rgb(0,0,0); text-rendering:optimizeLegibility; stroke-linejoin:round; font-family:sans-serif; stroke:rgb(0,0,0); stroke-opacity:0.9961;">
      <polygon style="fill:none; clip-path:url(#clipPath20);" points=" 70 50 64 62 76 62" />
    </g>
    <g transform="translate(392,252)" style="stroke-linecap:butt; font-size:11; fill-opacity:0.9961; fill:rgb(0,0,0); text-rendering:optimizeLegibility; stroke-linejoin:round; font-family:sans-serif; stroke:rgb(0,0,0); stroke-opacity:0.9961;">
      <line x1="50" x2="69" y1="50" style="clip-path:url(#clipPath21); fill:none;" y2="50" />
    </g>
    <g transform="translate(392,202)" style="stroke-linecap:butt; font-size:11; fill-opacity:0.9961; fill:rgb(0,0,0); text-rendering:optimizeLegibility; stroke-linejoin:round; font-family:sans-serif; stroke:rgb(0,0,0); stroke-opacity:0.9961;">
      <line x1="50" x2="69" y1="50" style="clip-path:url(#clipPath21); fill:none;" y2="50" />
    </g>
    <g transform="translate(392,152)" style="stroke-linecap:butt; font-size:11; fill-opacity:0.9961; fill:rgb(0,0,0); text-rendering:optimizeLegibility; stroke-linejoin:round; font-family:sans-serif; stroke:rgb(0,0,0); stroke-opacity:0.9961;">
      <line x1="50" x2="69" y1="50" style="clip-path:url(#clipPath21); fill:none;" y2="50" />
    </g>
    <g transform="translate(392,102)" style="stroke-linecap:butt; font-size:11; fill-opacity:0.9961; fill:rgb(0,0,0); text-rendering:optimizeLegibility; stroke-linejoin:round; font-family:sans-serif; stroke:rgb(0,0,0); stroke-opacity:0.9961;">
      <line x1="50" x2="69" y1="50" style="clip-path:url(#clipPath21); fill:none;" y2="50" />
    </g>
    <g transform="translate(162,132)" style="stroke-linecap:butt; font-size:11; fill-opacity:0.9961; fill:rgb(0,0,0); text-rendering:optimizeLegibility; stroke-linejoin:round; font-family:sans-serif; stroke:rgb(0,0,0); stroke-opacity:0.9961;">
      <line x1="50" x2="90" y1="50" style="clip-path:url(#clipPath22); fill:none;" y2="50" />
      <line x1="90" x2="90" y1="50" style="clip-path:url(#clipPath22); fill:none;" y2="150" />
      <line x1="90" x2="129" y1="150" style="clip-path:url(#clipPath22); fill:none;" y2="150" />
    </g>
    <g transform="translate(162,132)" style="stroke-linecap:butt; font-size:11; fill:white; text-rendering:optimizeLegibility; font-family:sans-serif; stroke-linejoin:round; stroke:white;">
      <polygon style="clip-path:url(#clipPath22); stroke:none;" points=" 50 50 62 56 62 44" />
    </g>
    <g transform="translate(162,132)" style="stroke-linecap:butt; font-size:11; fill-opacity:0.9961; fill:rgb(0,0,0); text-rendering:optimizeLegibility; stroke-linejoin:round; font-family:sans-serif; stroke:rgb(0,0,0); stroke-opacity:0.9961;">
      <polygon style="fill:none; clip-path:url(#clipPath22);" points=" 50 50 62 56 62 44" />
    </g>
    <g transform="translate(162,132)" style="stroke-linecap:butt; font-size:11; fill-opacity:0.9961; fill:rgb(0,0,0); text-rendering:optimizeLegibility; stroke-linejoin:round; font-family:sans-serif; stroke:rgb(0,0,0); stroke-opacity:0.9961;">
      <line x1="50" x2="90" y1="50" style="clip-path:url(#clipPath23); fill:none;" y2="50" />
      <line x1="90" x2="90" y1="50" style="clip-path:url(#clipPath23); fill:none;" y2="100" />
      <line x1="90" x2="129" y1="100" style="clip-path:url(#clipPath23); fill:none;" y2="100" />
    </g>
    <g transform="translate(162,132)" style="stroke-linecap:butt; font-size:11; fill:white; text-rendering:optimizeLegibility; font-family:sans-serif; stroke-linejoin:round; stroke:white;">
      <polygon style="clip-path:url(#clipPath23); stroke:none;" points=" 50 50 62 56 62 44" />
    </g>
    <g transform="translate(162,132)" style="stroke-linecap:butt; font-size:11; fill-opacity:0.9961; fill:rgb(0,0,0); text-rendering:optimizeLegibility; stroke-linejoin:round; font-family:sans-serif; stroke:rgb(0,0,0); stroke-opacity:0.9961;">
      <polygon style="fill:none; clip-path:url(#clipPath23);" points=" 50 50 62 56 62 44" />
    </g>
    <g transform="translate(162,132)" style="stroke-linecap:butt; font-size:11; fill-opacity:0.9961; fill:rgb(0,0,0); text-rendering:optimizeLegibility; stroke-linejoin:round; font-family:sans-serif; stroke:rgb(0,0,0); stroke-opacity:0.9961;">
      <line x1="50" x2="129" y1="50" style="clip-path:url(#clipPath24); fill:none;" y2="50" />
    </g>
    <g transform="translate(162,132)" style="stroke-linecap:butt; font-size:11; fill:white; text-rendering:optimizeLegibility; font-family:sans-serif; stroke-linejoin:round; stroke:white;">
      <polygon style="clip-path:url(#clipPath24); stroke:none;" points=" 50 50 62 56 62 44" />
    </g>
    <g transform="translate(162,132)" style="stroke-linecap:butt; font-size:11; fill-opacity:0.9961; fill:rgb(0,0,0); text-rendering:optimizeLegibility; stroke-linejoin:round; font-family:sans-serif; stroke:rgb(0,0,0); stroke-opacity:0.9961;">
      <polygon style="fill:none; clip-path:url(#clipPath24);" points=" 50 50 62 56 62 44" />
    </g>
    <g transform="translate(162,92)" style="stroke-linecap:butt; font-size:11; fill-opacity:0.9961; fill:rgb(0,0,0); text-rendering:optimizeLegibility; stroke-linejoin:round; font-family:sans-serif; stroke:rgb(0,0,0); stroke-opacity:0.9961;">
      <line x1="50" x2="90" y1="90" style="clip-path:url(#clipPath25); fill:none;" y2="90" />
      <line x1="90" x2="90" y1="90" style="clip-path:url(#clipPath25); fill:none;" y2="50" />
      <line x1="90" x2="129" y1="50" style="clip-path:url(#clipPath25); fill:none;" y2="50" />
    </g>
    <g transform="translate(162,92)" style="stroke-linecap:butt; font-size:11; fill:white; text-rendering:optimizeLegibility; font-family:sans-serif; stroke-linejoin:round; stroke:white;">
      <polygon style="clip-path:url(#clipPath25); stroke:none;" points=" 50 90 62 96 62 84" />
    </g>
    <g transform="translate(162,92)" style="stroke-linecap:butt; font-size:11; fill-opacity:0.9961; fill:rgb(0,0,0); text-rendering:optimizeLegibility; stroke-linejoin:round; font-family:sans-serif; stroke:rgb(0,0,0); stroke-opacity:0.9961;">
      <polygon style="fill:none; clip-path:url(#clipPath25);" points=" 50 90 62 96 62 84" />
    </g>
    <g transform="translate(522,2)" style="stroke-linecap:butt; font-size:11; fill-opacity:0.9961; fill:rgb(0,0,0); text-rendering:optimizeLegibility; stroke-linejoin:round; font-family:sans-serif; stroke:rgb(0,0,0); stroke-opacity:0.9961;">
      <line x1="70" x2="70" y1="50" style="clip-path:url(#clipPath26); fill:none;" y2="100" />
      <line x1="70" x2="50" y1="100" style="clip-path:url(#clipPath26); fill:none;" y2="100" />
    </g>
    <g transform="translate(522,2)" style="stroke-linecap:butt; font-size:11; fill:white; text-rendering:optimizeLegibility; font-family:sans-serif; stroke-linejoin:round; stroke:white;">
      <polygon style="clip-path:url(#clipPath26); stroke:none;" points=" 70 50 64 62 76 62" />
    </g>
    <g transform="translate(522,2)" style="stroke-linecap:butt; font-size:11; fill-opacity:0.9961; fill:rgb(0,0,0); text-rendering:optimizeLegibility; stroke-linejoin:round; font-family:sans-serif; stroke:rgb(0,0,0); stroke-opacity:0.9961;">
      <polygon style="fill:none; clip-path:url(#clipPath26);" points=" 70 50 64 62 76 62" />
    </g>
    <g transform="translate(392,52)" style="stroke-linecap:butt; font-size:11; fill-opacity:0.9961; fill:rgb(0,0,0); text-rendering:optimizeLegibility; stroke-linejoin:round; font-family:sans-serif; stroke:rgb(0,0,0); stroke-opacity:0.9961;">
      <line x1="50" x2="69" y1="50" style="clip-path:url(#clipPath21); fill:none;" y2="50" />
    </g>
    <g transform="translate(162,52)" style="stroke-linecap:butt; font-size:11; fill-opacity:0.9961; fill:rgb(0,0,0); text-rendering:optimizeLegibility; stroke-linejoin:round; font-family:sans-serif; stroke:rgb(0,0,0); stroke-opacity:0.9961;">
      <line x1="50" x2="90" y1="130" style="clip-path:url(#clipPath27); fill:none;" y2="130" />
      <line x1="90" x2="90" y1="130" style="clip-path:url(#clipPath27); fill:none;" y2="50" />
      <line x1="90" x2="129" y1="50" style="clip-path:url(#clipPath27); fill:none;" y2="50" />
    </g>
    <g transform="translate(162,52)" style="stroke-linecap:butt; font-size:11; fill:white; text-rendering:optimizeLegibility; font-family:sans-serif; stroke-linejoin:round; stroke:white;">
      <polygon style="clip-path:url(#clipPath27); stroke:none;" points=" 50 130 62 136 62 124" />
    </g>
    <g transform="translate(162,52)" style="stroke-linecap:butt; font-size:11; fill-opacity:0.9961; fill:rgb(0,0,0); text-rendering:optimizeLegibility; stroke-linejoin:round; font-family:sans-serif; stroke:rgb(0,0,0); stroke-opacity:0.9961;">
      <polygon style="fill:none; clip-path:url(#clipPath27);" points=" 50 130 62 136 62 124" />
    </g>
    <g transform="translate(42,172)" style="stroke-linecap:butt; font-size:11; fill-opacity:0.9961; fill:rgb(0,0,0); text-rendering:optimizeLegibility; stroke-linejoin:round; font-family:sans-serif; stroke:rgb(0,0,0); stroke-opacity:0.9961;">
      <line x1="50" x2="50" y1="95" style="clip-path:url(#clipPath28); fill:none;" y2="50" />
      <polygon style="fill:none; clip-path:url(#clipPath28);" points=" 50 119 56 107 50 95 44 107" />
    </g>
    <g transform="translate(42,2)" style="stroke-linecap:butt; font-size:11; fill-opacity:0.9961; fill:rgb(0,0,0); text-rendering:optimizeLegibility; stroke-linejoin:round; font-family:sans-serif; stroke:rgb(0,0,0); stroke-opacity:0.9961;">
      <line x1="50" x2="50" y1="50" style="clip-path:url(#clipPath29); fill:none;" y2="149" />
    </g>
    <g style="fill:rgb(120,120,120); text-rendering:optimizeLegibility; font-size:8; stroke:rgb(120,120,120);">
      <text xml:space="preserve" x="0" y="10" style="stroke:none;"></text>
      <text xml:space="preserve" x="0" y="10" style="stroke:none;"></text>
    </g>
  </g>
</svg>
