<?xml version="1.0" encoding="UTF-8"?>

<!DOCTYPE svg PUBLIC '-//W3C//DTD SVG 1.0//EN' 'http://www.w3.org/TR/2001/REC-SVG-20010904/DTD/svg10.dtd'>
<svg style="fill-opacity:1; color-rendering:auto; color-interpolation:auto; text-rendering:auto; stroke:black; stroke-linecap:square; stroke-miterlimit:10; shape-rendering:auto; stroke-opacity:1; fill:black; stroke-dasharray:none; font-weight:normal; stroke-width:1; font-family:&apos;Dialog&apos;; font-style:normal; stroke-linejoin:miter; font-size:12; stroke-dashoffset:0; image-rendering:auto;" xmlns="http://www.w3.org/2000/svg" width="536" xmlns:xlink="http://www.w3.org/1999/xlink" height="336">
  <!--Generated by the Batik Graphics2D SVG Generator-->
  <defs id="genericDefs" />
  <g>
    <defs id="defs1">
      <clipPath clipPathUnits="userSpaceOnUse" id="clipPath1">
        <path d="M-3 -3 L337 -3 L337 57 L-3 57 L-3 -3 Z" />
      </clipPath>
      <clipPath clipPathUnits="userSpaceOnUse" id="clipPath2">
        <path d="M-3 -3 L337 -3 L337 77 L-3 77 L-3 -3 Z" />
      </clipPath>
      <clipPath clipPathUnits="userSpaceOnUse" id="clipPath3">
        <path d="M-3 -3 L337 -3 L337 107 L-3 107 L-3 -3 Z" />
      </clipPath>
      <clipPath clipPathUnits="userSpaceOnUse" id="clipPath4">
        <path d="M-3 -3 L177 -3 L177 47 L-3 47 L-3 -3 Z" />
      </clipPath>
      <clipPath clipPathUnits="userSpaceOnUse" id="clipPath5">
        <path d="M0 0 L174 0 L174 30 L0 30 L0 0 Z" />
      </clipPath>
      <clipPath clipPathUnits="userSpaceOnUse" id="clipPath6">
        <path d="M0 0 L334 0 L334 76 L0 76 L0 0 Z" />
      </clipPath>
      <clipPath clipPathUnits="userSpaceOnUse" id="clipPath7">
        <path d="M0 0 L334 0 L334 46 L0 46 L0 0 Z" />
      </clipPath>
      <clipPath clipPathUnits="userSpaceOnUse" id="clipPath8">
        <path d="M0 0 L334 0 L334 26 L0 26 L0 0 Z" />
      </clipPath>
      <clipPath clipPathUnits="userSpaceOnUse" id="clipPath9">
        <path d="M0 0 L334 0 L334 32 L0 32 L0 0 Z" />
      </clipPath>
      <clipPath clipPathUnits="userSpaceOnUse" id="clipPath10">
        <path d="M0 0 L174 0 L174 18 L0 18 L0 0 Z" />
      </clipPath>
      <clipPath clipPathUnits="userSpaceOnUse" id="clipPath11">
        <path d="M0 0 L87 0 L87 18 L0 18 L0 0 Z" />
      </clipPath>
      <clipPath clipPathUnits="userSpaceOnUse" id="clipPath12">
        <path d="M0 0 L104 0 L104 173 L0 173 L0 0 Z" />
      </clipPath>
      <clipPath clipPathUnits="userSpaceOnUse" id="clipPath13">
        <path d="M0 0 L133 0 L133 104 L0 104 L0 0 Z" />
      </clipPath>
      <clipPath clipPathUnits="userSpaceOnUse" id="clipPath14">
        <path d="M0 0 L104 0 L104 143 L0 143 L0 0 Z" />
      </clipPath>
    </defs>
    <g style="fill:white; text-rendering:optimizeLegibility; stroke:white;">
      <rect x="0" y="0" width="536" style="stroke:none;" height="336" />
    </g>
    <g transform="translate(2,32)" style="font-size:11; fill:white; text-rendering:optimizeLegibility; font-family:sans-serif; stroke:white; font-weight:bold;">
      <rect x="0" y="0" width="330" style="clip-path:url(#clipPath1); stroke:none;" height="50" />
    </g>
    <g transform="translate(2,32)" style="stroke-linecap:butt; font-size:11; text-rendering:optimizeLegibility; stroke-linejoin:bevel; font-family:sans-serif; font-weight:bold; stroke-miterlimit:0;">
      <rect x="0" y="0" width="330" style="clip-path:url(#clipPath1); fill:none;" height="50" />
      <line x1="0" x2="330" y1="28" style="clip-path:url(#clipPath1); fill:none;" y2="28" />
    </g>
    <g transform="translate(2,122)" style="font-size:11; fill:white; text-rendering:optimizeLegibility; font-family:sans-serif; stroke:white; font-weight:bold;">
      <rect x="0" y="0" width="330" style="clip-path:url(#clipPath2); stroke:none;" height="70" />
    </g>
    <g transform="translate(2,122)" style="stroke-linecap:butt; font-size:11; text-rendering:optimizeLegibility; stroke-linejoin:bevel; font-family:sans-serif; font-weight:bold; stroke-miterlimit:0;">
      <rect x="0" y="0" width="330" style="clip-path:url(#clipPath2); fill:none;" height="70" />
      <line x1="0" x2="330" y1="28" style="clip-path:url(#clipPath2); fill:none;" y2="28" />
    </g>
    <g transform="translate(2,232)" style="font-size:11; fill:white; text-rendering:optimizeLegibility; font-family:sans-serif; stroke:white; font-weight:bold;">
      <rect x="0" y="0" width="330" style="clip-path:url(#clipPath3); stroke:none;" height="100" />
    </g>
    <g transform="translate(2,232)" style="stroke-linecap:butt; font-size:11; text-rendering:optimizeLegibility; stroke-linejoin:bevel; font-family:sans-serif; font-weight:bold; stroke-miterlimit:0;">
      <rect x="0" y="0" width="330" style="clip-path:url(#clipPath3); fill:none;" height="100" />
      <line x1="0" x2="330" y1="28" style="clip-path:url(#clipPath3); fill:none;" y2="28" />
    </g>
    <g transform="translate(362,32)" style="font-size:11; fill:white; text-rendering:optimizeLegibility; font-family:sans-serif; stroke:white; font-weight:bold;">
      <rect x="0" y="0" width="170" style="clip-path:url(#clipPath4); stroke:none;" height="40" />
    </g>
    <g transform="translate(362,32)" style="stroke-linecap:butt; font-size:11; text-rendering:optimizeLegibility; stroke-linejoin:bevel; font-family:sans-serif; font-weight:bold; stroke-miterlimit:0;">
      <rect x="0" y="0" width="170" style="clip-path:url(#clipPath4); fill:none;" height="40" />
      <line x1="0" x2="170" y1="14" style="clip-path:url(#clipPath4); fill:none;" y2="14" />
    </g>
    <g transform="translate(362,142)" style="font-size:11; fill:white; text-rendering:optimizeLegibility; font-family:sans-serif; stroke:white; font-weight:bold;">
      <rect x="0" y="0" width="170" style="clip-path:url(#clipPath4); stroke:none;" height="40" />
    </g>
    <g transform="translate(362,142)" style="stroke-linecap:butt; font-size:11; text-rendering:optimizeLegibility; stroke-linejoin:bevel; font-family:sans-serif; font-weight:bold; stroke-miterlimit:0;">
      <rect x="0" y="0" width="170" style="clip-path:url(#clipPath4); fill:none;" height="40" />
      <line x1="0" x2="170" y1="14" style="clip-path:url(#clipPath4); fill:none;" y2="14" />
    </g>
    <g style="text-rendering:optimizeLegibility; font-size:11; font-family:sans-serif;" transform="translate(2,260)">
      <text x="2" y="13" style="clip-path:url(#clipPath6); stroke:none;" xml:space="preserve">+add(factory : LinkExtractorFactory)</text>
      <text x="2" y="27" style="clip-path:url(#clipPath6); stroke:none;" xml:space="preserve">+remove(factory : LinkExtractorFactory)</text>
      <text x="2" y="41" style="clip-path:url(#clipPath6); stroke:none;" xml:space="preserve">+getAll() : Set</text>
      <text x="2" y="55" style="clip-path:url(#clipPath6); stroke:none;" xml:space="preserve">+get(mimeType : String)</text>
    </g>
    <g style="text-rendering:optimizeLegibility; font-size:11; font-family:sans-serif;" transform="translate(2,150)">
      <text x="2" y="13" style="clip-path:url(#clipPath7); stroke:none;" xml:space="preserve">+getSupportedMimeTypes() : Set</text>
      <text x="2" y="27" style="clip-path:url(#clipPath7); stroke:none;" xml:space="preserve">+get() : LinkExtractor</text>
    </g>
    <g style="text-rendering:optimizeLegibility; font-size:11; font-family:sans-serif;" transform="translate(2,60)">
      <text x="2" y="13" style="clip-path:url(#clipPath8); stroke:none;" xml:space="preserve">+extractLinks(stream : InputStream, params : Map) : List</text>
    </g>
    <g style="text-rendering:optimizeLegibility; font-size:11; font-family:sans-serif;" transform="translate(2,32)">
      <text x="123" y="11" style="clip-path:url(#clipPath9); stroke:none;" xml:space="preserve">&lt;&lt;interface&gt;&gt;</text>
      <text x="127" y="25" style="clip-path:url(#clipPath9); stroke:none; font-weight:bold;" xml:space="preserve">LinkExtractor</text>
    </g>
    <g transform="translate(362,142)" style="text-rendering:optimizeLegibility; font-size:11; font-weight:bold; font-family:sans-serif;">
      <text x="13" y="11" style="clip-path:url(#clipPath10); stroke:none;" xml:space="preserve">HtmlLinkExtractorFactory</text>
    </g>
    <g style="text-rendering:optimizeLegibility; font-size:11; font-family:sans-serif;" transform="translate(447,101)">
      <text x="9" y="11" style="clip-path:url(#clipPath11); stroke:none;" xml:space="preserve">producedBy</text>
    </g>
    <g style="text-rendering:optimizeLegibility; font-size:11; font-family:sans-serif;" transform="translate(2,122)">
      <text x="123" y="11" style="clip-path:url(#clipPath9); stroke:none;" xml:space="preserve">&lt;&lt;interface&gt;&gt;</text>
      <text x="107" y="25" style="clip-path:url(#clipPath9); stroke:none; font-weight:bold;" xml:space="preserve">LinkExtractorFactory</text>
    </g>
    <g transform="translate(362,32)" style="text-rendering:optimizeLegibility; font-size:11; font-weight:bold; font-family:sans-serif;">
      <text x="33" y="11" style="clip-path:url(#clipPath10); stroke:none;" xml:space="preserve">HtmlLinkExtractor</text>
    </g>
    <g style="text-rendering:optimizeLegibility; font-size:11; font-family:sans-serif;" transform="translate(2,232)">
      <text x="123" y="11" style="clip-path:url(#clipPath9); stroke:none;" xml:space="preserve">&lt;&lt;interface&gt;&gt;</text>
      <text x="101" y="25" style="clip-path:url(#clipPath9); stroke:none; font-weight:bold;" xml:space="preserve">LinkExtractoryRegistry</text>
    </g>
    <g style="text-rendering:optimizeLegibility; font-size:11; font-family:sans-serif;" transform="translate(147,101)">
      <text x="9" y="11" style="clip-path:url(#clipPath11); stroke:none;" xml:space="preserve">producedBy</text>
    </g>
    <g transform="translate(402,22)" style="stroke-linecap:butt; font-size:11; fill-opacity:0.9961; fill:rgb(0,0,0); text-rendering:optimizeLegibility; stroke-linejoin:round; font-family:sans-serif; stroke:rgb(0,0,0); stroke-opacity:0.9961;">
      <line x1="50" x2="50" y1="50" style="clip-path:url(#clipPath12); fill:none;" y2="119" />
    </g>
    <g transform="translate(282,2)" style="stroke-linecap:butt; font-size:11; fill-opacity:0.9961; fill:rgb(0,0,0); text-rendering:optimizeLegibility; stroke-linejoin:round; font-family:sans-serif; stroke:rgb(0,0,0); stroke-opacity:0.9961;">
      <line x1="50" x2="79" y1="50" style="clip-path:url(#clipPath13); fill:none;" y2="50" />
    </g>
    <g transform="translate(282,2)" style="stroke-linecap:butt; font-size:11; fill:white; text-rendering:optimizeLegibility; font-family:sans-serif; stroke-linejoin:round; stroke:white;">
      <polygon style="clip-path:url(#clipPath13); stroke:none;" points=" 50 50 62 56 62 44" />
    </g>
    <g transform="translate(282,2)" style="stroke-linecap:butt; font-size:11; fill-opacity:0.9961; fill:rgb(0,0,0); text-rendering:optimizeLegibility; stroke-linejoin:round; font-family:sans-serif; stroke:rgb(0,0,0); stroke-opacity:0.9961;">
      <polygon style="fill:none; clip-path:url(#clipPath13);" points=" 50 50 62 56 62 44" />
    </g>
    <g transform="translate(282,112)" style="stroke-linecap:butt; font-size:11; fill-opacity:0.9961; fill:rgb(0,0,0); text-rendering:optimizeLegibility; stroke-linejoin:round; font-family:sans-serif; stroke:rgb(0,0,0); stroke-opacity:0.9961;">
      <line x1="50" x2="79" y1="50" style="clip-path:url(#clipPath13); fill:none;" y2="50" />
    </g>
    <g transform="translate(282,112)" style="stroke-linecap:butt; font-size:11; fill:white; text-rendering:optimizeLegibility; font-family:sans-serif; stroke-linejoin:round; stroke:white;">
      <polygon style="clip-path:url(#clipPath13); stroke:none;" points=" 50 50 62 56 62 44" />
    </g>
    <g transform="translate(282,112)" style="stroke-linecap:butt; font-size:11; fill-opacity:0.9961; fill:rgb(0,0,0); text-rendering:optimizeLegibility; stroke-linejoin:round; font-family:sans-serif; stroke:rgb(0,0,0); stroke-opacity:0.9961;">
      <polygon style="fill:none; clip-path:url(#clipPath13);" points=" 50 50 62 56 62 44" />
    </g>
    <g transform="translate(102,142)" style="stroke-linecap:butt; font-size:11; fill-opacity:0.9961; fill:rgb(0,0,0); text-rendering:optimizeLegibility; stroke-linejoin:round; font-family:sans-serif; stroke:rgb(0,0,0); stroke-opacity:0.9961;">
      <line x1="50" x2="50" y1="65" style="clip-path:url(#clipPath14); fill:none;" y2="50" />
      <polygon style="fill:none; clip-path:url(#clipPath14);" points=" 50 89 56 77 50 65 44 77" />
    </g>
    <g transform="translate(102,32)" style="stroke-linecap:butt; font-size:11; fill-opacity:0.9961; fill:rgb(0,0,0); text-rendering:optimizeLegibility; stroke-linejoin:round; font-family:sans-serif; stroke:rgb(0,0,0); stroke-opacity:0.9961;">
      <line x1="50" x2="50" y1="50" style="clip-path:url(#clipPath14); fill:none;" y2="89" />
    </g>
    <g style="fill:rgb(120,120,120); text-rendering:optimizeLegibility; font-size:8; stroke:rgb(120,120,120);">
      <text xml:space="preserve" x="0" y="10" style="stroke:none;"></text>
      <text xml:space="preserve" x="0" y="10" style="stroke:none;"></text>
    </g>
  </g>
</svg>
