<?xml version="1.0" encoding="UTF-8"?>

<!DOCTYPE svg PUBLIC '-//W3C//DTD SVG 1.0//EN' 'http://www.w3.org/TR/2001/REC-SVG-20010904/DTD/svg10.dtd'>
<svg style="fill-opacity:1; color-rendering:auto; color-interpolation:auto; text-rendering:auto; stroke:black; stroke-linecap:square; stroke-miterlimit:10; shape-rendering:auto; stroke-opacity:1; fill:black; stroke-dasharray:none; font-weight:normal; stroke-width:1; font-family:&apos;Dialog&apos;; font-style:normal; stroke-linejoin:miter; font-size:12; stroke-dashoffset:0; image-rendering:auto;" xmlns="http://www.w3.org/2000/svg" width="646" xmlns:xlink="http://www.w3.org/1999/xlink" height="356">
  <!--Generated by the Batik Graphics2D SVG Generator-->
  <defs id="genericDefs" />
  <g>
    <defs id="defs1">
      <clipPath clipPathUnits="userSpaceOnUse" id="clipPath1">
        <path d="M-3 -3 L377 -3 L377 57 L-3 57 L-3 -3 Z" />
      </clipPath>
      <clipPath clipPathUnits="userSpaceOnUse" id="clipPath2">
        <path d="M-3 -3 L187 -3 L187 57 L-3 57 L-3 -3 Z" />
      </clipPath>
      <clipPath clipPathUnits="userSpaceOnUse" id="clipPath3">
        <path d="M-3 -3 L237 -3 L237 87 L-3 87 L-3 -3 Z" />
      </clipPath>
      <clipPath clipPathUnits="userSpaceOnUse" id="clipPath4">
        <path d="M-3 -3 L197 -3 L197 77 L-3 77 L-3 -3 Z" />
      </clipPath>
      <clipPath clipPathUnits="userSpaceOnUse" id="clipPath5">
        <path d="M-3 -3 L137 -3 L137 47 L-3 47 L-3 -3 Z" />
      </clipPath>
      <clipPath clipPathUnits="userSpaceOnUse" id="clipPath6">
        <path d="M-3 -3 L187 -3 L187 47 L-3 47 L-3 -3 Z" />
      </clipPath>
      <clipPath clipPathUnits="userSpaceOnUse" id="clipPath7">
        <path d="M0 0 L374 0 L374 26 L0 26 L0 0 Z" />
      </clipPath>
      <clipPath clipPathUnits="userSpaceOnUse" id="clipPath8">
        <path d="M0 0 L234 0 L234 56 L0 56 L0 0 Z" />
      </clipPath>
      <clipPath clipPathUnits="userSpaceOnUse" id="clipPath9">
        <path d="M0 0 L184 0 L184 30 L0 30 L0 0 Z" />
      </clipPath>
      <clipPath clipPathUnits="userSpaceOnUse" id="clipPath10">
        <path d="M0 0 L134 0 L134 30 L0 30 L0 0 Z" />
      </clipPath>
      <clipPath clipPathUnits="userSpaceOnUse" id="clipPath11">
        <path d="M0 0 L194 0 L194 60 L0 60 L0 0 Z" />
      </clipPath>
      <clipPath clipPathUnits="userSpaceOnUse" id="clipPath12">
        <path d="M0 0 L184 0 L184 26 L0 26 L0 0 Z" />
      </clipPath>
      <clipPath clipPathUnits="userSpaceOnUse" id="clipPath13">
        <path d="M0 0 L374 0 L374 32 L0 32 L0 0 Z" />
      </clipPath>
      <clipPath clipPathUnits="userSpaceOnUse" id="clipPath14">
        <path d="M0 0 L234 0 L234 32 L0 32 L0 0 Z" />
      </clipPath>
      <clipPath clipPathUnits="userSpaceOnUse" id="clipPath15">
        <path d="M0 0 L134 0 L134 18 L0 18 L0 0 Z" />
      </clipPath>
      <clipPath clipPathUnits="userSpaceOnUse" id="clipPath16">
        <path d="M0 0 L184 0 L184 32 L0 32 L0 0 Z" />
      </clipPath>
      <clipPath clipPathUnits="userSpaceOnUse" id="clipPath17">
        <path d="M0 0 L184 0 L184 18 L0 18 L0 0 Z" />
      </clipPath>
      <clipPath clipPathUnits="userSpaceOnUse" id="clipPath18">
        <path d="M0 0 L88 0 L88 18 L0 18 L0 0 Z" />
      </clipPath>
      <clipPath clipPathUnits="userSpaceOnUse" id="clipPath19">
        <path d="M0 0 L194 0 L194 18 L0 18 L0 0 Z" />
      </clipPath>
      <clipPath clipPathUnits="userSpaceOnUse" id="clipPath20">
        <path d="M0 0 L73 0 L73 18 L0 18 L0 0 Z" />
      </clipPath>
      <clipPath clipPathUnits="userSpaceOnUse" id="clipPath21">
        <path d="M0 0 L173 0 L173 104 L0 104 L0 0 Z" />
      </clipPath>
      <clipPath clipPathUnits="userSpaceOnUse" id="clipPath22">
        <path d="M0 0 L104 0 L104 123 L0 123 L0 0 Z" />
      </clipPath>
      <clipPath clipPathUnits="userSpaceOnUse" id="clipPath23">
        <path d="M0 0 L104 0 L104 223 L0 223 L0 0 Z" />
      </clipPath>
      <clipPath clipPathUnits="userSpaceOnUse" id="clipPath24">
        <path d="M0 0 L104 0 L104 143 L0 143 L0 0 Z" />
      </clipPath>
      <clipPath clipPathUnits="userSpaceOnUse" id="clipPath25">
        <path d="M0 0 L244 0 L244 144 L0 144 L0 0 Z" />
      </clipPath>
      <clipPath clipPathUnits="userSpaceOnUse" id="clipPath26">
        <path d="M0 0 L104 0 L104 153 L0 153 L0 0 Z" />
      </clipPath>
    </defs>
    <g style="fill:white; text-rendering:optimizeLegibility; stroke:white;">
      <rect x="0" y="0" width="646" style="stroke:none;" height="356" />
    </g>
    <g transform="translate(22,112)" style="font-size:11; fill:white; text-rendering:optimizeLegibility; font-family:sans-serif; stroke:white; font-weight:bold;">
      <rect x="0" y="0" width="370" style="clip-path:url(#clipPath1); stroke:none;" height="50" />
    </g>
    <g transform="translate(22,112)" style="stroke-linecap:butt; font-size:11; text-rendering:optimizeLegibility; stroke-linejoin:bevel; font-family:sans-serif; font-weight:bold; stroke-miterlimit:0;">
      <rect x="0" y="0" width="370" style="clip-path:url(#clipPath1); fill:none;" height="50" />
      <line x1="0" x2="370" y1="28" style="clip-path:url(#clipPath1); fill:none;" y2="28" />
    </g>
    <g transform="translate(212,212)" style="font-size:11; fill:white; text-rendering:optimizeLegibility; font-family:sans-serif; stroke:white; font-weight:bold;">
      <rect x="0" y="0" width="180" style="clip-path:url(#clipPath2); stroke:none;" height="50" />
    </g>
    <g transform="translate(212,212)" style="stroke-linecap:butt; font-size:11; text-rendering:optimizeLegibility; stroke-linejoin:bevel; font-family:sans-serif; font-weight:bold; stroke-miterlimit:0;">
      <rect x="0" y="0" width="180" style="clip-path:url(#clipPath2); fill:none;" height="50" />
      <line x1="0" x2="180" y1="28" style="clip-path:url(#clipPath2); fill:none;" y2="28" />
    </g>
    <g transform="translate(412,112)" style="font-size:11; fill:white; text-rendering:optimizeLegibility; font-family:sans-serif; stroke:white; font-weight:bold;">
      <rect x="0" y="0" width="230" style="clip-path:url(#clipPath3); stroke:none;" height="80" />
    </g>
    <g transform="translate(412,112)" style="stroke-linecap:butt; font-size:11; text-rendering:optimizeLegibility; stroke-linejoin:bevel; font-family:sans-serif; font-weight:bold; stroke-miterlimit:0;">
      <rect x="0" y="0" width="230" style="clip-path:url(#clipPath3); fill:none;" height="80" />
      <line x1="0" x2="230" y1="28" style="clip-path:url(#clipPath3); fill:none;" y2="28" />
    </g>
    <g transform="translate(112,2)" style="font-size:11; fill:white; text-rendering:optimizeLegibility; font-family:sans-serif; stroke:white; font-weight:bold;">
      <rect x="0" y="0" width="190" style="clip-path:url(#clipPath4); stroke:none;" height="70" />
    </g>
    <g transform="translate(112,2)" style="stroke-linecap:butt; font-size:11; text-rendering:optimizeLegibility; stroke-linejoin:bevel; font-family:sans-serif; font-weight:bold; stroke-miterlimit:0;">
      <rect x="0" y="0" width="190" style="clip-path:url(#clipPath4); fill:none;" height="70" />
      <line x1="0" x2="190" y1="14" style="clip-path:url(#clipPath4); fill:none;" y2="14" />
    </g>
    <g transform="translate(12,282)" style="font-size:11; fill:white; text-rendering:optimizeLegibility; font-family:sans-serif; stroke:white; font-weight:bold;">
      <rect x="0" y="0" width="130" style="clip-path:url(#clipPath5); stroke:none;" height="40" />
    </g>
    <g transform="translate(12,282)" style="stroke-linecap:butt; font-size:11; text-rendering:optimizeLegibility; stroke-linejoin:bevel; font-family:sans-serif; font-weight:bold; stroke-miterlimit:0;">
      <rect x="0" y="0" width="130" style="clip-path:url(#clipPath5); fill:none;" height="40" />
      <line x1="0" x2="130" y1="14" style="clip-path:url(#clipPath5); fill:none;" y2="14" />
    </g>
    <g transform="translate(212,282)" style="font-size:11; fill:white; text-rendering:optimizeLegibility; font-family:sans-serif; stroke:white; font-weight:bold;">
      <rect x="0" y="0" width="180" style="clip-path:url(#clipPath6); stroke:none;" height="40" />
    </g>
    <g transform="translate(212,282)" style="stroke-linecap:butt; font-size:11; text-rendering:optimizeLegibility; stroke-linejoin:bevel; font-family:sans-serif; font-weight:bold; stroke-miterlimit:0;">
      <rect x="0" y="0" width="180" style="clip-path:url(#clipPath6); fill:none;" height="40" />
      <line x1="0" x2="180" y1="14" style="clip-path:url(#clipPath6); fill:none;" y2="14" />
    </g>
    <g style="text-rendering:optimizeLegibility; font-size:11; font-family:sans-serif;" transform="translate(22,140)">
      <text x="2" y="13" style="clip-path:url(#clipPath7); stroke:none;" xml:space="preserve">+decide(certificateChain, rootCANotValid, timeNotValid) : Decision</text>
    </g>
    <g style="text-rendering:optimizeLegibility; font-size:11; font-family:sans-serif;" transform="translate(412,140)">
      <text x="2" y="13" style="clip-path:url(#clipPath8); stroke:none;" xml:space="preserve">+add(factory : TrustDeciderFactory)</text>
      <text x="2" y="27" style="clip-path:url(#clipPath8); stroke:none;" xml:space="preserve">+remove(factory : TrustDeciderFactory)</text>
      <text x="2" y="41" style="clip-path:url(#clipPath8); stroke:none;" xml:space="preserve">+getAll() : Set</text>
    </g>
    <g style="text-rendering:optimizeLegibility; font-size:11; font-family:sans-serif;" transform="translate(112,16)">
      <text x="2" y="13" style="clip-path:url(#clipPath11); stroke:none;" xml:space="preserve">+TRUST_THIS_SESSION : Decision</text>
      <text x="2" y="27" style="clip-path:url(#clipPath11); stroke:none;" xml:space="preserve">+TRUST_ALWAYS : Decision</text>
      <text x="2" y="41" style="clip-path:url(#clipPath11); stroke:none;" xml:space="preserve">+DISTRUST : Decision</text>
    </g>
    <g style="text-rendering:optimizeLegibility; font-size:11; font-family:sans-serif;" transform="translate(212,240)">
      <text x="2" y="13" style="clip-path:url(#clipPath12); stroke:none;" xml:space="preserve">+get() : TrustDecider</text>
    </g>
    <g style="text-rendering:optimizeLegibility; font-size:11; font-family:sans-serif;" transform="translate(22,112)">
      <text x="143" y="11" style="clip-path:url(#clipPath13); stroke:none;" xml:space="preserve">&lt;&lt;interface&gt;&gt;</text>
      <text x="148" y="25" style="clip-path:url(#clipPath13); stroke:none; font-weight:bold;" xml:space="preserve">TrustDecider</text>
    </g>
    <g style="text-rendering:optimizeLegibility; font-size:11; font-family:sans-serif;" transform="translate(412,112)">
      <text x="73" y="11" style="clip-path:url(#clipPath14); stroke:none;" xml:space="preserve">&lt;&lt;interface&gt;&gt;</text>
      <text x="55" y="25" style="clip-path:url(#clipPath14); stroke:none; font-weight:bold;" xml:space="preserve">TrustDeciderRegistry</text>
    </g>
    <g transform="translate(12,282)" style="text-rendering:optimizeLegibility; font-size:11; font-weight:bold; font-family:sans-serif;">
      <text x="9" y="11" style="clip-path:url(#clipPath15); stroke:none;" xml:space="preserve">TrustDeciderDialog</text>
    </g>
    <g style="text-rendering:optimizeLegibility; font-size:11; font-family:sans-serif;" transform="translate(212,212)">
      <text x="48" y="11" style="clip-path:url(#clipPath16); stroke:none;" xml:space="preserve">&lt;&lt;interface&gt;&gt;</text>
      <text x="33" y="25" style="clip-path:url(#clipPath16); stroke:none; font-weight:bold;" xml:space="preserve">TrustDeciderFactory</text>
    </g>
    <g transform="translate(212,282)" style="text-rendering:optimizeLegibility; font-size:11; font-weight:bold; font-family:sans-serif;">
      <text x="15" y="11" style="clip-path:url(#clipPath17); stroke:none;" xml:space="preserve">TrustDeciderDialogFactory</text>
    </g>
    <g style="text-rendering:optimizeLegibility; font-size:11; font-family:sans-serif;" transform="translate(136,282)">
      <text x="10" y="11" style="clip-path:url(#clipPath18); stroke:none;" xml:space="preserve">producedBy</text>
    </g>
    <g transform="translate(112,2)" style="text-rendering:optimizeLegibility; font-size:11; font-weight:bold; font-family:sans-serif;">
      <text x="70" y="11" style="clip-path:url(#clipPath19); stroke:none;" xml:space="preserve">Decision</text>
    </g>
    <g style="text-rendering:optimizeLegibility; font-size:11; font-family:sans-serif;" transform="translate(195,80)">
      <text x="10" y="11" style="clip-path:url(#clipPath20); stroke:none;" xml:space="preserve">isMadeBy</text>
    </g>
    <g style="text-rendering:optimizeLegibility; font-size:11; font-family:sans-serif;" transform="translate(302,181)">
      <text x="10" y="11" style="clip-path:url(#clipPath18); stroke:none;" xml:space="preserve">producedBy</text>
    </g>
    <g transform="translate(92,252)" style="stroke-linecap:butt; font-size:11; fill-opacity:0.9961; fill:rgb(0,0,0); text-rendering:optimizeLegibility; stroke-linejoin:round; font-family:sans-serif; stroke:rgb(0,0,0); stroke-opacity:0.9961;">
      <line x1="50" x2="119" y1="50" style="clip-path:url(#clipPath21); fill:none;" y2="50" />
    </g>
    <g transform="translate(262,212)" style="stroke-linecap:butt; font-size:11; fill-opacity:0.9961; fill:rgb(0,0,0); text-rendering:optimizeLegibility; stroke-linejoin:round; font-family:sans-serif; stroke:rgb(0,0,0); stroke-opacity:0.9961;">
      <line x1="50" x2="50" y1="50" style="clip-path:url(#clipPath22); fill:none;" y2="69" />
    </g>
    <g transform="translate(262,212)" style="stroke-linecap:butt; font-size:11; fill:white; text-rendering:optimizeLegibility; font-family:sans-serif; stroke-linejoin:round; stroke:white;">
      <polygon style="clip-path:url(#clipPath22); stroke:none;" points=" 50 50 44 62 56 62" />
    </g>
    <g transform="translate(262,212)" style="stroke-linecap:butt; font-size:11; fill-opacity:0.9961; fill:rgb(0,0,0); text-rendering:optimizeLegibility; stroke-linejoin:round; font-family:sans-serif; stroke:rgb(0,0,0); stroke-opacity:0.9961;">
      <polygon style="fill:none; clip-path:url(#clipPath22);" points=" 50 50 44 62 56 62" />
    </g>
    <g transform="translate(2,112)" style="stroke-linecap:butt; font-size:11; fill-opacity:0.9961; fill:rgb(0,0,0); text-rendering:optimizeLegibility; stroke-linejoin:round; font-family:sans-serif; stroke:rgb(0,0,0); stroke-opacity:0.9961;">
      <line x1="50" x2="50" y1="50" style="clip-path:url(#clipPath23); fill:none;" y2="169" />
    </g>
    <g transform="translate(2,112)" style="stroke-linecap:butt; font-size:11; fill:white; text-rendering:optimizeLegibility; font-family:sans-serif; stroke-linejoin:round; stroke:white;">
      <polygon style="clip-path:url(#clipPath23); stroke:none;" points=" 50 50 44 62 56 62" />
    </g>
    <g transform="translate(2,112)" style="stroke-linecap:butt; font-size:11; fill-opacity:0.9961; fill:rgb(0,0,0); text-rendering:optimizeLegibility; stroke-linejoin:round; font-family:sans-serif; stroke:rgb(0,0,0); stroke-opacity:0.9961;">
      <polygon style="fill:none; clip-path:url(#clipPath23);" points=" 50 50 44 62 56 62" />
    </g>
    <g transform="translate(152,22)" style="stroke-linecap:butt; font-size:11; fill-opacity:0.9961; fill:rgb(0,0,0); text-rendering:optimizeLegibility; stroke-linejoin:round; font-family:sans-serif; stroke:rgb(0,0,0); stroke-opacity:0.9961;">
      <line x1="50" x2="50" y1="89" style="clip-path:url(#clipPath24); fill:none;" y2="50" />
    </g>
    <g transform="translate(342,142)" style="stroke-linecap:butt; font-size:11; fill-opacity:0.9961; fill:rgb(0,0,0); text-rendering:optimizeLegibility; stroke-linejoin:round; font-family:sans-serif; stroke:rgb(0,0,0); stroke-opacity:0.9961;">
      <line x1="190" x2="190" y1="74" style="clip-path:url(#clipPath25); fill:none;" y2="90" />
      <line x1="190" x2="50" y1="90" style="clip-path:url(#clipPath25); fill:none;" y2="90" />
      <polygon style="fill:none; clip-path:url(#clipPath25);" points=" 190 50 184 62 190 74 196 62" />
    </g>
    <g transform="translate(262,112)" style="stroke-linecap:butt; font-size:11; fill-opacity:0.9961; fill:rgb(0,0,0); text-rendering:optimizeLegibility; stroke-linejoin:round; font-family:sans-serif; stroke:rgb(0,0,0); stroke-opacity:0.9961;">
      <line x1="50" x2="50" y1="50" style="clip-path:url(#clipPath26); fill:none;" y2="99" />
    </g>
    <g style="fill:rgb(120,120,120); text-rendering:optimizeLegibility; font-size:8; stroke:rgb(120,120,120);">
      <text xml:space="preserve" x="0" y="10" style="stroke:none;"></text>
      <text xml:space="preserve" x="0" y="10" style="stroke:none;"></text>
    </g>
  </g>
</svg>
